<svg id="Expand" enable-background="new 0 0 96 96" height="512" viewBox="0 0 96 96" width="512" xmlns="http://www.w3.org/2000/svg"><circle cx="48" cy="44" r="1"/><circle cx="48" cy="40" r="1"/><circle cx="48" cy="36" r="1"/><path d="m93.848 10.47-5-8c-.366-.585-1.33-.585-1.696 0l-5 8c-.099.159-.152.342-.152.53v19h-28.022c1.646-1.231 2.915-2.961 3.556-5h1.466c.332 0 .642-.165.828-.439s.224-.624.101-.932l-1.929-4.821v-.934c1.723-.445 3-2.013 3-3.874v-2c0-.552-.448-1-1-1h-17c-2.757 0-5 2.243-5 5v5.653c0 3.404 1.638 6.454 4.134 8.347h-6.318c.112-.314.184-.648.184-1v-26c0-.552-.448-1-1-1h-32c-.552 0-1 .448-1 1v26c0 1.654 1.346 3 3 3h7v2c0 2.757 2.243 5 5 5h20v18.864l-7.829 28.19c-3.47.412-6.171 3.367-6.171 6.946 0 .552.448 1 1 1h18c.552 0 1-.448 1-1v-5.876l5-20 5 20v5.876c0 .552.448 1 1 1h18c.552 0 1-.448 1-1 0-3.86-3.14-7-7-7h-.213l-6.787-28.119v-18.881h20c1.13 0 2.162-.391 3-1.026v8.026c0 .552.448 1 1 1s1-.448 1-1v-12-3-19h4v11c0 .552.448 1 1 1s1-.448 1-1v-11h2v37h-9c-.552 0-1 .448-1 1v7c0 2.757 2.243 5 5 5h2c2.757 0 5-2.243 5-5v-46c0-.188-.053-.371-.152-.53zm-53.848 5.53c0-1.654 1.346-3 3-3h16v1c0 1.103-.897 2-2 2h-13c-.552 0-1 .448-1 1v1c0 1.654-1.346 3-3 3zm.114 6.989c2.703-.063 4.886-2.271 4.886-4.989h11v1c0 .127.024.253.071.372l1.452 3.628h-.754c-.467 0-.872.323-.975.778-.84 3.699-4.202 6.296-8 6.219-3.863-.096-7.069-3.133-7.68-7.008zm47.886-18.102 3.196 5.113h-6.392zm-54 21.113h-14v-22h14zm-30 3v-25h14v22h-11c-.552 0-1 .448-1 1s.448 1 1 1h27v1c0 .551-.449 1-1 1h-28c-.551 0-1-.449-1-1zm10 5v-2h3v5c-1.654 0-3-1.346-3-3zm27 58h-15.899c.464-2.279 2.485-4 4.899-4h11zm29.899 0h-15.899v-4h11c2.415 0 4.435 1.721 4.899 4zm-12.899-55c-.552 0-1 .448-1 1v17h-15c-.552 0-1 .448-1 1s.448 1 1 1h15v1c0 .079.009.158.028.235l6.702 27.765h-8.949l-5.811-23.243c-.111-.445-.511-.757-.97-.757s-.859.312-.97.757l-5.811 23.243h-9.958l7.702-27.732c.025-.087.037-.178.037-.268v-20c0-.552-.448-1-1-1h-19v-5h58v5zm21 0v-5h3v2c0 1.654-1.346 3-3 3zm13 14v2h-8v-2zm-3 9h-2c-1.654 0-3-1.346-3-3v-2h8v2c0 1.654-1.346 3-3 3z"/><path d="m90 30v-3c0-.552-.448-1-1-1s-1 .448-1 1v3c0 .552.448 1 1 1s1-.448 1-1z"/><path d="m7 8h8c.552 0 1-.448 1-1s-.448-1-1-1h-8c-.552 0-1 .448-1 1s.448 1 1 1z"/><path d="m7 12h8c.552 0 1-.448 1-1s-.448-1-1-1h-8c-.552 0-1 .448-1 1s.448 1 1 1z"/><path d="m7 16h8c.552 0 1-.448 1-1s-.448-1-1-1h-8c-.552 0-1 .448-1 1s.448 1 1 1z"/><path d="m7 20h8c.552 0 1-.448 1-1s-.448-1-1-1h-8c-.552 0-1 .448-1 1s.448 1 1 1z"/><path d="m7 24h8c.552 0 1-.448 1-1s-.448-1-1-1h-8c-.552 0-1 .448-1 1s.448 1 1 1z"/><path d="m23 8h8c.552 0 1-.448 1-1s-.448-1-1-1h-8c-.552 0-1 .448-1 1s.448 1 1 1z"/><path d="m23 12h8c.552 0 1-.448 1-1s-.448-1-1-1h-8c-.552 0-1 .448-1 1s.448 1 1 1z"/><path d="m23 16h8c.552 0 1-.448 1-1s-.448-1-1-1h-8c-.552 0-1 .448-1 1s.448 1 1 1z"/><path d="m23 20h8c.552 0 1-.448 1-1s-.448-1-1-1h-8c-.552 0-1 .448-1 1s.448 1 1 1z"/><path d="m23 24h8c.552 0 1-.448 1-1s-.448-1-1-1h-8c-.552 0-1 .448-1 1s.448 1 1 1z"/><path d="m9 40c-.552 0-1 .448-1 1v13c0 .552.448 1 1 1s1-.448 1-1v-13c0-.552-.448-1-1-1z"/><circle cx="9" cy="58" r="1"/><circle cx="9" cy="62" r="1"/><path d="m16 44c-.552 0-1 .448-1 1v13c0 .552.448 1 1 1s1-.448 1-1v-13c0-.552-.448-1-1-1z"/><circle cx="16" cy="62" r="1"/><path d="m23 63c.552 0 1-.448 1-1v-13c0-.552-.448-1-1-1s-1 .448-1 1v13c0 .552.448 1 1 1z"/><circle cx="23" cy="66" r="1"/><circle cx="16" cy="66" r="1"/><circle cx="9" cy="66" r="1"/></svg>