<svg id="Expand" enable-background="new 0 0 96 96" height="512" viewBox="0 0 96 96" width="512" xmlns="http://www.w3.org/2000/svg"><path d="m39 62h18c.553 0 1-.448 1-1s-.447-1-1-1h-17v-7c0-2.251 1.506-4.138 3.556-4.762l3.576 6.258c.178.312.51.504.868.504s.69-.192.868-.504l3.576-6.258c2.05.624 3.556 2.511 3.556 4.762v4c0 .552.447 1 1 1s1-.448 1-1v-4c0-3.287-2.28-6.044-5.339-6.792 1.432-1.283 2.339-3.139 2.339-5.208 0-3.86-3.141-7-7-7s-7 3.14-7 7c0 2.069.907 3.925 2.339 5.208-3.059.748-5.339 3.505-5.339 6.792v8c0 .552.447 1 1 1zm9-10.016-2.277-3.984h4.554zm-5-10.984c0-2.757 2.243-5 5-5s5 2.243 5 5-2.243 5-5 5-5-2.243-5-5z"/><path d="m77.173 70.75c-.2.256-.403.509-.609.759-.352.426-.291 1.057.136 1.408.187.153.411.228.635.228.289 0 .575-.124.772-.364.218-.264.433-.531.643-.8.34-.435.263-1.063-.173-1.403-.436-.343-1.065-.264-1.404.172z"/><path d="m70.251 77.556c-.26.195-.522.388-.787.577-.449.321-.554.946-.232 1.395.194.273.502.419.814.419.201 0 .404-.061.58-.186.278-.199.553-.4.826-.605.441-.332.53-.958.199-1.4s-.959-.53-1.4-.2z"/><path d="m81.278 66.373c-.478-.281-1.089-.12-1.369.354-.164.28-.332.557-.504.832-.293.468-.15 1.085.317 1.378.165.103.349.152.529.152.333 0 .659-.167.849-.47.182-.291.359-.583.533-.878.28-.475.122-1.088-.355-1.368z"/><path d="m66.18 80.225c-.282.16-.566.316-.854.469-.487.259-.673.864-.413 1.352.18.338.525.531.884.531.158 0 .318-.038.469-.117.302-.161.602-.325.899-.493.48-.272.65-.882.378-1.363s-.885-.65-1.363-.379z"/><path d="m73.935 74.381c-.231.227-.466.451-.703.673-.404.376-.427 1.009-.05 1.413.197.211.464.318.731.318.244 0 .489-.089.682-.269.251-.233.499-.47.742-.71.394-.387.399-1.021.012-1.414-.387-.394-1.022-.398-1.414-.011z"/><path d="m29.271 79.909c-.28-.164-.558-.332-.832-.503-.467-.293-1.085-.15-1.378.318-.292.468-.149 1.085.319 1.378.29.181.583.359.879.533.159.093.333.137.505.137.343 0 .678-.177.863-.494.28-.477.121-1.09-.356-1.369z"/><path d="m17.867 69.464c-.32-.448-.944-.555-1.395-.234s-.555.945-.234 1.395c.199.279.401.556.608.83.196.26.496.397.799.397.21 0 .422-.066.603-.202.44-.333.527-.96.194-1.401-.195-.26-.387-.521-.575-.785z"/><path d="m24.491 76.564c-.428-.353-1.057-.29-1.408.135-.352.426-.291 1.056.135 1.408.265.218.531.432.802.643.183.143.399.211.614.211.298 0 .593-.132.79-.385.339-.436.262-1.064-.174-1.403-.257-.2-.51-.403-.759-.609z"/><path d="m20.945 73.23c-.377-.404-1.011-.424-1.413-.048-.403.377-.425 1.01-.048 1.414.233.25.47.497.71.741.195.199.454.299.713.299.253 0 .507-.096.701-.287.394-.387.399-1.021.012-1.414-.228-.232-.453-.467-.675-.705z"/><path d="m15.308 65.327c-.26-.488-.867-.675-1.352-.416-.488.259-.675.864-.416 1.352.161.304.326.605.496.904.185.324.522.505.87.505.168 0 .338-.042.493-.131.48-.273.648-.884.375-1.364-.16-.281-.315-.564-.466-.85z"/><path d="m25.149 18.644c.209 0 .42-.065.6-.2.26-.195.522-.388.787-.577.449-.321.554-.946.232-1.395-.319-.449-.946-.554-1.395-.233-.278.199-.553.4-.826.605-.441.332-.53.958-.199 1.4.197.262.498.4.801.4z"/><path d="m21.364 21.906c.253 0 .507-.096.701-.287.231-.227.466-.451.703-.673.404-.376.427-1.009.05-1.413-.377-.405-1.01-.426-1.413-.05-.251.233-.499.47-.742.71-.394.387-.399 1.021-.012 1.414.196.199.454.299.713.299z"/><path d="m29.329 15.904c.167 0 .336-.042.491-.129.282-.16.566-.316.854-.469.487-.259.673-.864.413-1.352-.259-.488-.862-.674-1.353-.414-.302.161-.602.325-.899.493-.48.272-.65.882-.378 1.363.185.326.523.508.872.508z"/><path d="m18.038 25.634c.298 0 .592-.132.789-.385.2-.256.403-.509.609-.759.352-.426.291-1.057-.136-1.408-.428-.351-1.058-.29-1.407.136-.218.264-.433.531-.643.8-.34.435-.263 1.063.173 1.403.183.144.4.213.615.213z"/><path d="m14.722 29.627c.159.094.334.138.506.138.343 0 .677-.176.863-.493.164-.28.332-.557.504-.832.293-.468.15-1.085-.317-1.378-.469-.293-1.086-.15-1.378.318-.182.291-.359.583-.533.878-.28.476-.122 1.089.355 1.369z"/><path d="m75.055 22.77c.196.211.463.317.73.317.245 0 .49-.089.683-.269.403-.377.425-1.01.048-1.414-.233-.25-.47-.497-.71-.741-.387-.395-1.021-.399-1.414-.012-.394.387-.399 1.021-.012 1.414.228.232.453.467.675.705z"/><path d="m80.692 30.673c.18.339.526.532.885.532.158 0 .318-.037.467-.116.488-.259.675-.864.416-1.352-.161-.304-.326-.605-.496-.904-.273-.48-.888-.648-1.363-.375-.48.273-.648.884-.375 1.364.16.282.315.565.466.851z"/><path d="m71.509 19.436c.187.154.412.229.636.229.289 0 .574-.124.772-.364.352-.426.291-1.056-.135-1.408-.265-.218-.531-.432-.802-.643-.437-.34-1.064-.262-1.404.174-.339.436-.262 1.064.174 1.403.257.2.51.403.759.609z"/><path d="m78.133 26.536c.195.274.503.42.815.42.2 0 .403-.06.579-.186.45-.32.555-.945.234-1.395-.199-.279-.401-.556-.608-.83-.333-.441-.961-.528-1.401-.195s-.527.96-.194 1.401c.195.26.387.521.575.785z"/><path d="m66.729 16.091c.28.164.558.332.832.503.164.103.348.152.528.152.333 0 .659-.167.85-.47.292-.468.149-1.085-.319-1.378-.29-.181-.583-.359-.879-.533-.477-.28-1.09-.12-1.368.357-.28.477-.121 1.09.356 1.369z"/><path d="m41 12c.553 0 1-.448 1-1 0-3.86 3.141-7 7-7s7 3.14 7 7v2c0 2.358-.798 4.682-2.245 6.543l-3.93 5.053c-.532.684-.825 1.537-.825 2.49.001.511-.197.992-.559 1.354-.36.361-.84.56-1.426.56-.541 0-1.049-.208-1.429-.588-.378-.377-.586-.88-.586-1.415v-.997c0-.552-.447-1-1-1s-1 .448-1 1v.997c-.001 1.07.416 2.076 1.174 2.832s1.766 1.171 2.916 1.171c1.046 0 2.028-.408 2.768-1.147.738-.741 1.144-1.725 1.142-2.853 0-.424.144-.841.403-1.176l3.93-5.053c1.72-2.21 2.667-4.97 2.667-7.771v-2c0-4.962-4.037-9-9-9s-9 4.038-9 9c0 .552.447 1 1 1z"/><path d="m50.598 17.088-3.929 5.051c-.34.436-.261 1.064.175 1.403.183.142.399.21.613.21.298 0 .593-.133.79-.386l3.929-5.051c1.177-1.512 1.824-3.4 1.824-5.315v-2c0-2.757-2.243-5-5-5s-5 2.243-5 5c0 .552.447 1 1 1h2v1.586l-1.707 1.707c-.391.391-.391 1.023 0 1.414s1.023.391 1.414 0l2-2c.188-.187.293-.442.293-.707v-3c0-.552-.447-1-1-1h-1.829c.413-1.164 1.525-2 2.829-2 1.654 0 3 1.346 3 3v2c0 1.473-.498 2.924-1.402 4.088z"/><path d="m93.986 47.163c.074-.446-.161-.886-.572-1.073l-11-5c-.231-.104-.492-.119-.73-.039l-2.684.895-2.684-.895c-.241-.08-.502-.066-.73.039l-11 5c-.411.187-.646.627-.572 1.073.045.273.205.496.42.646l-.007.01 6.723 4.706c2.313 1.62 5.028 2.475 7.85 2.475s5.537-.855 7.851-2.475l6.723-4.706-.007-.01c.214-.151.375-.374.419-.646zm-17.929-4.09 2.627.876c.205.068.428.068.633 0l2.627-.876 7.264 3.302-6.134.613-3.831-.958c-.08-.02-.162-.03-.243-.03s-.163.01-.242.03l-3.831.958-6.134-.613zm9.647 7.814c-1.975 1.382-4.294 2.113-6.704 2.113s-4.729-.731-6.704-2.113l-3.587-2.511 6.191.619c.115.012.23.003.342-.025l3.758-.939 3.758.939c.079.02.16.03.242.03.033 0 .066-.001.1-.005l6.191-.619z"/><path d="m33 34h-30c-.553 0-1 .448-1 1v22c0 1.654 1.346 3 3 3h26c1.654 0 3-1.346 3-3v-22c0-.552-.447-1-1-1zm-1 20h-13v-18h13zm-1 4h-26c-.552 0-1-.449-1-1v-21h13v18h-10c-.553 0-1 .448-1 1s.447 1 1 1h25v1c0 .551-.448 1-1 1z"/><path d="m7 40h7c.553 0 1-.448 1-1s-.447-1-1-1h-7c-.553 0-1 .448-1 1s.447 1 1 1z"/><path d="m7 44h7c.553 0 1-.448 1-1s-.447-1-1-1h-7c-.553 0-1 .448-1 1s.447 1 1 1z"/><path d="m7 48h7c.553 0 1-.448 1-1s-.447-1-1-1h-7c-.553 0-1 .448-1 1s.447 1 1 1z"/><path d="m7 52h7c.553 0 1-.448 1-1s-.447-1-1-1h-7c-.553 0-1 .448-1 1s.447 1 1 1z"/><path d="m22 40h7c.553 0 1-.448 1-1s-.447-1-1-1h-7c-.553 0-1 .448-1 1s.447 1 1 1z"/><path d="m22 44h7c.553 0 1-.448 1-1s-.447-1-1-1h-7c-.553 0-1 .448-1 1s.447 1 1 1z"/><path d="m22 48h7c.553 0 1-.448 1-1s-.447-1-1-1h-7c-.553 0-1 .448-1 1s.447 1 1 1z"/><path d="m22 52h7c.553 0 1-.448 1-1s-.447-1-1-1h-7c-.553 0-1 .448-1 1s.447 1 1 1z"/><path d="m60 80c-.553 0-1 .448-1 1v11h-22v-24h14c.553 0 1-.448 1-1s-.447-1-1-1h-15c-.553 0-1 .448-1 1v26c0 .552.447 1 1 1h24c.553 0 1-.448 1-1v-12c0-.552-.447-1-1-1z"/><path d="m59.758 64c-1.401 0-2.718.545-3.707 1.536l-14.758 14.757c-.128.128-.219.289-.263.464l-2 8c-.086.341.015.701.263.95.189.19.445.293.707.293.081 0 .162-.01.242-.03l8-2c.176-.044.337-.135.465-.263l14.759-14.758c.989-.991 1.534-2.307 1.534-3.706 0-2.891-2.352-5.243-5.242-5.243zm-5.465 10.707c.195.195.451.293.707.293s.512-.098.707-.293l2.293-2.293 1.586 1.586-11.586 11.586-1.586-1.586 6.293-6.293c.391-.391.391-1.023 0-1.414s-1.023-.391-1.414 0l-6.293 6.293-1.586-1.586 11.586-11.586 1.586 1.586-2.293 2.293c-.391.391-.391 1.023 0 1.414zm-11.751 8.249 3.502 3.502-4.67 1.167zm19.509-11.42-1.051 1.05-4.585-4.586 1.051-1.051c.611-.612 1.425-.949 2.292-.949 1.788 0 3.242 1.455 3.242 3.243 0 .865-.337 1.68-.949 2.293z"/><path d="m56 90c.553 0 1-.448 1-1s-.447-1-1-1h-5c-.553 0-1 .448-1 1s.447 1 1 1z"/></svg>