<svg id="Expand" enable-background="new 0 0 96 96" height="512" viewBox="0 0 96 96" width="512" xmlns="http://www.w3.org/2000/svg"><circle cx="7" cy="8" r="1"/><path d="m93 64h-8c-.552 0-1 .447-1 1v1h-2.586l-2.707-2.707c-.187-.188-.442-.293-.707-.293h-7v-12.001c0-.553-.448-1-1-1h-9.293c-.338-1.135-.959-2.176-1.85-3.027-.293-.285-.516-.615-.661-.973h21.804c.552 0 1-.447 1-1v-16.81c.344.134.652.336.898.597 1.333 1.431 3.145 2.218 5.102 2.218 1.992 0 3.896-.854 5.224-2.345 1.33-1.492 1.96-3.497 1.729-5.502-.366-3.092-2.767-5.588-5.84-6.071-2.31-.358-4.549.396-6.14 2.061-.285.293-.615.517-.973.661v-16.808c0-.553-.448-1-1-1h-62c-.265 0-.52.105-.707.293l-2.707 2.707h-2.586v-1c0-.553-.448-1-1-1h-8c-.552 0-1 .447-1 1v28c0 .553.448 1 1 1h8c.552 0 1-.447 1-1v-.382l2.553 1.276c.138.07.292.106.447.106h8c.552 0 1-.447 1-1s-.448-1-1-1h-7.764l-3.789-1.895c-.31-.154-.678-.14-.973.044-.294.183-.474.504-.474.851v1h-6v-26h6v21c0 .553.448 1 1 1s1-.447 1-1v-19h3c.265 0 .52-.105.707-.293l2.707-2.707h6.586v3h-1c-.552 0-1 .447-1 1s.448 1 1 1h18c1.103 0 2 .897 2 2s-.897 2-2 2h-14c-.552 0-1 .447-1 1s.448 1 1 1h14c1.103 0 2 .897 2 2s-.897 2-2 2h-14c-.552 0-1 .447-1 1s.448 1 1 1h14c1.103 0 2 .897 2 2s-.897 2-2 2h-14c-.552 0-1 .447-1 1s.448 1 1 1h14c1.103 0 2 .897 2 2s-.897 2-2 2h-15c-.552 0-1 .447-1 1v12.999c0 .553.448 1 1 1h22.815c-.134.344-.336.652-.597.898-1.43 1.332-2.218 3.145-2.218 5.102 0 1.992.854 3.896 2.344 5.224 1.29 1.149 2.961 1.776 4.686 1.776.271 0 .544-.016.817-.047 3.091-.366 5.588-2.768 6.071-5.841.058-.374.076-.744.076-1.112h8.006v16.001h-15c-2.206 0-4 1.794-4 4 0 1.201.542 2.266 1.382 3-.84.734-1.382 1.799-1.382 3s.542 2.266 1.382 3c-.84.734-1.382 1.799-1.382 3s.542 2.266 1.382 3c-.84.734-1.382 1.799-1.382 3 0 .732.212 1.409.556 2h-33.556v-17c0-.553-.448-1-1-1-1.28 0-2.49.52-3.413 1.469-1.139 1.192-2.74 1.731-4.392 1.473-2.155-.338-3.905-2.159-4.162-4.325-.168-1.459.271-2.858 1.236-3.941.949-1.066 2.309-1.676 3.731-1.676 1.396 0 2.688.562 3.643 1.587.848.898 2.072 1.413 3.357 1.413.552 0 1-.447 1-1v-17.001h17.815c-.134.344-.336.652-.597.898-1.43 1.332-2.218 3.145-2.218 5.102 0 1.992.854 3.896 2.344 5.224 1.493 1.331 3.498 1.959 5.503 1.729 3.091-.366 5.588-2.768 6.071-5.841.357-2.309-.397-4.549-2.061-6.14-.293-.285-.516-.615-.661-.973h.804c.552 0 1-.447 1-1s-.448-1-1-1h-2c-.552 0-1 .447-1 1 0 1.279.52 2.489 1.469 3.412 1.191 1.139 1.728 2.741 1.473 4.393-.339 2.154-2.16 3.905-4.327 4.162-1.456.166-2.857-.271-3.94-1.236-1.065-.948-1.675-2.308-1.675-3.73 0-1.396.562-2.688 1.587-3.644.898-.848 1.413-2.072 1.413-3.356 0-.553-.448-1-1-1h-20c-.552 0-1 .447-1 1v16.816c-.344-.134-.653-.337-.898-.597-1.334-1.43-3.145-2.218-5.102-2.218-1.992 0-3.896.854-5.224 2.344-1.331 1.493-1.961 3.498-1.729 5.504.366 3.092 2.767 5.587 5.84 6.07 2.307.357 4.549-.396 6.14-2.061.285-.293.615-.517.973-.661v16.804c0 .553.448 1 1 1h53c.552 0 1-.447 1-1s-.448-1-1-1h-12-3c-1.103 0-2-.897-2-2s.897-2 2-2h14c.552 0 1-.447 1-1s-.448-1-1-1h-14c-1.103 0-2-.897-2-2s.897-2 2-2h14c.552 0 1-.447 1-1s-.448-1-1-1h-14c-1.103 0-2-.897-2-2s.897-2 2-2h14c.552 0 1-.447 1-1s-.448-1-1-1h-14c-1.103 0-2-.897-2-2s.897-2 2-2h18c.552 0 1-.447 1-1s-.448-1-1-1h-1v-3h6.586l2.707 2.707c.187.188.442.293.707.293h3v19c0 .553.448 1 1 1s1-.447 1-1v-21h6v26h-6v-1c0-.347-.18-.668-.474-.851-.295-.184-.663-.198-.973-.044l-3.789 1.895h-7.764c-.552 0-1 .447-1 1s.448 1 1 1h8c.155 0 .309-.036.447-.105l2.553-1.277v.382c0 .553.448 1 1 1h8c.552 0 1-.447 1-1v-28c0-.553-.448-1-1-1zm-34.058-11.196c-.339 2.154-2.16 3.905-4.327 4.162-1.455.166-2.857-.271-3.94-1.236-1.065-.949-1.675-2.309-1.675-3.731 0-1.396.562-2.688 1.587-3.644.898-.848 1.413-2.072 1.413-3.356 0-.553-.448-1-1-1h-23v-10.999h14c2.206 0 4-1.794 4-4 0-1.201-.542-2.266-1.382-3 .84-.734 1.382-1.799 1.382-3s-.542-2.266-1.382-3c.84-.734 1.382-1.799 1.382-3s-.542-2.266-1.382-3c.84-.734 1.382-1.799 1.382-3 0-2.206-1.794-4-4-4h-15v-3h52v17.004c0 .553.448 1 1 1 1.28 0 2.49-.52 3.413-1.469 1.139-1.191 2.743-1.729 4.392-1.473 2.155.338 3.905 2.159 4.162 4.326.168 1.458-.271 2.857-1.235 3.94-.949 1.064-2.309 1.675-3.731 1.675-1.396 0-2.688-.562-3.643-1.586-.848-.897-2.072-1.413-3.358-1.413-.552 0-1 .447-1 1v16.995h-22c-.552 0-1 .447-1 1 0 1.279.52 2.489 1.469 3.412 1.192 1.139 1.728 2.741 1.473 4.393z"/><circle cx="89" cy="69" r="1"/><circle cx="76" cy="41" r="1"/><circle cx="72" cy="41" r="1"/><circle cx="68" cy="41" r="1"/><circle cx="76" cy="37" r="1"/><circle cx="72" cy="37" r="1"/><circle cx="76" cy="33" r="1"/><circle cx="20" cy="89" r="1"/><circle cx="20" cy="85" r="1"/><circle cx="20" cy="81" r="1"/><circle cx="24" cy="89" r="1"/><circle cx="24" cy="85" r="1"/><circle cx="28" cy="89" r="1"/></svg>