<svg id="Expand" enable-background="new 0 0 96 96" height="512" viewBox="0 0 96 96" width="512" xmlns="http://www.w3.org/2000/svg"><path d="m46 25c4.411 0 8 3.589 8 8 0 .553.447 1 1 1s1-.447 1-1c0-2.608-1.012-4.978-2.653-6.76 2.076-2.66 5.245-4.24 8.653-4.24.553 0 1-.447 1-1s-.447-1-1-1c-3.985 0-7.693 1.826-10.148 4.908-1.648-1.195-3.666-1.908-5.852-1.908-.553 0-1 .447-1 1s.447 1 1 1z"/><circle cx="64" cy="51" r="1"/><circle cx="68" cy="51" r="1"/><circle cx="72" cy="51" r="1"/><circle cx="37" cy="51" r="1"/><path d="m91 85.142v-8.142c0-.266-.105-.52-.293-.707l-7.707-7.707v-13.172l4 4v8.586c0 .553.447 1 1 1s1-.447 1-1v-9c0-.266-.105-.52-.293-.707l-5.707-5.707v-4.586c6.065 0 11-4.935 11-11 0-4.27-2.41-8.064-6.21-9.896.14-.703.21-1.408.21-2.104 0-6.065-4.935-11-11-11-.886 0-1.771.11-2.641.328-1.537-4.363-5.659-7.328-10.359-7.328-1.72 0-3.409.405-4.941 1.181-2.362-3.837-6.51-6.181-11.059-6.181s-8.697 2.344-11.059 6.181c-1.532-.776-3.221-1.181-4.941-1.181-4.7 0-8.822 2.965-10.359 7.328-.87-.218-1.755-.328-2.641-.328-6.065 0-11 4.935-11 11 0 .696.07 1.401.21 2.104-3.8 1.832-6.21 5.626-6.21 9.896 0 5.385 3.892 9.87 9.01 10.81v3.785l-4.697 4.697c-.188.188-.293.442-.293.708v9.463c-.603.716-1.16 1.475-1.639 2.283-.217.365-.179.828.096 1.153l1.667 1.981c-.335.78-.599 1.587-.785 2.412l-2.522.624c-.412.103-.716.454-.755.877-.056.574-.082 1.098-.082 1.6 0 .503.026 1.026.081 1.6.039.423.343.774.755.877l2.522.624c.188.825.45 1.632.785 2.412l-1.667 1.981c-.274.325-.312.788-.096 1.153.548.923 1.182 1.794 1.886 2.591.281.319.734.421 1.126.265l2.396-.973c.643.564 1.33 1.065 2.053 1.498l-.187 2.584c-.031.424.21.821.6.99.962.416 1.984.746 3.041.981.418.088.842-.087 1.067-.448l1.369-2.203c.905.092 1.631.092 2.538 0l1.371 2.203c.184.298.507.472.848.472.072 0 .145-.008.218-.023 1.06-.236 2.083-.566 3.04-.982.39-.169.631-.565.6-.989l-.186-2.584c.723-.433 1.409-.934 2.053-1.498l2.396.973c.392.156.844.055 1.125-.265.706-.799 1.34-1.67 1.886-2.591.008-.013.009-.027.016-.04h22.951l3.707 3.707c.186.187.44.292.706.292h25.142c.447 1.721 1.999 3 3.858 3 2.206 0 4-1.794 4-4 0-1.859-1.279-3.411-3-3.858zm-87-48.142c0-3.676 2.192-6.914 5.589-8.309 1.054-.436 2.201-.691 3.411-.691.553 0 1-.447 1-1s-.447-1-1-1c-.997 0-1.956.151-2.873.404-.077-.471-.127-.941-.127-1.404 0-4.963 4.037-9 9-9 .979 0 1.957.169 2.911.495 1.017.347 1.964.876 2.806 1.569-1.072 1.361-1.717 3.073-1.717 4.936 0 .553.447 1 1 1s1-.447 1-1c0-3.309 2.691-6 6-6 .553 0 1-.447 1-1s-.447-1-1-1c-1.828 0-3.509.623-4.858 1.659-.798-.682-1.669-1.252-2.609-1.675 1.263-3.562 4.628-5.984 8.467-5.984 1.399 0 2.767.347 4.017.975-.378.903-.669 1.856-.837 2.86-.091.544.276 1.06.821 1.151.056.01.111.014.166.014.479 0 .903-.346.985-.835.521-3.104 2.43-5.911 5.112-7.554 1.719-1.053 3.72-1.611 5.736-1.611 3.851 0 7.342 2.002 9.339 5.254-.795.604-1.518 1.318-2.139 2.144-.331.441-.242 1.068.199 1.4.441.331 1.069.242 1.4-.199.686-.913 1.525-1.655 2.458-2.235 1.432-.89 3.07-1.364 4.743-1.364 2.759 0 5.417 1.3 7.106 3.482.796 1.028 1.474 2.337 1.704 3.627.111.624.19 1.257.19 1.891 0 .553.447 1 1 1s1-.447 1-1c0-.59-.064-1.164-.155-1.728.712-.178 1.433-.272 2.155-.272 4.963 0 9 4.037 9 9 0 .469-.052.945-.131 1.423-3.543-.956-7.454-.128-10.313 2.511-1.532-1.207-3.459-1.934-5.556-1.934-.553 0-1 .447-1 1s.447 1 1 1c3.859 0 7 3.141 7 7 0 .553.447 1 1 1s1-.447 1-1c0-2.145-.757-4.116-2.014-5.664 2.636-2.379 6.333-2.923 9.461-1.628 3.376 1.403 5.553 4.629 5.553 8.292 0 4.963-4.037 9-9 9h-27.931c.495-3.94 3.859-7 7.931-7 .553 0 1-.447 1-1s-.447-1-1-1c-5.176 0-9.446 3.954-9.949 9h-13.051c-4.646 0-8.48-3.539-8.951-8.063 2.2-.23 4.339-1.184 6.022-2.866.391-.391.391-1.023 0-1.414s-1.023-.391-1.414 0c-3.119 3.119-8.195 3.119-11.314 0-.391-.391-1.023-.391-1.414 0s-.391 1.023 0 1.414c1.707 1.707 3.883 2.667 6.117 2.879.287 3.331 2.068 6.233 4.666 8.049h-20.712c-4.963.001-9-4.036-9-8.999zm50 23v19h-7.586l-2.707-2.707c-.187-.188-.441-.293-.707-.293h-3v-7h4.142c.447 1.721 1.999 3 3.858 3 2.206 0 4-1.794 4-4 0-1.859-1.279-3.411-3-3.858v-16.142h9v7.586l-3.707 3.707c-.188.187-.293.441-.293.707zm-18.066 16c-.006-.07-.008-.135-.015-.206-.039-.423-.343-.774-.755-.877l-2.522-.624c-.188-.825-.45-1.632-.785-2.412l1.667-1.981c.274-.325.312-.788.096-1.153-.548-.923-1.182-1.794-1.886-2.591-.281-.319-.733-.421-1.125-.265l-2.396.973c-.643-.564-1.33-1.065-2.053-1.498l.187-2.584c.031-.424-.21-.82-.6-.989-.866-.377-1.792-.673-2.747-.903v-2.89c0-.266-.105-.52-.293-.707l-5.707-5.707v-3.586h30v3.586l-6.414 6.414h-3.728c-.447-1.721-1.999-3-3.858-3-2.206 0-4 1.794-4 4s1.794 4 4 4c1.859 0 3.411-1.279 3.858-3h4.142c.266 0 .52-.105.707-.293l5.293-5.293v9.728c-1.399.364-2.495 1.459-2.858 2.858h-5.142c-.553 0-1 .447-1 1v8zm12.066-10c1.103 0 2 .897 2 2s-.897 2-2 2-2-.897-2-2 .897-2 2-2zm-13-7c0 1.103-.897 2-2 2s-2-.897-2-2 .897-2 2-2 2 .897 2 2zm-22.283-6.283c.188-.188.293-.441.293-.707v-4.01h1.99v4c0 .266.105.52.293.707l5.707 5.707v3.871l-.73 1.175c-.912-.094-1.628-.094-2.538 0l-1.371-2.203c-.225-.361-.648-.539-1.066-.448-1.06.236-2.083.566-3.04.982-.39.169-.631.565-.6.989l.186 2.584c-.723.433-1.409.934-2.053 1.498l-1.768-.716v-8.732zm18.83 25.987c-.384.095-.676.407-.744.796-.192 1.082-.534 2.134-1.019 3.127-.173.354-.12.779.135 1.081l1.606 1.91c-.261.396-.541.781-.838 1.15l-2.309-.938c-.363-.147-.784-.068-1.069.206-.808.776-1.703 1.43-2.664 1.943-.348.187-.554.56-.525.954l.179 2.488c-.436.164-.885.309-1.345.433l-1.324-2.127c-.184-.296-.506-.472-.849-.472-.045 0-.091.003-.136.009-1.259.174-2.035.174-3.292 0-.397-.051-.777.128-.985.463l-1.322 2.127c-.459-.124-.908-.269-1.346-.433l.18-2.488c.028-.395-.178-.768-.525-.954-.961-.514-1.856-1.167-2.664-1.943-.286-.274-.707-.354-1.069-.206l-2.309.938c-.296-.369-.576-.754-.838-1.151l1.606-1.909c.255-.302.308-.727.135-1.081-.485-.993-.826-2.045-1.019-3.127-.068-.389-.36-.701-.744-.796l-2.433-.602c-.013-.246-.02-.481-.02-.709s.007-.463.02-.708l2.434-.603c.384-.095.676-.407.744-.796.191-1.081.534-2.133 1.019-3.127.173-.354.12-.779-.135-1.081l-1.606-1.91c.261-.396.541-.781.838-1.15l2.309.938c.362.146.783.067 1.069-.206.808-.776 1.703-1.43 2.664-1.943.348-.187.554-.56.525-.954l-.179-2.488c.436-.164.885-.309 1.345-.433l1.324 2.127c.208.335.598.516.984.463 1.269-.176 2.025-.176 3.292 0 .393.049.776-.129.985-.463l1.322-2.127c.46.124.91.269 1.346.433l-.18 2.488c-.028.395.178.768.525.954.961.514 1.856 1.167 2.664 1.943.285.273.706.353 1.069.206l2.309-.938c.296.369.576.754.838 1.151l-1.606 1.909c-.255.302-.308.727-.135 1.081.484.993.826 2.045 1.019 3.127.068.389.36.701.744.796l2.434.603c.012.245.019.479.019.708s-.007.464-.02.709zm46.453.296c-1.103 0-2-.897-2-2s.897-2 2-2 2 .897 2 2-.897 2-2 2zm8.142 9h-7.142v-7.142c1.721-.447 3-1.999 3-3.858 0-2.206-1.794-4-4-4s-4 1.794-4 4c0 1.859 1.279 3.411 3 3.858v7.142h-15.586l-3.707-3.707c-.187-.188-.441-.293-.707-.293h-24.223l-.921-1.095c.335-.78.598-1.587.785-2.412l2.522-.624c.412-.103.716-.454.755-.877.033-.348.053-.674.065-.992h6.602l2.707 2.707c.188.188.442.293.708.293h22c.553 0 1-.447 1-1v-7.586l8.707-8.707c.188-.187.293-.441.293-.707v-12c0-.553-.447-1-1-1s-1 .447-1 1v11.586l-8.707 8.707c-.188.187-.293.441-.293.707v7h-5v-12.586l3.981-3.981c.595.352 1.279.567 2.019.567 2.206 0 4-1.794 4-4s-1.794-4-4-4-4 1.794-4 4c0 .74.215 1.424.567 2.019l-4.274 4.274c-.188.187-.293.441-.293.707v13h-4v-18.586l3.707-3.707c.188-.187.293-.441.293-.707v-8h21v21c0 .266.105.52.293.707l7.707 7.707v7.728c-1.399.363-2.495 1.459-2.858 2.858zm-20.142-29c0-1.103.897-2 2-2s2 .897 2 2-.897 2-2 2-2-.897-2-2zm24 32c-1.103 0-2-.897-2-2s.897-2 2-2 2 .897 2 2-.897 2-2 2z"/><path d="m19 68.393c-4.963 0-9 4.037-9 9 0 2.746 1.23 5.307 3.375 7.025.433.346 1.062.277 1.405-.155.346-.431.276-1.06-.155-1.405-1.668-1.337-2.625-3.33-2.625-5.465 0-1.343.387-2.594 1.045-3.66l4.955 4.129v7.531c0 .553.447 1 1 1 4.963 0 9-4.037 9-9s-4.037-9-9-9zm4.673 3.803-4.673 3.895-4.673-3.895c1.241-1.117 2.876-1.803 4.673-1.803s3.432.686 4.673 1.803zm-3.673 12.125v-6.46l4.955-4.129c.658 1.067 1.045 2.318 1.045 3.661 0 3.52-2.612 6.442-6 6.928z"/><path d="m34 51c0-.553-.447-1-1-1h-12c-.553 0-1 .447-1 1s.447 1 1 1h12c.553 0 1-.447 1-1z"/></svg>