<svg id="Expand" enable-background="new 0 0 96 96" height="512" viewBox="0 0 96 96" width="512" xmlns="http://www.w3.org/2000/svg"><path d="m3 52h62c.552 0 1-.447 1-1v-15h7.586l-1.293 1.293c-.391.391-.391 1.023 0 1.414.195.195.451.293.707.293s.512-.098.707-.293l2.707-2.707h6.086c5.238 0 9.5 4.262 9.5 9.5s-4.262 9.5-9.5 9.5h-26.5c-.552 0-1 .447-1 1s.448 1 1 1h26.5c6.341 0 11.5-5.159 11.5-11.5s-5.159-11.5-11.5-11.5h-6.086l-2.707-2.707c-.391-.391-1.023-.391-1.414 0s-.391 1.023 0 1.414l1.293 1.293h-7.586v-12h-.007c0-.133-.02-.267-.074-.394l-6-14c-.157-.368-.519-.606-.919-.606h-21.529l-2.606-4.501c-.357-.617-1.373-.617-1.73 0l-2.606 4.501h-21.529c-.4 0-.762.238-.919.606l-6 14c-.052.121-.081.254-.081.394v29c0 .553.448 1 1 1zm1-29h18v27h-18zm39.266-2h-8.266v-5h5.371zm-8.266-7v-7.277l4.213 7.277zm-2 0h-4.213l4.213-7.277zm-5.371 2h5.371v5h-8.266zm9.371 21v13h-6v-13zm27 13h-18v-24c0-.553-.448-1-1-1s-1 .447-1 1v24h-5v-13h2c.552 0 1-.447 1-1s-.448-1-1-1h-14c-.552 0-1 .447-1 1s.448 1 1 1h2v13h-5v-27h21 19zm-5.659-41 5.143 12h-17.908l-6.947-12zm-48.682 0h19.712l-6.947 12h-17.908z"/><path d="m53 25h-4c-.552 0-1 .447-1 1v6c0 .553.448 1 1 1h4c.552 0 1-.447 1-1v-6c0-.553-.448-1-1-1zm-1 6h-2v-4h2z"/><path d="m61 25h-4c-.552 0-1 .447-1 1v6c0 .553.448 1 1 1h4c.552 0 1-.447 1-1v-6c0-.553-.448-1-1-1zm-1 6h-2v-4h2z"/><path d="m53 35h-4c-.552 0-1 .447-1 1v6c0 .553.448 1 1 1h4c.552 0 1-.447 1-1v-6c0-.553-.448-1-1-1zm-1 6h-2v-4h2z"/><path d="m61 35h-4c-.552 0-1 .447-1 1v6c0 .553.448 1 1 1h4c.552 0 1-.447 1-1v-6c0-.553-.448-1-1-1zm-1 6h-2v-4h2z"/><path d="m11 25h-4c-.552 0-1 .447-1 1v6c0 .553.448 1 1 1h4c.552 0 1-.447 1-1v-6c0-.553-.448-1-1-1zm-1 6h-2v-4h2z"/><path d="m19 25h-4c-.552 0-1 .447-1 1v6c0 .553.448 1 1 1h4c.552 0 1-.447 1-1v-6c0-.553-.448-1-1-1zm-1 6h-2v-4h2z"/><path d="m11 35h-4c-.552 0-1 .447-1 1v6c0 .553.448 1 1 1h4c.552 0 1-.447 1-1v-6c0-.553-.448-1-1-1zm-1 6h-2v-4h2z"/><path d="m19 35h-4c-.552 0-1 .447-1 1v6c0 .553.448 1 1 1h4c.552 0 1-.447 1-1v-6c0-.553-.448-1-1-1zm-1 6h-2v-4h2z"/><path d="m34 25c-2.206 0-4 1.794-4 4s1.794 4 4 4 4-1.794 4-4-1.794-4-4-4zm0 6c-1.103 0-2-.897-2-2s.897-2 2-2 2 .897 2 2-.897 2-2 2z"/><path d="m27 92h-2c-.552 0-1 .447-1 1s.448 1 1 1h2c.552 0 1-.447 1-1s-.448-1-1-1z"/><path d="m94 83c0-3.839-1.717-11-5-11s-5 7.161-5 11c0 4.214 2.136 4.874 4 4.978v4.022h-6v-17c0-.217-.084-.407-.201-.571l.015-.01-10-14c-.188-.263-.491-.419-.814-.419h-18v.025c-.313 0-.626.131-.814.394l-10 14c-.123.173-.179.376-.179.581h-.007v17h-11c-.552 0-1 .447-1 1s.448 1 1 1h62c.552 0 1-.447 1-1s-.448-1-1-1h-3v-4.022c1.864-.104 4-.764 4-4.978zm-14.943-9h-15.542l-8.571-12h15.542zm-26.057-11.279 8.057 11.279h-16.114zm-9 13.279h18v16h-5v-6c0-2.206-1.794-4-4-4s-4 1.794-4 4v6h-5zm11 16h-4v-6c0-1.103.897-2 2-2s2 .897 2 2zm9 0v-16h16v16zm22-9c0-4.232 1.957-9 3-9s3 4.768 3 9c0 3-.94 3-3 3s-3 0-3-3z"/><circle cx="44" cy="56" r="1"/><circle cx="48" cy="56" r="1"/><circle cx="52" cy="56" r="1"/><path d="m35.293 77.293c-.391.391-.391 1.023 0 1.414.195.195.451.293.707.293s.512-.098.707-.293l3-3c.391-.391.391-1.023 0-1.414l-3-3c-.391-.391-1.023-.391-1.414 0s-.391 1.023 0 1.414l1.293 1.293h-24.086c-4.687 0-8.5-3.813-8.5-8.5s3.813-8.5 8.5-8.5h27.5c.552 0 1-.447 1-1s-.448-1-1-1h-27.5c-5.79 0-10.5 4.71-10.5 10.5s4.71 10.5 10.5 10.5h24.086z"/><circle cx="77" cy="89" r="1"/><circle cx="73" cy="89" r="1"/><circle cx="69" cy="89" r="1"/><circle cx="77" cy="85" r="1"/><circle cx="73" cy="85" r="1"/><circle cx="77" cy="81" r="1"/></svg>