<svg id="Expand" enable-background="new 0 0 96 96" height="512" viewBox="0 0 96 96" width="512" xmlns="http://www.w3.org/2000/svg"><path d="m86.637 9.363c-.287-.287-.602-.544-.909-.81.162-.492.272-1.008.272-1.553 0-2.757-2.243-5-5-5-1.811 0-3.386.978-4.263 2.424-7.975-1.45-18.115.921-28.736 6.731-2.054-1.123-4.115-2.128-6.149-3 .089-.372.148-.756.148-1.155 0-2.757-2.243-5-5-5-2.054 0-3.82 1.247-4.589 3.023-9.822-2.244-17.985-.723-23.048 4.339-7.131 7.122-7.148 20.232-.046 35.069.172.36.531.569.904.569.145 0 .292-.031.431-.098.498-.238.709-.835.471-1.333-6.721-14.037-6.85-26.295-.345-32.792 4.565-4.564 12.083-5.896 21.225-3.797-.001.007-.003.013-.003.02 0 2.757 2.243 5 5 5 1.642 0 3.09-.807 4.002-2.033 1.637.7 3.294 1.486 4.952 2.357-6.629 3.885-12.98 8.827-18.891 14.739-6.374 6.374-11.639 13.254-15.646 20.451-7.262 13.056-9.289 25.269-5.66 33.712-1.066.918-1.757 2.26-1.757 3.774 0 2.757 2.243 5 5 5 1.196 0 2.281-.44 3.142-1.143 3.261 2.102 7.303 3.154 11.901 3.154 7.015 0 15.297-2.423 23.96-7.166 2.656 1.457 5.352 2.718 8.037 3.764-.011.131-.04.257-.04.391 0 2.757 2.243 5 5 5 1.906 0 3.547-1.085 4.39-2.658 2.283.425 4.475.648 6.546.648 6.094 0 11.178-1.822 14.7-5.352 7.738-7.729 7.032-22.501-1.796-38.638 8.829-16.136 9.535-30.909 1.797-38.637zm-49.637.637c-1.654 0-3-1.346-3-3s1.346-3 3-3 3 1.346 3 3-1.346 3-3 3zm44-6c1.654 0 3 1.346 3 3s-1.346 3-3 3-3-1.346-3-3 1.346-3 3-3zm-4.933 2.335c-.029.22-.067.437-.067.665 0 2.757 2.243 5 5 5 1.478 0 2.794-.657 3.71-1.68.169.155.351.295.513.457 6.915 6.905 6.274 20.279-1.555 35.162-3.884-6.624-8.824-12.969-14.73-18.876-5.911-5.911-12.261-10.852-18.889-14.738 9.679-5.093 18.817-7.198 26.018-5.99zm-47.59 22.142c6.012-6.011 12.753-11.193 19.523-15.03 6.77 3.838 13.511 9.019 19.523 15.03s11.192 12.751 15.029 19.523c-3.837 6.772-9.018 13.512-15.029 19.523-6.012 6.011-12.753 11.192-19.523 15.03-6.77-3.838-13.511-9.019-19.523-15.03s-11.192-12.751-15.029-19.523c3.837-6.772 9.017-13.512 15.029-19.523zm-19.477 59.523c-1.654 0-3-1.346-3-3s1.346-3 3-3 3 1.346 3 3-1.346 3-3 3zm4.419-.711c.359-.689.581-1.46.581-2.289 0-2.757-2.243-5-5-5-.52 0-1.012.102-1.484.25-3.077-7.442-1.307-18.538 4.813-30.195 3.885 6.626 8.825 12.974 14.734 18.882 5.909 5.909 12.257 10.849 18.882 14.733-13.144 6.921-25.112 8.255-32.526 3.619zm47.581 4.711c-1.654 0-3-1.346-3-3s1.346-3 3-3 3 1.346 3 3-1.346 3-3 3zm24.222-6.776c-4.206 4.214-11.025 5.684-19.264 4.192.012-.14.042-.274.042-.416 0-2.757-2.243-5-5-5-1.915 0-3.562 1.094-4.402 2.679-2.184-.858-4.375-1.863-6.548-3.006 6.628-3.885 12.977-8.826 18.887-14.736 5.907-5.907 10.846-12.252 14.73-18.877 7.829 14.884 8.47 28.258 1.555 35.164z"/><path d="m23 56h16.034l-.63 1.051c-2.561.252-4.678 2.075-5.248 4.637l-1.132 5.095c-.074.333.027.682.27.924.188.189.443.293.706.293.072 0 .145-.008.217-.024l5.096-1.132c2.561-.569 4.385-2.686 4.637-5.247l4.565-2.739c.087-.052.166-.118.233-.194l.236-.266 6.309 6.309c.084.084.186.145.293.195.025.012.049.023.076.032.022.008.041.021.064.027l7 2c.089.026.182.039.274.039.262 0 .517-.103.707-.293.257-.257.354-.632.255-.982l-2-7c-.007-.023-.02-.043-.028-.065-.009-.025-.02-.048-.031-.072-.049-.108-.111-.21-.196-.295l-6.661-6.661 5.954-6.656v1.024c0 .552.447 1 1 1s1-.448 1-1v-2h2v2c0 .552.447 1 1 1s1-.448 1-1v-2h2v2c0 .552.447 1 1 1s1-.448 1-1v-2h2v10h-11c-.553 0-1 .448-1 1s.447 1 1 1h12c.553 0 1-.448 1-1v-12c0-.552-.447-1-1-1h-10.337l1.54-1.722c.514-.588.797-1.336.797-2.108 0-.856-.334-1.653-.924-2.229-1.129-1.154-3.103-1.237-4.363-.137l-11.345 10.15-2.368-2.368v-6.586c0-.265-.105-.52-.293-.707l-3.707-3.707v-4.172l2-2v3.586c0 .552.447 1 1 1h6c.553 0 1-.448 1-1v-3.586l2 2v4.172l-3.707 3.707c-.188.187-.293.442-.293.707v3c0 .552.447 1 1 1s1-.448 1-1v-2.586l3.707-3.707c.188-.187.293-.442.293-.707v-5c0-.265-.105-.52-.293-.707l-4-4c-.286-.286-.716-.37-1.09-.217-.374.155-.617.52-.617.924v5h-4v-5c0-.404-.243-.769-.617-.924-.374-.154-.804-.07-1.09.217l-4 4c-.188.187-.293.442-.293.707v5c0 .265.105.52.293.707l3.707 3.707v4.172l-5.253-5.253c-.859-.86-1.998-1.333-3.207-1.333s-2.349.474-3.207 1.333c-.859.86-1.333 1.999-1.333 3.207 0 .886.259 1.732.734 2.46h-8.734c-.553 0-1 .448-1 1v12c0 .552.447 1 1 1zm14.879 8.892-3.562.792.791-3.561c.38-1.711 1.797-2.928 3.51-3.09l2.349 2.349c-.161 1.712-1.377 3.13-3.088 3.51zm8.475-7.67-4.198 2.519-1.896-1.896 2.52-4.199.24-.213 3.548 3.548zm-9.94-13.222 3.586-3.586 1.586 1.586-3.586 3.586zm6.586-.586 15.586 15.586-3.586 3.586-15.586-15.586zm13.909 20.091 2.597-2.597 1.039 3.635zm4.129-26.202c.462-.407 1.184-.397 1.624.053.218.212.338.501.338.814 0 .283-.11.572-.294.783l-10.076 11.263-2.845-2.845zm-27.291.444c.963-.964 2.623-.964 3.586 0l1.253 1.253-3.586 3.586-1.253-1.253c-.481-.482-.747-1.119-.747-1.793s.266-1.311.747-1.793zm-9.747 6.253h4v2c0 .552.447 1 1 1s1-.448 1-1v-2h2v2c0 .552.447 1 1 1s1-.448 1-1v-1.586l7.602 7.602-.266.236c-.075.067-.141.146-.193.233l-.909 1.515h-16.234z"/><circle cx="68" cy="51" r="1"/><circle cx="64" cy="51" r="1"/><circle cx="60" cy="51" r="1"/><circle cx="16" cy="16" r="1"/><circle cx="80" cy="16" r="1"/><circle cx="16" cy="80" r="1"/><circle cx="80" cy="80" r="1"/></svg>