<svg id="Expand" enable-background="new 0 0 96 96" height="512" viewBox="0 0 96 96" width="512" xmlns="http://www.w3.org/2000/svg"><path d="m39.829 54.171c.391.391 1.023.391 1.414 0s.391-1.023 0-1.414c-2.339-2.34-6.146-2.34-8.485 0-2.339 2.339-2.339 6.146 0 8.485 1.169 1.17 2.706 1.755 4.243 1.755s3.073-.585 4.243-1.755c.391-.391.391-1.023 0-1.414s-1.023-.391-1.414 0c-1.56 1.56-4.098 1.56-5.657 0-.757-.755-1.173-1.76-1.173-2.828s.416-2.073 1.171-2.829c1.56-1.559 4.098-1.559 5.658 0z"/><path d="m93.87 51.507c-.177-.313-.51-.507-.87-.507h-15c-.351 0-.677.184-.857.485l-2.709 4.515h-12.459c-.528-13.323-11.525-24-24.975-24-13.785 0-25 11.215-25 25s11.215 25 25 25c13.45 0 24.447-10.677 24.975-24h7.995c-.319 10.546-5.646 20.319-14.413 26.294-1.528 1.043-3.175 1.973-4.898 2.762-.027.01-.054.021-.081.033-4.264 1.932-8.832 2.911-13.578 2.911s-9.314-.979-13.578-2.911c-.025-.012-.051-.022-.077-.031-1.724-.79-3.373-1.719-4.902-2.764-9.044-6.164-14.443-16.367-14.443-27.294 0-12.958 7.606-24.718 19.395-30.065l13.383 3.04c.074.017.148.025.222.025s.148-.008.222-.025l13.385-3.04c10.495 4.762 17.831 14.76 19.168 26.182.059.508.491.883.991.883.039 0 .078-.002.118-.007.549-.064.941-.561.877-1.109-1.394-11.907-8.937-22.347-19.761-27.497v-14.771l6-1.364v4.542l-2.919 6.811c-.161.376-.077.812.212 1.101l3 3c.195.196.451.294.707.294s.512-.098.707-.293l3-3c.289-.289.373-.725.212-1.101l-2.919-6.811v-5.795c0-.467-.323-.872-.778-.975l-22-5c-.146-.033-.297-.033-.443 0l-22 5c-.456.103-.779.508-.779.975s.323.872.778.975l22 5c.074.017.148.025.222.025s.148-.008.222-.025l12.778-2.904v8.929h-3c-.552 0-1 .448-1 1s.448 1 1 1h3v3.021l-13 2.953-13-2.953v-11.021c0-.552-.448-1-1-1s-1 .448-1 1v11.391c-12.174 5.789-20 18.078-20 31.609 0 11.188 5.348 21.648 14.346 28.24l-2.223 2.223c-.714.713-1.123 1.7-1.123 2.707 0 1.022.399 1.984 1.123 2.707.723.724 1.685 1.123 2.707 1.123 1.007 0 1.994-.409 2.707-1.123l3.697-3.697c4.342 1.864 8.968 2.82 13.766 2.82 4.799 0 9.424-.955 13.766-2.82l3.697 3.697c.713.714 1.7 1.123 2.707 1.123 1.022 0 1.984-.399 2.707-1.123.724-.723 1.123-1.685 1.123-2.707 0-1.007-.409-1.994-1.123-2.707l-2.223-2.223c8.729-6.395 14.007-16.432 14.315-27.24h2.465l2.709 4.515c.18.301.506.485.857.485h15c.36 0 .693-.194.87-.507.178-.313.173-.698-.013-1.007l-2.691-4.486 2.691-4.485c.186-.309.191-.694.013-1.008zm-34.87-28.921-1.814-1.814 1.814-4.233 1.814 4.233zm-22-10.611-17.488-3.975 17.488-3.975 17.488 3.975zm-18.877 79.488c-.688.688-1.898.689-2.586 0-.347-.346-.537-.805-.537-1.293 0-.48.196-.952.537-1.293l2.477-2.477c1.052.681 2.147 1.316 3.283 1.889zm40.877-1.293c0 .488-.19.947-.538 1.293-.687.688-1.897.687-2.585 0l-3.173-3.173c1.136-.573 2.231-1.208 3.283-1.889l2.477 2.477c.34.34.536.811.536 1.292zm-22-10.17c-12.682 0-23-10.318-23-23s10.318-23 23-23c12.347 0 22.449 9.78 22.975 22h-2.025c-.528-11.114-9.708-20-20.95-20-11.58 0-21 9.42-21 21s9.42 21 21 21c11.242 0 20.422-8.886 20.949-20h2.025c-.525 12.22-10.627 22-22.974 22zm14.949-24c-.518-7.805-7.016-14-14.949-14-8.271 0-15 6.729-15 15s6.729 15 15 15c7.933 0 14.431-6.195 14.949-14h4c-.525 10.011-8.81 18-18.949 18-10.477 0-19-8.523-19-19s8.523-19 19-19c10.139 0 18.424 7.989 18.949 18zm-4 0c-.507-5.598-5.221-10-10.949-10-6.065 0-11 4.935-11 11s4.935 11 11 11c5.728 0 10.442-4.402 10.949-10h2c-.513 6.701-6.118 12-12.949 12-7.168 0-13-5.832-13-13s5.832-13 13-13c6.831 0 12.436 5.299 12.949 12zm-10.949 2h8.941c-.5 4.493-4.317 8-8.941 8-4.962 0-9-4.038-9-9s4.038-9 9-9c4.624 0 8.441 3.507 8.941 8h-8.941c-.552 0-1 .448-1 1s.448 1 1 1zm52.143-1.515c-.19.317-.19.712 0 1.029l2.091 3.486h-2.616l-1.724-3.447c-.247-.494-.846-.694-1.342-.447-.494.247-.694.848-.447 1.342l1.277 2.552h-2.764l-1.724-3.447c-.247-.494-.847-.694-1.342-.447-.494.247-.694.848-.447 1.342l1.277 2.552h-2.815l-2.4-4 2.4-4h12.667z"/><path d="m68 34h13c.552 0 1-.448 1-1s-.448-1-1-1h-13c-.552 0-1 .448-1 1s.448 1 1 1z"/><circle cx="85" cy="33" r="1"/><circle cx="89" cy="33" r="1"/><path d="m86 40c0-.552-.448-1-1-1h-13c-.552 0-1 .448-1 1s.448 1 1 1h13c.552 0 1-.448 1-1z"/><circle cx="89" cy="40" r="1"/><path d="m76 48h13c.552 0 1-.448 1-1s-.448-1-1-1h-13c-.552 0-1 .448-1 1s.448 1 1 1z"/><circle cx="93" cy="47" r="1"/><circle cx="93" cy="40" r="1"/><circle cx="93" cy="33" r="1"/><path d="m81 80h-13c-.552 0-1 .448-1 1s.448 1 1 1h13c.552 0 1-.448 1-1s-.448-1-1-1z"/><circle cx="85" cy="81" r="1"/><circle cx="89" cy="81" r="1"/><path d="m85 73h-13c-.552 0-1 .448-1 1s.448 1 1 1h13c.552 0 1-.448 1-1s-.448-1-1-1z"/><circle cx="89" cy="74" r="1"/><path d="m89 66h-13c-.552 0-1 .448-1 1s.448 1 1 1h13c.552 0 1-.448 1-1s-.448-1-1-1z"/><circle cx="93" cy="67" r="1"/><circle cx="93" cy="74" r="1"/><circle cx="93" cy="81" r="1"/></svg>