<svg id="Expand" enable-background="new 0 0 96 96" height="512" viewBox="0 0 96 96" width="512" xmlns="http://www.w3.org/2000/svg"><path d="m85 54h-6v-16.37c0-.315-.148-.611-.4-.8-.252-.188-.577-.249-.881-.159l-31.719 9.287-31-9.077v-14.881c0-.552-.448-1-1-1s-1 .448-1 1v32h-6c-.271 0-.529.109-.718.304s-.29.456-.282.727c.022.717.057 1.432.112 2.141.033.426.334.784.748.89l4.515 1.162c.255 1.708.638 3.397 1.14 5.04l-3.625 2.72c-.356.267-.493.737-.335 1.153.516 1.363 1.124 2.732 1.808 4.068.195.379.612.593 1.032.534l4.618-.661c.835 1.381 1.766 2.707 2.777 3.955l-2.316 3.919c-.225.38-.173.863.126 1.188 1.029 1.113 2.153 2.195 3.342 3.215.326.28.792.319 1.16.102l4.006-2.367c1.231.916 2.52 1.751 3.845 2.491l-.648 4.534c-.062.434.166.857.561 1.045 1.388.659 2.866 1.252 4.393 1.764.408.137.859-.003 1.118-.348l2.781-3.707c1.446.376 2.91.66 4.367.846l1.147 4.458c.108.421.476.724.909.749.878.053 1.662.078 2.442.078.733 0 1.517-.025 2.395-.078.434-.025.801-.328.909-.749l1.147-4.458c1.458-.186 2.921-.47 4.368-.846l2.781 3.707c.258.345.708.485 1.118.348 1.526-.512 3.004-1.105 4.393-1.764.396-.188.623-.611.561-1.045l-.648-4.534c1.326-.741 2.615-1.576 3.845-2.491l4.006 2.367c.368.217.834.178 1.16-.102 1.189-1.021 2.313-2.103 3.342-3.215.3-.324.351-.807.126-1.188l-2.316-3.919c1.012-1.248 1.942-2.573 2.777-3.955l4.618.661c.419.059.837-.153 1.032-.534.686-1.341 1.294-2.709 1.808-4.067.157-.417.021-.886-.335-1.153l-3.625-2.72c.502-1.642.885-3.331 1.141-5.039l4.514-1.163c.414-.106.714-.464.748-.89.056-.708.09-1.423.112-2.141.008-.271-.093-.533-.282-.727s-.447-.305-.718-.305zm-70-15.035 30.719 8.995c.184.054.379.054.562 0l30.719-8.995v10.035h-7c-.552 0-1 .448-1 1s.448 1 1 1h7v3h-56c-.552 0-1 .448-1 1s.448 1 1 1h16.059c.5 4.493 4.317 8 8.941 8s8.441-3.507 8.941-8h19.006c-1.024 14.661-13.094 26-27.97 26-15.161 0-27.44-11.847-27.98-26.981-.001-.007.003-.012.003-.019 0-.552-.448-1-1-1h-2zm26.101 17.035c.465 2.279 2.484 4 4.899 4s4.434-1.721 4.899-4h2.021c-.488 3.387-3.401 6-6.92 6s-6.432-2.613-6.92-6zm2.083 0h5.631c-.414 1.161-1.514 2-2.816 2s-2.401-.839-2.815-2zm40.758.305-4.463 1.149c-.396.102-.689.434-.742.839-.267 2.052-.728 4.082-1.369 6.031-.134.407.006.855.35 1.112l3.585 2.69c-.339.844-.716 1.691-1.126 2.529l-4.567-.653c-.403-.056-.803.135-1.007.489-.981 1.697-2.116 3.311-3.373 4.798-.275.325-.313.788-.097 1.154l2.291 3.876c-.674.7-1.386 1.385-2.129 2.046l-3.962-2.341c-.353-.208-.797-.181-1.121.07-1.49 1.154-3.078 2.182-4.721 3.056-.372.198-.581.607-.521 1.024l.641 4.484c-.909.408-1.854.787-2.824 1.131l-2.75-3.666c-.248-.33-.671-.474-1.07-.363-1.782.5-3.597.852-5.394 1.044-.415.044-.758.341-.862.745l-1.135 4.411c-1.075.047-2.006.05-3.148 0l-1.135-4.411c-.104-.404-.447-.701-.862-.745-1.798-.192-3.612-.543-5.394-1.044-.398-.111-.823.033-1.07.363l-2.75 3.666c-.97-.345-1.916-.724-2.824-1.131l.641-4.484c.06-.417-.148-.827-.521-1.024-1.641-.873-3.229-1.901-4.721-3.056-.324-.251-.769-.278-1.121-.07l-3.962 2.341c-.743-.661-1.455-1.346-2.129-2.046l2.291-3.876c.216-.366.178-.83-.097-1.154-1.257-1.487-2.392-3.101-3.373-4.798-.204-.354-.607-.544-1.007-.489l-4.566.653c-.41-.836-.787-1.683-1.127-2.529l3.585-2.69c.343-.257.484-.705.35-1.112-.642-1.951-1.103-3.979-1.369-6.031-.053-.405-.347-.738-.742-.839l-4.464-1.149c-.009-.102-.014-.203-.019-.305h8.009c1.029 15.777 13.99 28 29.973 28 15.937 0 28.896-12.223 29.926-28h8.009c-.005.102-.011.203-.017.305z"/><path d="m30 69c2.757 0 5-2.243 5-5s-2.243-5-5-5-5 2.243-5 5 2.243 5 5 5zm0-8c1.654 0 3 1.346 3 3s-1.346 3-3 3-3-1.346-3-3 1.346-3 3-3z"/><path d="m62 69c2.757 0 5-2.243 5-5s-2.243-5-5-5-5 2.243-5 5 2.243 5 5 5zm0-8c1.654 0 3 1.346 3 3s-1.346 3-3 3-3-1.346-3-3 1.346-3 3-3z"/><path d="m46 78c2.757 0 5-2.243 5-5s-2.243-5-5-5-5 2.243-5 5 2.243 5 5 5zm0-8c1.654 0 3 1.346 3 3s-1.346 3-3 3-3-1.346-3-3 1.346-3 3-3z"/><path d="m91.97 45.757-3.97-15.881v-14.876c0-.444-.293-.835-.719-.96l-41-12c-.184-.054-.378-.054-.562 0l-41 12c-.426.125-.719.516-.719.96s.293.835.719.96l41 12c.092.027.186.04.281.04s.189-.013.281-.04l30.719-8.991v15.031c0 .552.448 1 1 1s1-.448 1-1v-15.616l7-2.049v13.542l-3.97 15.881c-.085.341.015.701.263.95l4 4c.195.194.451.292.707.292s.512-.098.707-.293l4-4c.249-.249.348-.609.263-.95zm-45.97-19.799-37.44-10.958 37.44-10.958 37.44 10.958zm41 22.628-2.893-2.893 2.893-11.57 2.893 11.57z"/><circle cx="66" cy="50" r="1"/><circle cx="62" cy="50" r="1"/><circle cx="58" cy="50" r="1"/><path d="m40 15c0 2.061 3.11 3 6 3s6-.939 6-3-3.11-3-6-3-6 .939-6 3zm6 1c-2.347 0-3.717-.673-3.975-1 .258-.327 1.628-1 3.975-1s3.717.673 3.975 1c-.258.327-1.628 1-3.975 1z"/></svg>