<svg id="Expand" enable-background="new 0 0 96 96" height="512" viewBox="0 0 96 96" width="512" xmlns="http://www.w3.org/2000/svg"><path d="m86 64.059v-50.059c0-2.757-2.243-5-5-5h-2c-.552 0-1 .448-1 1v41c0 1.654-1.346 3-3 3h-33v-2h33c.552 0 1-.448 1-1v-44h3c.552 0 1-.448 1-1s-.448-1-1-1h-3v-2c0-.552-.448-1-1-1h-34-34c-.552 0-1 .448-1 1v3h-3c-.552 0-1 .448-1 1v44c0 2.757 2.243 5 5 5h1c0 2.757 2.243 5 5 5h46c1.654 0 3 1.346 3 3v1c0 .552.448 1 1 1h9v23c0 1.654-1.346 3-3 3h-65v-26h55c.552 0 1-.448 1-1s-.448-1-1-1h-56c-.552 0-1 .448-1 1v28c0 .552.448 1 1 1h66c2.757 0 5-2.243 5-5v-24c0-.552-.448-1-1-1h-9c0-2.757-2.243-5-5-5h-46c-1.654 0-3-1.346-3-3h65c2.757 0 5-2.243 5-5v-40h1c1.654 0 3 1.346 3 3v50.059c-4.493.5-8 4.317-8 8.941v12c0 4.962 4.038 9 9 9s9-4.038 9-9v-12c0-4.624-3.507-8.441-8-8.941zm-12-14.059h-32v-46h32zm-67 4c-1.654 0-3-1.346-3-3v-43h3c.552 0 1-.448 1-1v-3h32v46h-32v-39c0-.552-.448-1-1-1s-1 .448-1 1v40c0 .552.448 1 1 1h33v2zm85 31c0 3.86-3.14 7-7 7s-7-3.14-7-7v-12c0-3.86 3.14-7 7-7s7 3.14 7 7z"/><path d="m85 70c-.552 0-1 .448-1 1v2c0 .552.448 1 1 1s1-.448 1-1v-2c0-.552-.448-1-1-1z"/><path d="m46 10h24c.552 0 1-.448 1-1s-.448-1-1-1h-24c-.552 0-1 .448-1 1s.448 1 1 1z"/><path d="m46 14h24c.552 0 1-.448 1-1s-.448-1-1-1h-24c-.552 0-1 .448-1 1s.448 1 1 1z"/><path d="m46 18h24c.552 0 1-.448 1-1s-.448-1-1-1h-24c-.552 0-1 .448-1 1s.448 1 1 1z"/><path d="m46 22h24c.552 0 1-.448 1-1s-.448-1-1-1h-24c-.552 0-1 .448-1 1s.448 1 1 1z"/><path d="m46 26h24c.552 0 1-.448 1-1s-.448-1-1-1h-24c-.552 0-1 .448-1 1s.448 1 1 1z"/><path d="m46 30h24c.552 0 1-.448 1-1s-.448-1-1-1h-24c-.552 0-1 .448-1 1s.448 1 1 1z"/><path d="m46 34h24c.552 0 1-.448 1-1s-.448-1-1-1h-24c-.552 0-1 .448-1 1s.448 1 1 1z"/><path d="m46 38h24c.552 0 1-.448 1-1s-.448-1-1-1h-24c-.552 0-1 .448-1 1s.448 1 1 1z"/><path d="m46 42h24c.552 0 1-.448 1-1s-.448-1-1-1h-24c-.552 0-1 .448-1 1s.448 1 1 1z"/><path d="m46 46h12c.552 0 1-.448 1-1s-.448-1-1-1h-12c-.552 0-1 .448-1 1s.448 1 1 1z"/><path d="m12 10h24c.552 0 1-.448 1-1s-.448-1-1-1h-24c-.552 0-1 .448-1 1s.448 1 1 1z"/><path d="m12 14h24c.552 0 1-.448 1-1s-.448-1-1-1h-24c-.552 0-1 .448-1 1s.448 1 1 1z"/><path d="m12 18h24c.552 0 1-.448 1-1s-.448-1-1-1h-24c-.552 0-1 .448-1 1s.448 1 1 1z"/><path d="m12 22h24c.552 0 1-.448 1-1s-.448-1-1-1h-24c-.552 0-1 .448-1 1s.448 1 1 1z"/><path d="m12 26h24c.552 0 1-.448 1-1s-.448-1-1-1h-24c-.552 0-1 .448-1 1s.448 1 1 1z"/><path d="m12 30h24c.552 0 1-.448 1-1s-.448-1-1-1h-24c-.552 0-1 .448-1 1s.448 1 1 1z"/><path d="m12 34h24c.552 0 1-.448 1-1s-.448-1-1-1h-24c-.552 0-1 .448-1 1s.448 1 1 1z"/><path d="m12 38h24c.552 0 1-.448 1-1s-.448-1-1-1h-24c-.552 0-1 .448-1 1s.448 1 1 1z"/><path d="m12 42h24c.552 0 1-.448 1-1s-.448-1-1-1h-24c-.552 0-1 .448-1 1s.448 1 1 1z"/><path d="m12 46h24c.552 0 1-.448 1-1s-.448-1-1-1h-24c-.552 0-1 .448-1 1s.448 1 1 1z"/><path d="m7 70h2c.552 0 1-.448 1-1s-.448-1-1-1h-2c-.552 0-1 .448-1 1s.448 1 1 1z"/><path d="m16 69c0-.552-.448-1-1-1h-2c-.552 0-1 .448-1 1s.448 1 1 1h2c.552 0 1-.448 1-1z"/><path d="m21 70c.552 0 1-.448 1-1s-.448-1-1-1h-2c-.552 0-1 .448-1 1s.448 1 1 1z"/><path d="m27 68h-2c-.552 0-1 .448-1 1s.448 1 1 1h2c.552 0 1-.448 1-1s-.448-1-1-1z"/><path d="m33 68h-2c-.552 0-1 .448-1 1s.448 1 1 1h2c.552 0 1-.448 1-1s-.448-1-1-1z"/><path d="m39 68h-2c-.552 0-1 .448-1 1s.448 1 1 1h2c.552 0 1-.448 1-1s-.448-1-1-1z"/><path d="m45 68h-2c-.552 0-1 .448-1 1s.448 1 1 1h2c.552 0 1-.448 1-1s-.448-1-1-1z"/><path d="m51 68h-2c-.552 0-1 .448-1 1s.448 1 1 1h2c.552 0 1-.448 1-1s-.448-1-1-1z"/><path d="m57 68h-2c-.552 0-1 .448-1 1s.448 1 1 1h2c.552 0 1-.448 1-1s-.448-1-1-1z"/><path d="m63 68h-2c-.552 0-1 .448-1 1s.448 1 1 1h2c.552 0 1-.448 1-1s-.448-1-1-1z"/><path d="m69 70c.552 0 1-.448 1-1s-.448-1-1-1h-2c-.552 0-1 .448-1 1s.448 1 1 1z"/><path d="m7 75h3c.552 0 1-.448 1-1s-.448-1-1-1h-3c-.552 0-1 .448-1 1s.448 1 1 1z"/><path d="m7 80h4c.552 0 1-.448 1-1s-.448-1-1-1h-4c-.552 0-1 .448-1 1s.448 1 1 1z"/><path d="m7 88c-.552 0-1 .448-1 1s.448 1 1 1h1c.552 0 1-.448 1-1s-.448-1-1-1z"/><path d="m13 88h-1c-.552 0-1 .448-1 1s.448 1 1 1h1c.552 0 1-.448 1-1s-.448-1-1-1z"/><path d="m18 88h-1c-.552 0-1 .448-1 1s.448 1 1 1h1c.552 0 1-.448 1-1s-.448-1-1-1z"/><path d="m15 74c0 .552.448 1 1 1h1c.552 0 1-.448 1-1s-.448-1-1-1h-1c-.552 0-1 .448-1 1z"/><path d="m22 73h-1c-.552 0-1 .448-1 1s.448 1 1 1h1c.552 0 1-.448 1-1s-.448-1-1-1z"/><path d="m27 73h-1c-.552 0-1 .448-1 1s.448 1 1 1h1c.552 0 1-.448 1-1s-.448-1-1-1z"/><path d="m31 75h1c.552 0 1-.448 1-1s-.448-1-1-1h-1c-.552 0-1 .448-1 1s.448 1 1 1z"/><path d="m35 74c0 .552.448 1 1 1h1c.552 0 1-.448 1-1s-.448-1-1-1h-1c-.552 0-1 .448-1 1z"/><path d="m41 73c-.552 0-1 .448-1 1s.448 1 1 1h1c.552 0 1-.448 1-1s-.448-1-1-1z"/><path d="m48 74c0-.552-.448-1-1-1h-1c-.552 0-1 .448-1 1s.448 1 1 1h1c.552 0 1-.448 1-1z"/><path d="m53 74c0-.552-.448-1-1-1h-1c-.552 0-1 .448-1 1s.448 1 1 1h1c.552 0 1-.448 1-1z"/><path d="m57 73h-1c-.552 0-1 .448-1 1s.448 1 1 1h1c.552 0 1-.448 1-1s-.448-1-1-1z"/><path d="m20 80h1c.552 0 1-.448 1-1s-.448-1-1-1h-1c-.552 0-1 .448-1 1s.448 1 1 1z"/><path d="m15 80h1c.552 0 1-.448 1-1s-.448-1-1-1h-1c-.552 0-1 .448-1 1s.448 1 1 1z"/><path d="m25 80h1c.552 0 1-.448 1-1s-.448-1-1-1h-1c-.552 0-1 .448-1 1s.448 1 1 1z"/><path d="m29 79c0 .552.448 1 1 1h1c.552 0 1-.448 1-1s-.448-1-1-1h-1c-.552 0-1 .448-1 1z"/><path d="m34 79c0 .552.448 1 1 1h1c.552 0 1-.448 1-1s-.448-1-1-1h-1c-.552 0-1 .448-1 1z"/><path d="m42 79c0-.552-.448-1-1-1h-1c-.552 0-1 .448-1 1s.448 1 1 1h1c.552 0 1-.448 1-1z"/><path d="m45 78c-.552 0-1 .448-1 1s.448 1 1 1h1c.552 0 1-.448 1-1s-.448-1-1-1z"/><path d="m50 78c-.552 0-1 .448-1 1s.448 1 1 1h1c.552 0 1-.448 1-1s-.448-1-1-1z"/><path d="m55 80h1c.552 0 1-.448 1-1s-.448-1-1-1h-1c-.552 0-1 .448-1 1s.448 1 1 1z"/><path d="m18 83h-1c-.552 0-1 .448-1 1s.448 1 1 1h1c.552 0 1-.448 1-1s-.448-1-1-1z"/><path d="m21 84c0 .552.448 1 1 1h1c.552 0 1-.448 1-1s-.448-1-1-1h-1c-.552 0-1 .448-1 1z"/><path d="m26 84c0 .552.448 1 1 1h1c.552 0 1-.448 1-1s-.448-1-1-1h-1c-.552 0-1 .448-1 1z"/><path d="m33 83h-1c-.552 0-1 .448-1 1s.448 1 1 1h1c.552 0 1-.448 1-1s-.448-1-1-1z"/><path d="m37 83c-.552 0-1 .448-1 1s.448 1 1 1h1c.552 0 1-.448 1-1s-.448-1-1-1z"/><path d="m42 85h1c.552 0 1-.448 1-1s-.448-1-1-1h-1c-.552 0-1 .448-1 1s.448 1 1 1z"/><path d="m48 85c.552 0 1-.448 1-1s-.448-1-1-1h-1c-.552 0-1 .448-1 1s.448 1 1 1z"/><path d="m53 85c.552 0 1-.448 1-1s-.448-1-1-1h-1c-.552 0-1 .448-1 1s.448 1 1 1z"/><path d="m22 90h24c.552 0 1-.448 1-1s-.448-1-1-1h-24c-.552 0-1 .448-1 1s.448 1 1 1z"/><path d="m50 90h1c.552 0 1-.448 1-1s-.448-1-1-1h-1c-.552 0-1 .448-1 1s.448 1 1 1z"/><path d="m55 90h2c.552 0 1-.448 1-1s-.448-1-1-1h-2c-.552 0-1 .448-1 1s.448 1 1 1z"/><path d="m63 88h-2c-.552 0-1 .448-1 1s.448 1 1 1h2c.552 0 1-.448 1-1s-.448-1-1-1z"/><path d="m63 83h-2c-.552 0-1 .448-1 1s.448 1 1 1h2c.552 0 1-.448 1-1s-.448-1-1-1z"/><path d="m69 88h-2c-.552 0-1 .448-1 1s.448 1 1 1h2c.552 0 1-.448 1-1s-.448-1-1-1z"/><path d="m62 74c0 .552.448 1 1 1h6c.552 0 1-.448 1-1s-.448-1-1-1h-6c-.552 0-1 .448-1 1z"/><path d="m69 78h-9c-.552 0-1 .448-1 1s.448 1 1 1h9c.552 0 1-.448 1-1s-.448-1-1-1z"/><path d="m13 83h-6c-.552 0-1 .448-1 1s.448 1 1 1h6c.552 0 1-.448 1-1s-.448-1-1-1z"/><circle cx="62" cy="45" r="1"/><circle cx="66" cy="45" r="1"/><circle cx="70" cy="45" r="1"/></svg>