<svg id="Expand" enable-background="new 0 0 96 96" height="512" viewBox="0 0 96 96" width="512" xmlns="http://www.w3.org/2000/svg"><path d="m93 23h-42.341l-2.659-6.205v-8.795c0-.467-.323-.872-.778-.975l-22-5c-.146-.033-.297-.033-.443 0l-22 5c-.456.103-.779.508-.779.975s.323.872.778.975l22 5c.074.017.148.025.222.025s.148-.008.222-.025l12.778-2.904v15.929h-26v-2h5c.553 0 1-.448 1-1s-.447-1-1-1h-5v-9c0-.552-.447-1-1-1s-1 .448-1 1v14c0 .552.447 1 1 1h11.462c-1.464 2.19-3.821 3.631-6.462 3.926v-.926c0-.552-.447-1-1-1s-1 .448-1 1v46c0 .552.447 1 1 1h27.851c.284.316.579.621.888.912l-4.559 6.515c-.214.305-.24.705-.067 1.035.172.33.514.538.887.538h5.382l2.724 5.447c.169.34.516.553.894.553h.034c.392-.014.738-.254.889-.615l3.914-9.393c.055 0 .108.008.163.008s.108-.008.163-.008l3.914 9.393c.15.361.497.601.889.615h.034c.378 0 .725-.213.895-.553l2.723-5.447h5.382c.373 0 .715-.208.887-.538.173-.331.146-.73-.067-1.035l-4.559-6.515c.31-.291.604-.596.888-.912h27.851c.553 0 1-.448 1-1v-10c0-.552-.447-1-1-1-5.729 0-10.448 4.401-10.955 10h-15.379c1.47-2.319 2.334-5.058 2.334-8 0-8.271-6.729-15-15-15s-15 6.729-15 15c0 2.942.864 5.681 2.334 8h-15.385c-.478-5.268-4.681-9.472-9.949-9.949v-32.102c3.751-.341 7.075-2.582 8.789-5.949h14.211c.553 0 1-.448 1-1v-3h3.586l2.707 2.707c.195.195.451.293.707.293s.512-.098.707-.293l2.707-2.707h31.637c.478 5.268 4.681 9.472 9.949 9.949v29.051c0 .552.447 1 1 1s1-.448 1-1v-40c0-.552-.447-1-1-1zm-1 46.055v7.945h-7.944c.462-4.165 3.779-7.482 7.944-7.945zm-43.083 21.544-2.022-4.046c-.17-.339-.516-.553-.895-.553h-4.08l3.368-4.813c1.878 1.346 4.075 2.263 6.458 2.625zm17.163-4.599h-4.08c-.379 0-.725.214-.895.553l-2.022 4.046-2.829-6.787c2.382-.362 4.58-1.278 6.458-2.625zm-12.08-30c7.168 0 13 5.832 13 13s-5.832 13-13 13-13-5.832-13-13 5.832-13 13-13zm-30.059 21h-7.941v-7.941c4.165.463 7.478 3.777 7.941 7.941zm1.059-65.025-17.488-3.975 17.488-3.975 17.488 3.975zm15-1.359 6-1.364v7.542l-2.659 6.206h-3.341zm7 14.97-1.814-1.814 1.814-4.233 1.814 4.233zm37.059-.586h7.941v7.941c-4.165-.463-7.478-3.777-7.941-7.941z"/><path d="m48.914 69.304-.842 4.513c-.068.371.076.749.376.978.3.228.703.269 1.043.105l4.509-2.181 4.509 2.181c.139.067.287.1.436.1.216 0 .43-.07.607-.205.3-.229.444-.607.376-.978l-.842-4.513 3.582-3.211c.29-.261.402-.667.288-1.039-.115-.373-.437-.645-.823-.697l-5.021-.671-2.23-4.158c-.348-.649-1.414-.649-1.762 0l-2.23 4.158-5.021.671c-.387.052-.708.324-.823.697-.114.373-.002.778.288 1.039zm2.747-3.704c.318-.042.597-.235.748-.519l1.591-2.965 1.591 2.965c.151.283.43.476.748.519l3.379.452-2.386 2.139c-.26.233-.379.585-.315.928l.582 3.121-3.163-1.53c-.138-.066-.286-.1-.436-.1s-.298.033-.436.1l-3.163 1.53.582-3.121c.063-.343-.056-.695-.315-.928l-2.386-2.139z"/><circle cx="21" cy="24" r="1"/><circle cx="25" cy="24" r="1"/><circle cx="29" cy="24" r="1"/><circle cx="50" cy="78" r="1"/><circle cx="54" cy="78" r="1"/><circle cx="58" cy="78" r="1"/><path d="m66 35c.553 0 1-.448 1-1s-.447-1-1-1h-24c-.553 0-1 .448-1 1s.447 1 1 1z"/><path d="m73 39c0-.552-.447-1-1-1h-36c-.553 0-1 .448-1 1s.447 1 1 1h36c.553 0 1-.448 1-1z"/><path d="m86 60h-14c-.553 0-1 .448-1 1s.447 1 1 1h14c.553 0 1-.448 1-1s-.447-1-1-1z"/><path d="m86 65h-14c-.553 0-1 .448-1 1s.447 1 1 1h14c.553 0 1-.448 1-1s-.447-1-1-1z"/><path d="m36 60h-14c-.553 0-1 .448-1 1s.447 1 1 1h14c.553 0 1-.448 1-1s-.447-1-1-1z"/><path d="m36 65h-14c-.553 0-1 .448-1 1s.447 1 1 1h14c.553 0 1-.448 1-1s-.447-1-1-1z"/><path d="m26.293 51.707c.195.195.451.293.707.293s.512-.098.707-.293l2.293-2.293 2.293 2.293c.195.195.451.293.707.293s.512-.098.707-.293c.391-.391.391-1.023 0-1.414l-2.293-2.293 2.293-2.293c.391-.391.391-1.023 0-1.414s-1.023-.391-1.414 0l-2.293 2.293-2.293-2.293c-.391-.391-1.023-.391-1.414 0s-.391 1.023 0 1.414l2.293 2.293-2.293 2.293c-.391.391-.391 1.023 0 1.414z"/><path d="m45.707 44.293c-.391-.391-1.023-.391-1.414 0l-2.293 2.293-2.293-2.293c-.391-.391-1.023-.391-1.414 0s-.391 1.023 0 1.414l2.293 2.293-2.293 2.293c-.391.391-.391 1.023 0 1.414.195.195.451.293.707.293s.512-.098.707-.293l2.293-2.293 2.293 2.293c.195.195.451.293.707.293s.512-.098.707-.293c.391-.391.391-1.023 0-1.414l-2.293-2.293 2.293-2.293c.391-.391.391-1.023 0-1.414z"/><path d="m57.707 44.293c-.391-.391-1.023-.391-1.414 0l-2.293 2.293-2.293-2.293c-.391-.391-1.023-.391-1.414 0s-.391 1.023 0 1.414l2.293 2.293-2.293 2.293c-.391.391-.391 1.023 0 1.414.195.195.451.293.707.293s.512-.098.707-.293l2.293-2.293 2.293 2.293c.195.195.451.293.707.293s.512-.098.707-.293c.391-.391.391-1.023 0-1.414l-2.293-2.293 2.293-2.293c.391-.391.391-1.023 0-1.414z"/><path d="m69.707 44.293c-.391-.391-1.023-.391-1.414 0l-2.293 2.293-2.293-2.293c-.391-.391-1.023-.391-1.414 0s-.391 1.023 0 1.414l2.293 2.293-2.293 2.293c-.391.391-.391 1.023 0 1.414.195.195.451.293.707.293s.512-.098.707-.293l2.293-2.293 2.293 2.293c.195.195.451.293.707.293s.512-.098.707-.293c.391-.391.391-1.023 0-1.414l-2.293-2.293 2.293-2.293c.391-.391.391-1.023 0-1.414z"/><path d="m74.293 51.707c.195.195.451.293.707.293s.512-.098.707-.293l2.293-2.293 2.293 2.293c.195.195.451.293.707.293s.512-.098.707-.293c.391-.391.391-1.023 0-1.414l-2.293-2.293 2.293-2.293c.391-.391.391-1.023 0-1.414s-1.023-.391-1.414 0l-2.293 2.293-2.293-2.293c-.391-.391-1.023-.391-1.414 0s-.391 1.023 0 1.414l2.293 2.293-2.293 2.293c-.391.391-.391 1.023 0 1.414z"/></svg>