<svg id="Expand" enable-background="new 0 0 96 96" height="512" viewBox="0 0 96 96" width="512" xmlns="http://www.w3.org/2000/svg"><path d="m53 85c0-.553-.447-1-1-1h-6c-.553 0-1 .447-1 1s.447 1 1 1h6c.553 0 1-.447 1-1z"/><path d="m69 84h-13c-.553 0-1 .447-1 1s.447 1 1 1h13c.553 0 1-.447 1-1s-.447-1-1-1z"/><path d="m60 88h-12c-.553 0-1 .447-1 1s.447 1 1 1h12c.553 0 1-.447 1-1s-.447-1-1-1z"/><path d="m67 88h-3c-.553 0-1 .447-1 1s.447 1 1 1h3c.553 0 1-.447 1-1s-.447-1-1-1z"/><path d="m24 74h13c.553 0 1-.447 1-1s-.447-1-1-1h-13c-.553 0-1 .447-1 1s.447 1 1 1z"/><path d="m29 77c0 .553.447 1 1 1h10c.553 0 1-.447 1-1s-.447-1-1-1h-10c-.553 0-1 .447-1 1z"/><path d="m24 78h2c.553 0 1-.447 1-1s-.447-1-1-1h-2c-.553 0-1 .447-1 1s.447 1 1 1z"/><path d="m84.025 37.247c.128 1.537 1.405 2.753 2.975 2.753h4c1.654 0 3-1.346 3-3v-32c0-1.654-1.346-3-3-3h-4c-1.57 0-2.847 1.216-2.975 2.753l-49.126 10.247h-2.899v-4h2v1c0 .553.447 1 1 1s1-.447 1-1v-9c0-.553-.447-1-1-1s-1 .447-1 1v1h-16v-1c0-.553-.447-1-1-1s-1 .447-1 1v9c0 .553.447 1 1 1s1-.447 1-1v-1h2v4h-12c0-1.654-1.346-3-3-3s-3 1.346-3 3v12c0 1.654 1.346 3 3 3s3-1.346 3-3h7c.553 0 1-.447 1-1s-.447-1-1-1h-7v-8h26v8h-2v-4c0-.553-.447-1-1-1s-1 .447-1 1v4h-2v-4c0-.553-.447-1-1-1s-1 .447-1 1v4h-2v-4c0-.553-.447-1-1-1s-1 .447-1 1v4h-2v-4c0-.553-.447-1-1-1s-1 .447-1 1v5c0 .553.447 1 1 1h15.894l3.123.65c-.003.117-.017.232-.017.35 0 2.141.683 4.123 1.834 5.752l-11.541 11.541c-.188.187-.293.441-.293.707v21c0 .352.072.686.184 1h-11.184c-.404 0-.77.243-.924.617-.155.374-.069.804.217 1.09 1.414 1.414 2.192 3.294 2.192 5.293 0 1.866-.686 3.624-1.927 5h-7.558c-3.859 0-7 3.141-7 7s3.141 7 7 7h70c.404 0 .77-.243.924-.617.155-.374.069-.804-.217-1.09-1.414-1.414-2.192-3.294-2.192-5.293 0-1.866.686-3.624 1.927-5h7.558c3.859 0 7-3.141 7-7s-3.141-7-7-7h-19.184c.112-.314.184-.648.184-1v-21c0-.266-.105-.52-.293-.707l-11.541-11.541c.455-.644.834-1.342 1.128-2.085zm-78.025-10.247c0 .552-.448 1-1 1s-1-.448-1-1v-12c0-.552.448-1 1-1s1 .448 1 1zm15-18h-3v-3h16v3h-9c-.552 0-1 .448-1 1 0 .552.448 1 1 1h5v4h-8v-5c0-.552-.448-1-1-1zm65-4c0-.552.448-1 1-1h4c.552 0 1 .448 1 1v32c0 .552-.448 1-1 1h-1v-7c0-.553-.447-1-1-1s-1 .447-1 1v7h-1c-.552 0-1-.448-1-1zm-50 20.187v-8.375l48-10.012v28.4l-26.162-5.461c.1-.566.162-1.145.162-1.739 0-5.514-4.486-10-10-10-4.708 0-8.656 3.275-9.713 7.663zm26.181 42.813h-11.363c.112-.317.182-.651.182-1v-29.461c.031-.01.06-.023.091-.033l10.909 10.908v18.586c0 .349.069.684.181 1zm-28.363 0c.112-.317.182-.651.182-1v-18.586l10.909-10.909c.031.01.06.024.091.033v29.462c0 .352.072.686.184 1zm14.182 0c-.552 0-1-.448-1-1v-29.051c.329.033.662.051 1 .051s.671-.018 1-.051v29.051c0 .552-.448 1-1 1zm0-32c-4.411 0-8-3.589-8-8s3.589-8 8-8 8 3.589 8 8-3.589 8-8 8zm-18 31v-20.586l11.149-11.149c.55.519 1.157.974 1.813 1.359l-10.669 10.669c-.188.188-.293.442-.293.707v19c0 .552-.448 1-1 1-.552 0-1-.448-1-1zm-10.938 3h24.938v7c0 .321.154.623.415.812.262.188.596.239.901.137l2.684-.895 2.684.895c.103.034.21.051.316.051.207 0 .412-.064.585-.188.261-.189.415-.491.415-.812v-4c0-.553-.447-1-1-1s-1 .447-1 1v2.612l-1.684-.561c-.205-.068-.428-.068-.633 0l-1.683.561v-5.612h7c2.757 0 5 2.243 5 5s-2.243 5-5 5h-33.938c1.892-3.051 1.892-6.949 0-10zm-10.062 22c-2.757 0-5-2.243-5-5s2.243-5 5-5h29.111c-1.301 1.272-2.111 3.042-2.111 5s.81 3.728 2.111 5zm67.938 0h-33.938c-2.757 0-5-2.243-5-5s2.243-5 5-5h33.938c-1.892 3.051-1.892 6.949 0 10zm15.062-17c0 2.757-2.243 5-5 5h-29.111c1.301-1.272 2.111-3.042 2.111-5s-.81-3.728-2.111-5h29.111c2.757 0 5 2.243 5 5zm-27-7c-.552 0-1-.448-1-1v-19c0-.265-.105-.52-.293-.707l-10.669-10.669c.656-.385 1.263-.84 1.813-1.359l11.149 11.149v20.586c0 .552-.448 1-1 1z"/><path d="m48 23c-2.757 0-5 2.243-5 5s2.243 5 5 5 5-2.243 5-5-2.243-5-5-5zm0 8c-1.654 0-3-1.346-3-3s1.346-3 3-3 3 1.346 3 3-1.346 3-3 3z"/><circle cx="89" cy="27" r="1"/><circle cx="89" cy="23" r="1"/><circle cx="89" cy="19" r="1"/><circle cx="71" cy="89" r="1"/></svg>