<svg id="Expand" enable-background="new 0 0 96 96" height="512" viewBox="0 0 96 96" width="512" xmlns="http://www.w3.org/2000/svg"><path d="m44 79h-8-11v-8c0-4.653-2.909-8.631-7-10.236v-.764h2c2.206 0 4-1.794 4-4v-3h2c.36 0 .692-.194.87-.507s.173-.698-.013-1.007l-2.857-4.763v-1.85c1.724-.445 3-2.013 3-3.874v-2c0-.552-.447-1-1-1h-17c-2.206 0-4 1.794-4 4v12c0 .265.105.52.293.707l4.707 4.708v1.012c-4.61 1.311-8 5.55-8 10.574v22c0 .552.447 1 1 1h18c.553 0 1-.448 1-1v-4h14c4.963 0 9-4.038 9-9 0-.552-.447-1-1-1zm-35-39h16v1c0 1.103-.897 2-2 2h-12c-.553 0-1 .448-1 1v5c0 1.858-1.279 3.411-3 3.858v-10.858c0-1.103.897-2 2-2zm2.707 18.293-3.66-3.66c2.302-.84 3.953-3.044 3.953-5.633v-4h10v2c0 .181.049.359.143.515l2.09 3.485h-1.233c-.553 0-1 .448-1 1v4c0 1.103-.897 2-2 2h-3c-.553 0-1 .448-1 1v1.191c-.65-.12-1.316-.191-2-.191h-1c-.338 0-.67.021-1 .051v-1.051c0-.265-.105-.52-.293-.707zm23.293 28.707h-15c-1.654 0-3-1.346-3-3v-12c0-.552-.447-1-1-1s-1 .448-1 1v12c0 2.757 2.243 5 5 5v3h-16v-21c0-4.962 4.037-9 9-9h1c4.963 0 9 4.038 9 9v9c0 .552.447 1 1 1h11zm2-.079v-5.921h5.929c-.44 3.06-2.869 5.481-5.929 5.921z"/><path d="m83 70h-3v-1.875c3.519-1.612 6-5.278 6-9.472v-4.653c0-5.514-4.486-10-10-10-5.176 0-9.446 3.954-9.949 9h-5.051c-.553 0-1 .448-1 1s.447 1 1 1h5v.808l-1.929 4.821c-.123.308-.085.657.101.932.186.274.496.439.828.439h1.466c.879 2.797 2.939 5.012 5.534 6.153v1.847h-3c-6.065 0-11 4.935-11 11v12c0 .552.447 1 1 1h34c.553 0 1-.448 1-1v-12c0-6.065-4.935-11-11-11zm1-15v3c-1.654 0-3-1.346-3-3zm-8-9c4.072 0 7.436 3.06 7.931 7h-15.862c.495-3.94 3.859-7 7.931-7zm-7.794 14.778c-.103-.455-.509-.778-.976-.778h-.754l1.452-3.628c.048-.119.072-.245.072-.372v-1h11c0 2.718 2.183 4.926 4.886 4.989-.611 3.875-3.818 6.912-7.68 7.009-3.763.088-7.16-2.52-8-6.22zm5.794 8.01c.652.134 1.321.212 2.005.212.084 0 .168-.001.252-.003.596-.015 1.177-.094 1.743-.215v2.218c0 .552.447 1 1 1h.447l-3.447 7.583-3.447-7.583h2.447c.553 0 1-.448 1-1s-.447-1-1-1h-1zm18 23.212h-32v-11c0-4.962 4.037-9 9-9h1.356l4.733 10.414c.163.357.518.586.911.586s.748-.229.91-.586l4.734-10.414h1.356c4.963 0 9 4.038 9 9z"/><path d="m85 80h-4c-.553 0-1 .448-1 1v4c0 .379.214.725.553.895l2 1c.14.07.294.105.447.105s.307-.035.447-.105l2-1c.339-.17.553-.516.553-.895v-4c0-.552-.447-1-1-1zm-1 4.382-1 .5-1-.5v-2.382h2z"/><path d="m7 30h18v5c0 .404.243.769.617.924.124.051.254.076.383.076.26 0 .516-.102.707-.293l5.707-5.707h10.586c2.757 0 5-2.243 5-5v-18c0-2.757-2.243-5-5-5h-36c-2.757 0-5 2.243-5 5v18c0 2.757 2.243 5 5 5zm-3-23c0-1.654 1.346-3 3-3h36c1.654 0 3 1.346 3 3v18c0 1.654-1.346 3-3 3h-11c-.266 0-.52.105-.707.293l-4.293 4.293v-3.586c0-.552-.447-1-1-1h-19c-1.654 0-3-1.346-3-3z"/><path d="m58.523 68.1-1.667-1.981c.335-.779.598-1.586.785-2.411l2.522-.625c.412-.102.716-.454.755-.876.055-.574.081-1.097.081-1.6 0-.502-.026-1.025-.081-1.599-.039-.423-.343-.774-.755-.876l-2.522-.625c-.188-.825-.45-1.632-.785-2.412l1.667-1.981c.274-.325.312-.788.096-1.154-.548-.923-1.182-1.794-1.886-2.59-.281-.319-.733-.424-1.125-.264l-2.396.973c-.643-.564-1.329-1.066-2.053-1.499l.187-2.584c.031-.424-.21-.821-.6-.99-.959-.416-1.982-.746-3.041-.981-.418-.092-.843.087-1.067.448l-1.369 2.203c-.908-.092-1.63-.092-2.538 0l-1.371-2.203c-.224-.361-.649-.541-1.066-.448-1.058.235-2.08.565-3.04.981-.39.168-.631.565-.6.989l.186 2.585c-.723.432-1.409.933-2.053 1.498l-2.396-.973c-.391-.159-.844-.054-1.125.264-.705.797-1.339 1.669-1.886 2.59-.217.366-.179.829.096 1.154l1.667 1.981c-.335.779-.599 1.586-.785 2.412l-2.522.625c-.412.102-.716.454-.755.876-.055.575-.081 1.098-.081 1.6s.026 1.025.081 1.6c.039.423.343.774.755.876l2.522.625c.188.825.45 1.632.785 2.411l-1.666 1.981c-.274.326-.312.788-.096 1.154.547.921 1.181 1.793 1.886 2.59.281.318.734.424 1.125.264l2.396-.973c.643.564 1.329 1.066 2.053 1.499l-.187 2.584c-.031.424.21.821.6.99.959.416 1.982.746 3.041.981.073.016.146.024.218.024.341 0 .664-.174.85-.472l1.369-2.203c.904.091 1.634.091 2.538 0l1.371 2.203c.224.36.65.54 1.065.448 1.058-.235 2.08-.565 3.041-.981.39-.168.631-.565.6-.989l-.186-2.585c.723-.433 1.41-.934 2.053-1.499l2.396.973c.392.16.844.055 1.125-.264.704-.796 1.338-1.667 1.886-2.59.215-.366.177-.828-.098-1.154zm-1.976-6.182c-.384.095-.676.407-.744.796-.192 1.081-.534 2.133-1.019 3.126-.173.355-.12.779.135 1.082l1.606 1.909c-.262.397-.541.782-.838 1.151l-2.309-.938c-.364-.15-.784-.068-1.069.206-.807.775-1.702 1.429-2.664 1.943-.348.186-.554.56-.525.954l.179 2.489c-.437.164-.886.308-1.345.433l-1.324-2.127c-.184-.296-.506-.472-.849-.472-.045 0-.091.003-.137.009-1.254.173-2.036.173-3.29 0-.397-.057-.777.128-.986.462l-1.322 2.127c-.46-.125-.909-.269-1.346-.433l.18-2.488c.028-.394-.178-.768-.525-.954-.962-.514-1.857-1.168-2.664-1.943-.286-.274-.707-.356-1.069-.206l-2.309.938c-.297-.37-.576-.754-.838-1.151l1.606-1.909c.255-.303.308-.727.135-1.082-.484-.993-.826-2.045-1.019-3.126-.068-.389-.36-.701-.744-.796l-2.434-.603c-.013-.245-.02-.48-.02-.709s.007-.463.02-.708l2.434-.603c.384-.095.676-.407.744-.796.191-1.081.534-2.133 1.019-3.126.173-.355.12-.779-.135-1.082l-1.606-1.909c.262-.397.541-.782.838-1.151l2.309.938c.362.149.783.068 1.069-.206.808-.776 1.704-1.43 2.663-1.943.349-.186.555-.56.526-.954l-.179-2.489c.437-.164.886-.309 1.345-.433l1.324 2.127c.208.335.599.518.984.462 1.264-.173 2.028-.173 3.292 0 .395.052.776-.128.985-.462l1.322-2.127c.46.125.909.269 1.346.433l-.18 2.489c-.028.394.178.768.525.954.962.514 1.857 1.168 2.664 1.943.285.273.705.354 1.069.206l2.309-.938c.297.369.576.754.838 1.151l-1.606 1.909c-.255.303-.308.727-.135 1.082.484.993.826 2.045 1.019 3.126.068.389.36.701.744.796l2.434.603c.013.245.02.48.02.708 0 .229-.007.464-.02.709z"/><path d="m49.625 53.582c-.43-.346-1.061-.275-1.405.155-.346.431-.276 1.06.155 1.406 1.668 1.336 2.625 3.329 2.625 5.464 0 1.343-.387 2.594-1.045 3.661l-4.955-4.13v-7.531c0-.552-.447-1-1-1-4.963 0-9 4.038-9 9s4.037 9 9 9 9-4.038 9-9c0-2.746-1.229-5.306-3.375-7.025zm-6.625.096v6.46l-4.955 4.129c-.658-1.066-1.045-2.317-1.045-3.66 0-3.521 2.612-6.442 6-6.929zm-3.673 12.125 4.673-3.894 4.673 3.895c-1.241 1.117-2.877 1.804-4.673 1.804s-3.433-.688-4.673-1.805z"/><path d="m8 9h20c.553 0 1-.448 1-1s-.447-1-1-1h-20c-.553 0-1 .448-1 1s.447 1 1 1z"/><path d="m32 9h10c.553 0 1-.448 1-1s-.447-1-1-1h-10c-.553 0-1 .448-1 1s.447 1 1 1z"/><path d="m8 13h8c.553 0 1-.448 1-1s-.447-1-1-1h-8c-.553 0-1 .448-1 1s.447 1 1 1z"/><path d="m19 12c0 .552.447 1 1 1h10c.553 0 1-.448 1-1s-.447-1-1-1h-10c-.553 0-1 .448-1 1z"/><path d="m42 11h-8c-.553 0-1 .448-1 1s.447 1 1 1h8c.553 0 1-.448 1-1s-.447-1-1-1z"/><path d="m42 23h-23c-.553 0-1 .448-1 1s.447 1 1 1h23c.553 0 1-.448 1-1s-.447-1-1-1z"/><path d="m8 25h7c.553 0 1-.448 1-1s-.447-1-1-1h-7c-.553 0-1 .448-1 1s.447 1 1 1z"/><path d="m8 17h20c.553 0 1-.448 1-1s-.447-1-1-1h-20c-.553 0-1 .448-1 1s.447 1 1 1z"/><path d="m42 15h-10c-.553 0-1 .448-1 1s.447 1 1 1h10c.553 0 1-.448 1-1s-.447-1-1-1z"/><path d="m77 17h-17c-.553 0-1 .448-1 1s.447 1 1 1h17c.553 0 1-.448 1-1s-.447-1-1-1z"/><path d="m89 17h-8c-.553 0-1 .448-1 1s.447 1 1 1h8c.553 0 1-.448 1-1s-.447-1-1-1z"/><path d="m60 23h6c.553 0 1-.448 1-1s-.447-1-1-1h-6c-.553 0-1 .448-1 1s.447 1 1 1z"/><path d="m79 21h-9c-.553 0-1 .448-1 1s.447 1 1 1h9c.553 0 1-.448 1-1s-.447-1-1-1z"/><path d="m89 21h-6c-.553 0-1 .448-1 1s.447 1 1 1h6c.553 0 1-.448 1-1s-.447-1-1-1z"/><path d="m60 27h18c.553 0 1-.448 1-1s-.447-1-1-1h-18c-.553 0-1 .448-1 1s.447 1 1 1z"/><path d="m89 25h-7c-.553 0-1 .448-1 1s.447 1 1 1h7c.553 0 1-.448 1-1s-.447-1-1-1z"/><path d="m89 12h-29c-2.757 0-5 2.243-5 5v9c0 .552.447 1 1 1s1-.448 1-1v-9c0-1.654 1.346-3 3-3h29c1.654 0 3 1.346 3 3v14c0 1.654-1.346 3-3 3h-16c-.553 0-1 .448-1 1v3.586l-4.293-4.293c-.187-.188-.441-.293-.707-.293h-7c-1.654 0-3-1.346-3-3h10c.553 0 1-.448 1-1s-.447-1-1-1h-11c-.553 0-1 .448-1 1v1c0 2.757 2.243 5 5 5h6.586l5.707 5.707c.191.191.447.293.707.293.129 0 .259-.025.383-.076.374-.155.617-.52.617-.924v-5h15c2.757 0 5-2.243 5-5v-14c0-2.757-2.243-5-5-5z"/><path d="m8 21h8c.553 0 1-.448 1-1s-.447-1-1-1h-8c-.553 0-1 .448-1 1s.447 1 1 1z"/><path d="m30 21c.553 0 1-.448 1-1s-.447-1-1-1h-10c-.553 0-1 .448-1 1s.447 1 1 1z"/><path d="m42 19h-8c-.553 0-1 .448-1 1s.447 1 1 1h8c.553 0 1-.448 1-1s-.447-1-1-1z"/><circle cx="71" cy="30" r="1"/><circle cx="75" cy="30" r="1"/><circle cx="79" cy="30" r="1"/></svg>