<svg id="Expand" enable-background="new 0 0 96 96" height="512" viewBox="0 0 96 96" width="512" xmlns="http://www.w3.org/2000/svg"><path d="m84 3c0-.553-.447-1-1-1h-64c-3.859 0-7 3.141-7 7v53c0 2.545 1.371 4.771 3.408 5.997-.487.293-.944.641-1.352 1.053-1.326 1.313-2.056 3.071-2.056 4.95 0 2.548 1.373 4.775 3.413 6-2.04 1.225-3.413 3.452-3.413 6 0 3.859 3.141 7 7 7h64c.369 0 .708-.203.882-.528s.155-.72-.05-1.026c-2.205-3.308-2.205-7.583 0-10.891.009-.013.012-.028.02-.041.009-.015.022-.026.03-.041.015-.027.02-.057.032-.085.017-.041.034-.081.046-.124.012-.044.018-.087.024-.132.006-.044.011-.087.011-.131 0-.045-.005-.089-.011-.134-.006-.043-.012-.085-.023-.127-.012-.045-.03-.087-.048-.131-.011-.026-.016-.055-.03-.08-.008-.014-.019-.024-.027-.038s-.012-.03-.021-.044c-1.082-1.627-1.653-3.51-1.653-5.446s.571-3.819 1.653-5.446l-.007-.005c.018-.026.04-.048.056-.076.174-.325.155-.72-.049-1.026-1.082-1.627-1.653-3.51-1.653-5.446s.571-3.819 1.653-5.446c.111-.167.162-.36.162-.554h.003zm-70 6c0-2.757 2.243-5 5-5h63v51h-63c-1.879 0-3.637.73-4.944 2.05-.02.019-.036.041-.056.061zm0 65c0-1.341.52-2.595 1.47-3.536.935-.944 2.189-1.464 3.53-1.464h5v6c0 .332.165.642.439.828.274.185.625.223.932.101l4.629-1.852 4.629 1.852c.119.048.245.071.371.071.197 0 .393-.059.561-.172.274-.186.439-.496.439-.828v-14h2c.553 0 1-.447 1-1s-.447-1-1-1h-9c-.553 0-1 .447-1 1s.447 1 1 1h1v4c0 .553.447 1 1 1s1-.447 1-1v-4h2v12.523l-3.629-1.452c-.238-.096-.504-.096-.742 0l-3.629 1.452v-13.523c0-.553-.447-1-1-1h-3c-.553 0-1 .447-1 1s.447 1 1 1h2v6h-5c-2.757 0-5-2.243-5-5 0-1.341.52-2.595 1.47-3.536.935-.944 2.189-1.464 3.53-1.464h62.293c-.731 1.563-1.113 3.264-1.113 5s.382 3.437 1.113 5h-42.293c-.553 0-1 .447-1 1s.447 1 1 1h42.294c-.732 1.563-1.115 3.263-1.115 5 0 1.736.382 3.437 1.113 5h-62.292c-2.757 0-5-2.243-5-5zm67.292 17h-62.292c-2.757 0-5-2.243-5-5s2.243-5 5-5h62.292c-1.485 3.171-1.485 6.829 0 10z"/><path d="m49 74h-10c-.553 0-1 .447-1 1s.447 1 1 1h10c.553 0 1-.447 1-1s-.447-1-1-1z"/><path d="m68 72c0-.553-.447-1-1-1h-14c-.553 0-1 .447-1 1s.447 1 1 1h14c.553 0 1-.447 1-1z"/><path d="m75 75h-18c-.553 0-1 .447-1 1s.447 1 1 1h18c.553 0 1-.447 1-1s-.447-1-1-1z"/><path d="m43 84c0-.553-.447-1-1-1h-14c-.553 0-1 .447-1 1s.447 1 1 1h14c.553 0 1-.447 1-1z"/><path d="m47 85h14c.553 0 1-.447 1-1s-.447-1-1-1h-14c-.553 0-1 .447-1 1s.447 1 1 1z"/><path d="m50 87h-13c-.553 0-1 .447-1 1s.447 1 1 1h13c.553 0 1-.447 1-1s-.447-1-1-1z"/><path d="m75 87h-14c-.553 0-1 .447-1 1s.447 1 1 1h14c.553 0 1-.447 1-1s-.447-1-1-1z"/><path d="m45 65h16c.553 0 1-.447 1-1s-.447-1-1-1h-16c-.553 0-1 .447-1 1s.447 1 1 1z"/><path d="m54 61h17c.553 0 1-.447 1-1s-.447-1-1-1h-17c-.553 0-1 .447-1 1s.447 1 1 1z"/><path d="m65 64c0 .553.447 1 1 1h10c.553 0 1-.447 1-1s-.447-1-1-1h-10c-.553 0-1 .447-1 1z"/><circle cx="50" cy="60" r="1"/><circle cx="46" cy="60" r="1"/><circle cx="42" cy="60" r="1"/><path d="m19 52c.553 0 1-.447 1-1v-2c0-.553-.447-1-1-1s-1 .447-1 1v2c0 .553.447 1 1 1z"/><path d="m19 46c.553 0 1-.447 1-1v-2c0-.553-.447-1-1-1s-1 .447-1 1v2c0 .553.447 1 1 1z"/><path d="m19 40c.553 0 1-.447 1-1v-2c0-.553-.447-1-1-1s-1 .447-1 1v2c0 .553.447 1 1 1z"/><path d="m19 34c.553 0 1-.447 1-1v-2c0-.553-.447-1-1-1s-1 .447-1 1v2c0 .553.447 1 1 1z"/><path d="m19 28c.553 0 1-.447 1-1v-2c0-.553-.447-1-1-1s-1 .447-1 1v2c0 .553.447 1 1 1z"/><path d="m19 22c.553 0 1-.447 1-1v-2c0-.553-.447-1-1-1s-1 .447-1 1v2c0 .553.447 1 1 1z"/><path d="m19 16c.553 0 1-.447 1-1v-2c0-.553-.447-1-1-1s-1 .447-1 1v2c0 .553.447 1 1 1z"/><path d="m19 10c.553 0 1-.447 1-1v-2c0-.553-.447-1-1-1s-1 .447-1 1v2c0 .553.447 1 1 1z"/><path d="m47 27.899v7.101c0 .553.447 1 1 1s1-.447 1-1v-7.101c2.279-.465 4-2.484 4-4.899 0-2.757-2.243-5-5-5s-5 2.243-5 5c0 2.414 1.721 4.434 4 4.899zm1-7.899c1.654 0 3 1.346 3 3s-1.346 3-3 3-3-1.346-3-3 1.346-3 3-3z"/><path d="m38.919 30.834c1.868 2.158 2.908 4.626 3.052 7.169-1.641.016-2.971 1.353-2.971 2.997 0 .771.301 1.468.78 2-.48.532-.78 1.229-.78 2 0 1.654 1.346 3 3 3h2c0 2.206 1.794 4 4 4s4-1.794 4-4h2c1.654 0 3-1.346 3-3 0-.771-.301-1.468-.78-2 .48-.532.78-1.229.78-2 0-1.644-1.33-2.981-2.971-2.997.144-2.543 1.184-5.01 3.052-7.169 1.883-2.175 2.919-4.957 2.919-7.834 0-.441-.029-.907-.091-1.423-.052-.436-.381-.787-.812-.866l-2.537-.468c-.149-.461-.335-.91-.558-1.343l1.463-2.124c.248-.361.232-.841-.038-1.186-.59-.75-1.269-1.429-2.019-2.019-.344-.272-.824-.286-1.186-.038l-2.122 1.463c-.432-.222-.881-.407-1.343-.557l-.468-2.537c-.079-.431-.431-.76-.866-.812-1.031-.123-1.814-.123-2.846 0-.436.052-.787.381-.866.812l-.468 2.537c-.462.149-.911.335-1.343.557l-2.124-1.462c-.363-.248-.843-.234-1.186.038-.75.59-1.429 1.269-2.019 2.019-.271.345-.286.824-.038 1.186l1.462 2.124c-.222.432-.407.881-.557 1.343l-2.537.468c-.431.079-.76.431-.812.866-.06.515-.089.981-.089 1.422 0 2.877 1.036 5.659 2.919 7.834zm9.081 19.166c-1.103 0-2-.897-2-2h4c0 1.103-.897 2-2 2zm6-4h-12c-.552 0-1-.448-1-1s.448-1 1-1h12c.552 0 1 .448 1 1s-.448 1-1 1zm1-5c0 .552-.448 1-1 1h-12c-.552 0-1-.448-1-1s.448-1 1-1h1 10 1c.552 0 1 .448 1 1zm-16.987-18.46 2.401-.442c.388-.071.697-.364.79-.747.17-.701.447-1.368.822-1.984.206-.337.194-.763-.029-1.087l-1.382-2.008c.208-.229.428-.448.656-.656l2.008 1.382c.324.224.75.234 1.088.029.614-.375 1.281-.652 1.983-.822.383-.093.676-.402.747-.79l.442-2.401c.318-.018.602-.018.92 0l.442 2.401c.071.388.364.697.747.79.702.17 1.369.447 1.983.822.339.205.763.194 1.088-.029l2.008-1.382c.229.208.448.428.656.656l-1.382 2.008c-.223.324-.235.75-.03 1.087.377.617.653 1.285.823 1.984.093.383.402.676.79.747l2.401.442c.011.159.015.312.015.46 0 2.396-.863 4.714-2.431 6.525-2.156 2.491-3.405 5.479-3.554 8.475h-8.031c-.148-2.996-1.397-5.983-3.554-8.475-1.567-1.811-2.43-4.129-2.43-6.525 0-.148.004-.301.013-.46z"/><path d="m48 9c.553 0 1-.447 1-1v-1c0-.553-.447-1-1-1s-1 .447-1 1v1c0 .553.447 1 1 1z"/><path d="m41.931 9.247c.148.405.531.657.939.657.114 0 .229-.02.343-.061.519-.189.786-.764.597-1.282l-.343-.939c-.189-.519-.764-.784-1.282-.597-.519.189-.786.764-.597 1.282z"/><path d="m37.592 12.152c.198.235.481.357.768.357.227 0 .454-.076.642-.233.423-.355.479-.985.124-1.409l-.643-.767c-.354-.421-.983-.479-1.409-.124-.423.355-.479.985-.124 1.409z"/><path d="m33.644 15.866.866.5c.157.091.329.134.499.134.346 0 .682-.18.867-.5.276-.479.112-1.09-.366-1.366l-.866-.5c-.479-.276-1.09-.111-1.366.366-.277.479-.113 1.09.366 1.366z"/><path d="m32.069 21.206.984.174c.059.011.117.016.175.016.477 0 .898-.341.983-.826.097-.544-.267-1.062-.811-1.158l-.984-.174c-.542-.101-1.063.267-1.158.811-.096.543.267 1.061.811 1.157z"/><path d="m32.242 26.778c.058 0 .116-.005.175-.016l.984-.174c.544-.096.907-.614.811-1.158-.095-.544-.617-.912-1.158-.811l-.984.174c-.544.096-.907.614-.811 1.158.085.487.507.827.983.827z"/><path d="m34.51 29.634-.866.5c-.479.276-.643.888-.366 1.366.186.32.521.5.867.5.17 0 .342-.043.499-.134l.866-.5c.479-.276.643-.888.366-1.366-.277-.479-.89-.643-1.366-.366z"/><path d="m39.001 33.724c-.424-.355-1.054-.298-1.409.124l-.643.767c-.354.424-.299 1.054.124 1.409.188.157.415.233.642.233.286 0 .569-.122.768-.357l.643-.767c.353-.424.298-1.054-.125-1.409z"/><path d="m58.408 33.848c-.355-.422-.984-.479-1.409-.124-.423.355-.479.985-.124 1.409l.643.767c.198.235.481.357.768.357.227 0 .454-.076.642-.233.423-.355.479-.985.124-1.409z"/><path d="m62.356 30.134-.866-.5c-.479-.276-1.089-.112-1.366.366-.276.479-.112 1.09.366 1.366l.866.5c.158.091.33.134.499.134.346 0 .682-.18.867-.5.277-.479.113-1.09-.366-1.366z"/><path d="m63.931 24.794-.984-.174c-.546-.102-1.063.267-1.158.811-.097.544.267 1.062.811 1.158l.984.174c.059.011.117.016.175.016.477 0 .898-.341.983-.826.096-.545-.267-1.063-.811-1.159z"/><path d="m61.788 20.569c.085.485.507.826.983.826.058 0 .116-.005.175-.016l.984-.174c.544-.096.907-.614.811-1.158-.096-.545-.617-.912-1.158-.811l-.984.174c-.544.097-.908.615-.811 1.159z"/><path d="m60.991 16.5c.17 0 .342-.043.499-.134l.866-.5c.479-.276.643-.888.366-1.366-.276-.478-.89-.643-1.366-.366l-.866.5c-.479.276-.643.888-.366 1.366.186.32.522.5.867.5z"/><path d="m57.641 12.51c.286 0 .569-.122.768-.357l.643-.767c.354-.424.299-1.054-.124-1.409-.424-.355-1.054-.297-1.409.124l-.643.767c-.354.424-.299 1.054.124 1.409.187.157.414.233.641.233z"/><path d="m52.787 9.844c.113.041.229.061.343.061.408 0 .791-.252.939-.657l.343-.939c.189-.519-.078-1.093-.597-1.282-.519-.188-1.093.078-1.282.597l-.343.938c-.189.518.079 1.092.597 1.282z"/><circle cx="79" cy="52" r="1"/><circle cx="75" cy="52" r="1"/><circle cx="71" cy="52" r="1"/><circle cx="79" cy="48" r="1"/><circle cx="75" cy="48" r="1"/><circle cx="79" cy="44" r="1"/></svg>