<svg id="Expand" enable-background="new 0 0 96 96" height="512" viewBox="0 0 96 96" width="512" xmlns="http://www.w3.org/2000/svg"><circle cx="17" cy="34" r="1"/><path d="m51 67h-3v-5c0-.553-.447-1-1-1s-1 .447-1 1v5h-2c-.553 0-1 .447-1 1s.447 1 1 1h7c3.859 0 7 3.141 7 7s-3.141 7-7 7c-.299 0-.591-.025-.881-.062-.282-.031-.568.088-.783.277s-.336.498-.336.785c0 4.411-3.589 8-8 8s-8-3.589-7.997-8.027c.013-.294-.105-.578-.321-.777s-.509-.292-.801-.257c-.29.036-.582.061-.881.061-3.859 0-7-3.141-7-7s3.141-7 7-7h6c.553 0 1-.447 1-1v-9h14c2.206 0 4-1.794 4-4 0-1.201-.542-2.266-1.382-3 .84-.734 1.382-1.799 1.382-3s-.542-2.266-1.382-3c.84-.734 1.382-1.799 1.382-3s-.542-2.266-1.382-3c.84-.734 1.382-1.799 1.382-3 0-2.206-1.794-4-4-4h-4v-5h8c.553 0 1-.447 1-1v-6c0-.553-.447-1-1-1h-8v-2h8c.553 0 1-.447 1-1v-6c0-.553-.447-1-1-1h-8v-7c0-.553-.447-1-1-1h-10c-.553 0-1 .447-1 1v25h-8c-.266 0-.52.105-.707.293l-2.707 2.707h-2.586v-1c0-.553-.447-1-1-1h-18c-.553 0-1 .447-1 1v28c0 .553.447 1 1 1h18c.553 0 1-.447 1-1v-.382l2.553 1.276c.138.07.292.106.447.106h8c.553 0 1-.447 1-1s-.447-1-1-1h-7.764l-3.789-1.895c-.311-.154-.678-.14-.973.044-.294.183-.474.504-.474.851v1h-6v-26h6v21c0 .553.447 1 1 1s1-.447 1-1v-19h3c.266 0 .52-.105.707-.293l2.707-2.707h7.586v3h-2c-.553 0-1 .447-1 1s.447 1 1 1h18c1.103 0 2 .897 2 2s-.897 2-2 2h-14c-.553 0-1 .447-1 1s.447 1 1 1h14c1.103 0 2 .897 2 2s-.897 2-2 2h-14c-.553 0-1 .447-1 1s.447 1 1 1h14c1.103 0 2 .897 2 2s-.897 2-2 2h-14c-.553 0-1 .447-1 1s.447 1 1 1h14c1.103 0 2 .897 2 2s-.897 2-2 2h-15c-.553 0-1 .447-1 1v9h-5c-4.963 0-9 4.037-9 9s4.037 9 9 9h.05c.503 5.046 4.773 9 9.95 9s9.447-3.954 9.95-9h.05c4.963 0 9-4.037 9-9s-4.037-9-9-9zm-47-36h8v26h-8zm34-27h2v11c0 .553.447 1 1 1s1-.447 1-1v-11h4v7c0 .553.447 1 1 1h8v4h-8c-.553 0-1 .447-1 1v4c0 .553.447 1 1 1h8v4h-8c-.553 0-1 .447-1 1v6h-8z"/><path d="m41 80c-2.206 0-4 1.794-4 4s1.794 4 4 4 4-1.794 4-4-1.794-4-4-4zm0 6c-1.103 0-2-.897-2-2s.897-2 2-2 2 .897 2 2-.897 2-2 2z"/><path d="m93.555 47.168-12-8c-.306-.204-.702-.224-1.026-.05-.326.174-.529.513-.529.882v2h-3c-.553 0-1 .447-1 1s.447 1 1 1h4c.553 0 1-.447 1-1v-1.132l9.197 6.132-9.197 6.132v-1.132c0-.553-.447-1-1-1h-14c-.553 0-1 .447-1 1s.447 1 1 1h13v2c0 .369.203.708.528.882.148.079.31.118.472.118.194 0 .388-.057.555-.168l12-8c.278-.186.445-.498.445-.832s-.167-.646-.445-.832z"/><path d="m70 43c0-.553-.447-1-1-1h-9c-.553 0-1 .447-1 1s.447 1 1 1h9c.553 0 1-.447 1-1z"/><path d="m59 32h18v2c0 .373.207.715.538.887.146.076.304.113.462.113.201 0 .402-.061.573-.181l10-7c.268-.187.427-.493.427-.819s-.159-.632-.427-.819l-10-7c-.305-.215-.705-.24-1.035-.067-.331.171-.538.513-.538.886v2h-9c-.553 0-1 .447-1 1s.447 1 1 1h10c.553 0 1-.447 1-1v-1.079l7.256 5.079-7.256 5.079v-1.079c0-.553-.447-1-1-1h-19c-.553 0-1 .447-1 1s.447 1 1 1z"/><path d="m82.573 66.181-10-7c-.306-.215-.704-.24-1.035-.067-.331.171-.538.513-.538.886v2h-15c-.553 0-1 .447-1 1s.447 1 1 1h16c.553 0 1-.447 1-1v-1.079l7.256 5.079-7.256 5.079v-1.079c0-.553-.447-1-1-1h-9c-.553 0-1 .447-1 1s.447 1 1 1h8v2c0 .373.207.715.538.887.146.076.304.113.462.113.201 0 .402-.061.573-.181l10-7c.268-.187.427-.493.427-.819s-.159-.632-.427-.819z"/><circle cx="41" cy="19" r="1"/><path d="m62 24h2c.553 0 1-.447 1-1s-.447-1-1-1h-2c-.553 0-1 .447-1 1s.447 1 1 1z"/><circle cx="73" cy="43" r="1"/><circle cx="60" cy="15" r="1"/><path d="m60 52c-.553 0-1 .447-1 1s.447 1 1 1h3c.553 0 1-.447 1-1s-.447-1-1-1z"/><path d="m27 76c0 .553.447 1 1 1s1-.447 1-1c0-1.103.897-2 2-2 .553 0 1-.447 1-1s-.447-1-1-1c-2.206 0-4 1.794-4 4z"/><circle cx="44" cy="73" r="1"/><circle cx="48" cy="73" r="1"/><circle cx="52" cy="73" r="1"/><path d="m64 16h8c.553 0 1-.447 1-1s-.447-1-1-1h-8c-.553 0-1 .447-1 1s.447 1 1 1z"/><circle cx="60" cy="37" r="1"/><circle cx="52" cy="63" r="1"/><path d="m73 37c0-.553-.447-1-1-1h-8c-.553 0-1 .447-1 1s.447 1 1 1h8c.553 0 1-.447 1-1z"/></svg>