<svg id="Expand" enable-background="new 0 0 96 96" height="512" viewBox="0 0 96 96" width="512" xmlns="http://www.w3.org/2000/svg"><path d="m39 87c-.552 0-1 .447-1 1s.448 1 1 1h10c.552 0 1-.447 1-1s-.448-1-1-1z"/><path d="m68 85c0-.553-.448-1-1-1h-14c-.552 0-1 .447-1 1s.448 1 1 1h14c.552 0 1-.447 1-1z"/><path d="m57 90h18c.552 0 1-.447 1-1s-.448-1-1-1h-18c-.552 0-1 .447-1 1s.448 1 1 1z"/><path d="m50 75h-11c-.552 0-1 .447-1 1s.448 1 1 1h11c.552 0 1-.447 1-1s-.448-1-1-1z"/><path d="m54 73h17c.552 0 1-.447 1-1s-.448-1-1-1h-17c-.552 0-1 .447-1 1s.448 1 1 1z"/><path d="m76 75h-10c-.552 0-1 .447-1 1s.448 1 1 1h10c.552 0 1-.447 1-1s-.448-1-1-1z"/><circle cx="62" cy="76" r="1"/><circle cx="58" cy="76" r="1"/><circle cx="54" cy="76" r="1"/><path d="m44 73h4c.552 0 1-.447 1-1s-.448-1-1-1h-4c-.552 0-1 .447-1 1s.448 1 1 1z"/><circle cx="44" cy="31" r="1"/><circle cx="44" cy="39" r="1"/><path d="m85 81c.552 0 1-.447 1-1s-.448-1-1-1h-1v-11h1c.552 0 1-.447 1-1s-.448-1-1-1h-18.944c3.33-2.076 5.683-5.6 6.145-9.761.502-4.517 2.034-8.944 4.431-12.807l3.885-6.259c2.868-4.62 3.7-10.065 2.342-15.331-1.358-5.268-4.72-9.631-9.465-12.288-5.293-2.964-11.545-3.338-17.153-1.029l-7.216 2.971c.263-4.176 3.734-7.496 7.975-7.496.552 0 1-.447 1-1s-.448-1-1-1c-3.273 0-6.175 1.588-8 4.026v-3c0-.539-.427-.98-.965-.999l-.124-.005c-.752-.027-1.512-.019-2.263.013-.384.016-.725.249-.877.603l-2.498 5.777c-2.447.434-4.823 1.206-7.075 2.304l-5.427-3.212c-.33-.196-.744-.185-1.065.029-.723.482-1.437 1.004-2.181 1.594-.301.239-.438.629-.354 1.003l1.378 6.144c-1.725 1.792-3.191 3.812-4.37 6.018l-6.283.587c-.382.036-.711.288-.844.648-.297.803-.568 1.643-.827 2.569-.104.37.014.767.302 1.021l4.73 4.162c-.171 1.236-.257 2.485-.257 3.718 0 1.234.086 2.483.258 3.72l-4.73 4.162c-.288.254-.406.65-.302 1.021.259.927.529 1.767.827 2.569.133.36.462.612.844.648l6.283.587c1.178 2.206 2.645 4.227 4.369 6.017l-1.378 6.144c-.084.374.054.764.354 1.002.733.581 1.467 1.118 2.182 1.596.321.215.735.228 1.065.029l5.427-3.212c2.251 1.098 4.626 1.87 7.075 2.304l1.908 4.413h-21.606c-4.136 0-7.5 3.364-7.5 7.5 0 2.779 1.523 5.204 3.774 6.5-2.251 1.296-3.774 3.721-3.774 6.5 0 4.136 3.364 7.5 7.5 7.5h62.424c.552 0 1-.447 1-1s-.448-1-1-1h-1v-8c0-.553-.448-1-1-1s-1 .447-1 1v8h-59.424c-3.033 0-5.5-2.468-5.5-5.5s2.467-5.5 5.5-5.5h1.424v7c0 .332.165.642.439.828.275.186.624.224.932.101l4.629-1.852 4.628 1.852c.121.048.247.071.372.071.197 0 .393-.059.561-.172.274-.186.439-.496.439-.828v-7zm-27.997-70.625c5.039-2.076 10.657-1.738 15.414.924 4.265 2.389 7.285 6.311 8.506 11.043 1.22 4.732.473 9.625-2.104 13.777l-3.885 6.259c-2.553 4.113-4.185 8.83-4.719 13.641-.633 5.69-5.428 9.981-11.153 9.981-2.998 0-5.815-1.167-7.935-3.286l-2.127-2.128v-33.586h2c.552 0 1-.447 1-1s-.448-1-1-1h-2v-3h7c.552 0 1-.447 1-1s-.448-1-1-1h-7v-3h12c.552 0 1-.447 1-1s-.448-1-1-1h-12v-1.33zm-10.003 23.625h-10c-.552 0-1 .447-1 1s.448 1 1 1h10v12c-7.168 0-13-5.832-13-13s5.832-13 13-13zm0-14c-8.271 0-15 6.729-15 15s6.729 15 15 15v3c-9.925 0-18-8.075-18-18s8.075-18 18-18zm2 43.414.713.714c.725.725 1.525 1.343 2.373 1.872h-3.086zm-2.644 2.576-2.463-5.698c-.136-.315-.425-.539-.764-.592-2.612-.406-5.141-1.229-7.515-2.445-.306-.158-.669-.146-.965.029l-5.348 3.165c-.345-.242-.69-.495-1.041-.763l1.359-6.057c.075-.335-.026-.685-.27-.927-1.874-1.867-3.436-4.019-4.644-6.395-.156-.306-.457-.511-.798-.543l-6.191-.578c-.135-.393-.265-.798-.392-1.223l4.663-4.103c.257-.227.381-.569.327-.908-.208-1.309-.314-2.64-.314-3.952s.106-2.642.314-3.954c.054-.339-.07-.682-.327-.908l-4.663-4.103c.126-.425.256-.83.392-1.223l6.191-.578c.341-.032.643-.237.798-.543 1.207-2.375 2.77-4.527 4.644-6.396.243-.242.345-.592.27-.927l-1.358-6.057c.351-.268.696-.521 1.04-.762l5.348 3.165c.296.175.66.188.965.029 2.375-1.217 4.903-2.039 7.515-2.445.339-.053.628-.276.764-.592l2.463-5.698c.214-.004.429-.008.644-.008v11c-11.028 0-20 8.972-20 20s8.972 20 20 20v11c-.215 0-.43-.004-.644-.01zm-10.356 7.01h2c.552 0 1-.447 1-1s-.448-1-1-1h-9c-.552 0-1 .447-1 1s.448 1 1 1h1v4c0 .553.448 1 1 1s1-.447 1-1v-4h2v13.523l-3.628-1.452c-.239-.096-.504-.096-.743 0l-3.629 1.452v-14.523c0-.553-.448-1-1-1h-3c-.552 0-1 .447-1 1s.448 1 1 1h2v6h-1.424c-3.033 0-5.5-2.468-5.5-5.5s2.467-5.5 5.5-5.5h59.424v11h-46z"/><path d="m74.261 19.564c.194.284.508.436.826.436.194 0 .391-.057.563-.175.456-.312.573-.934.261-1.39-.253-.371-.523-.729-.811-1.075-.353-.424-.984-.481-1.408-.129-.425.353-.483.983-.13 1.408.248.298.481.607.699.925z"/><path d="m71.007 41.118c.164.102.346.15.526.15.334 0 .661-.168.851-.473l3.885-6.259c2.141-3.45 2.762-7.516 1.748-11.446-.138-.535-.68-.857-1.218-.719-.535.139-.856.684-.718 1.219.876 3.396.34 6.91-1.511 9.892l-3.885 6.259c-.292.469-.147 1.086.322 1.377z"/></svg>