<svg id="Expand" enable-background="new 0 0 96 96" height="512" viewBox="0 0 96 96" width="512" xmlns="http://www.w3.org/2000/svg"><circle cx="45" cy="77" r="1"/><circle cx="41" cy="77" r="1"/><circle cx="37" cy="77" r="1"/><path d="m8 87c0 .552.448 1 1 1h46c.552 0 1-.448 1-1s-.448-1-1-1h-46c-.552 0-1 .448-1 1z"/><path d="m61 80h-49c-.552 0-1 .448-1 1s.448 1 1 1h48v2.171c-1.164.413-2 1.525-2 2.829s.836 2.416 2 2.829v2.171h-56v-2.171c1.164-.413 2-1.525 2-2.829s-.836-2.416-2-2.829v-2.171h4c.552 0 1-.448 1-1v-3.586l9.707-9.707c.188-.187.293-.442.293-.707v-38c0-.552-.448-1-1-1s-1 .448-1 1v37.586l-9.707 9.707c-.188.187-.293.442-.293.707v3h-4c-.552 0-1 .448-1 1v4c0 .552.448 1 1 1 .551 0 1 .449 1 1s-.449 1-1 1c-.552 0-1 .448-1 1v4c0 .552.448 1 1 1h58c.552 0 1-.448 1-1v-4c0-.552-.448-1-1-1-.551 0-1-.449-1-1s.449-1 1-1c.552 0 1-.448 1-1v-4c0-.552-.448-1-1-1z"/><path d="m47 42c0-1.654-1.346-3-3-3s-3 1.346-3 3 1.346 3 3 3 3-1.346 3-3zm-4 0c0-.551.449-1 1-1s1 .449 1 1-.449 1-1 1-1-.449-1-1z"/><path d="m93 18h-8c-.552 0-1 .448-1 1v1h-2.586l-2.707-2.707c-.187-.188-.442-.293-.707-.293h-5v-3c0-.552-.448-1-1-1s-1 .448-1 1v8h-17c-2.206 0-4 1.794-4 4 0 .055.014.106.016.161l-5.016-1.14v-3.021h3c.552 0 1-.448 1-1s-.448-1-1-1h-3v-8.929l12.778 2.904c.074.017.148.025.222.025s.148-.008.222-.025l22-5c.455-.103.778-.508.778-.975s-.323-.872-.778-.975l-22-5c-.146-.033-.297-.033-.443 0l-22 5c-.456.103-.779.508-.779.975v5.142c-1.72.447-3 2-3 3.858v5c0 .552.448 1 1 1h6c.552 0 1-.448 1-1v-5c0-1.858-1.28-3.411-3-3.858v-3.889l6 1.364v15.203c0 .467.323.872.779.975l7.035 1.597c.168.223.358.424.568.608-.84.734-1.382 1.8-1.382 3s.542 2.266 1.382 3c-.354.309-.648.677-.876 1.092l-10.799-10.799c-.187-.188-.442-.293-.707-.293h-17v-7c0-.552-.448-1-1-1-2.937 0-5.699 1.145-7.777 3.223s-3.223 4.84-3.223 7.777v35.586l-2.707 2.707c-.188.187-.293.442-.293.707v4c0 .552.448 1 1 1s1-.448 1-1v-3.586l2.707-2.707c.188-.187.293-.442.293-.707v-36c0-2.402.937-4.662 2.637-6.363 1.462-1.462 3.338-2.36 5.363-2.583v6.946c0 .552.448 1 1 1h17.586l11.461 11.461c.118 1.011.606 1.902 1.336 2.539-.841.734-1.383 1.8-1.383 3 0 2.206 1.794 4 4 4h5.586l5.054 5.054c-5.257 5.902-13.469 8.459-21.188 6.525l-10.21-2.55c-.53-.135-1.079.191-1.212.728-.134.536.192 1.079.728 1.212l4.242 1.061v4.97c0 .265.105.52.293.707l10.707 10.707v.586c0 .552.448 1 1 1s1-.448 1-1v-1c0-.265-.105-.52-.293-.707l-10.707-10.707v-4.057l3.967.991c1.869.468 3.764.695 5.646.695 6.933 0 13.673-3.088 18.162-8.583.325-.398.296-.977-.067-1.34l-4.294-4.292h8.586c.552 0 1-.448 1-1s-.448-1-1-1h-17c-1.103 0-2-.897-2-2s.897-2 2-2h16c.552 0 1-.448 1-1s-.448-1-1-1h-16c-1.103 0-2-.897-2-2s.897-2 2-2h16c.552 0 1-.448 1-1s-.448-1-1-1h-16c-1.103 0-2-.897-2-2s.897-2 2-2h16c.552 0 1-.448 1-1s-.448-1-1-1h-16c-1.103 0-2-.897-2-2s.897-2 2-2h20c.552 0 1-.448 1-1s-.448-1-1-1h-1v-3h4.586l2.707 2.707c.187.188.442.293.707.293h3v19c0 .552.448 1 1 1s1-.448 1-1v-21h6v26h-6v-1c0-.347-.18-.668-.474-.851-.295-.183-.663-.199-.973-.044l-3.789 1.895h-5.764c-.552 0-1 .448-1 1s.448 1 1 1h6c.155 0 .309-.036.447-.105l2.553-1.277v.382c0 .552.448 1 1 1h8c.552 0 1-.448 1-1v-28c0-.552-.448-1-1-1zm-55-1v4h-4v-4c0-1.103.897-2 2-2s2 .897 2 2zm20-12.975 17.488 3.975-17.488 3.975-17.488-3.975z"/><circle cx="89" cy="23" r="1"/><path d="m76 66h-13c-.552 0-1 .448-1 1s.448 1 1 1h13c.552 0 1-.448 1-1s-.448-1-1-1z"/><circle cx="80" cy="67" r="1"/><circle cx="84" cy="67" r="1"/><path d="m80 59h-13c-.552 0-1 .448-1 1s.448 1 1 1h13c.552 0 1-.448 1-1s-.448-1-1-1z"/><circle cx="84" cy="60" r="1"/><path d="m84 52h-13c-.552 0-1 .448-1 1s.448 1 1 1h13c.552 0 1-.448 1-1s-.448-1-1-1z"/><circle cx="88" cy="53" r="1"/><circle cx="88" cy="60" r="1"/><circle cx="88" cy="67" r="1"/></svg>