<svg id="Expand" enable-background="new 0 0 96 96" height="512" viewBox="0 0 96 96" width="512" xmlns="http://www.w3.org/2000/svg"><path d="m93 2h-74c-.553 0-1 .447-1 1v6h-3c-.553 0-1 .447-1 1v6h-3c-.553 0-1 .447-1 1v6h-3c-.553 0-1 .447-1 1v3c0 .553.447 1 1 1s1-.447 1-1v-2h72v8h-2v-2c0-.553-.447-1-1-1h-74c-.553 0-1 .447-1 1v62c0 .553.447 1 1 1h74c.553 0 1-.447 1-1v-6h3c.553 0 1-.447 1-1v-6h3c.553 0 1-.447 1-1v-6h3c.553 0 1-.447 1-1v-6h3c.553 0 1-.447 1-1v-62c0-.553-.447-1-1-1zm-73 2h72v8h-2v-2c0-.553-.447-1-1-1h-69zm-4 7h72v8h-2v-2c0-.553-.447-1-1-1h-69zm-4 12v-5h72v8h-2v-2c0-.553-.447-1-1-1zm64 69h-72v-50h69c.553 0 1-.447 1-1s-.447-1-1-1h-69v-8h72zm2-7v-50h2v50zm4-7v-50h2v50zm4-7v-50h2v50zm4-7v-50h2v50z"/><path d="m73 35h-34c-.553 0-1 .447-1 1s.447 1 1 1h34c.553 0 1-.447 1-1s-.447-1-1-1z"/><circle cx="16" cy="36" r="1"/><circle cx="12" cy="36" r="1"/><circle cx="8" cy="36" r="1"/><path d="m44 45h-36c-.553 0-1 .447-1 1v30c0 .553.447 1 1 1h22c.553 0 1-.447 1-1s-.447-1-1-1h-21v-28h34v28h-5c-.553 0-1 .447-1 1s.447 1 1 1h6c.553 0 1-.447 1-1v-30c0-.553-.447-1-1-1z"/><path d="m32.447 60.105-10-5c-.311-.154-.679-.14-.973.044-.294.183-.474.504-.474.851v10c0 .347.18.668.475.851.16.099.342.149.525.149.153 0 .306-.035.447-.105l10-5c.339-.17.553-.516.553-.895s-.214-.725-.553-.895zm-9.447 4.277v-6.764l6.764 3.382z"/><path d="m37 61c0-6.065-4.935-11-11-11s-11 4.935-11 11 4.935 11 11 11 11-4.935 11-11zm-11 9c-4.963 0-9-4.037-9-9s4.037-9 9-9 9 4.037 9 9-4.037 9-9 9z"/><path d="m72 45h-23c-.553 0-1 .447-1 1v11c0 .553.447 1 1 1h23c.553 0 1-.447 1-1v-11c0-.553-.447-1-1-1zm-22 2h8v9h-8zm21 9h-11v-9h11z"/><path d="m72 60h-23c-.553 0-1 .447-1 1v11c0 .553.447 1 1 1h23c.553 0 1-.447 1-1v-11c0-.553-.447-1-1-1zm-22 2h8v9h-8zm21 9h-11v-9h11z"/><path d="m72 75h-23c-.553 0-1 .447-1 1v11c0 .553.447 1 1 1h6c.553 0 1-.447 1-1s-.447-1-1-1h-5v-9h8v10c0 .553.447 1 1 1h13c.553 0 1-.447 1-1v-11c0-.553-.447-1-1-1zm-1 11h-11v-9h11z"/><path d="m12 79h-4c-.553 0-1 .447-1 1s.447 1 1 1h4c.553 0 1-.447 1-1s-.447-1-1-1z"/><path d="m44 79h-28c-.553 0-1 .447-1 1s.447 1 1 1h28c.553 0 1-.447 1-1s-.447-1-1-1z"/><path d="m12 83h-4c-.553 0-1 .447-1 1s.447 1 1 1h4c.553 0 1-.447 1-1s-.447-1-1-1z"/><path d="m44 83h-28c-.553 0-1 .447-1 1s.447 1 1 1h28c.553 0 1-.447 1-1s-.447-1-1-1z"/><path d="m12 87h-4c-.553 0-1 .447-1 1s.447 1 1 1h4c.553 0 1-.447 1-1s-.447-1-1-1z"/><path d="m44 87h-28c-.553 0-1 .447-1 1s.447 1 1 1h28c.553 0 1-.447 1-1s-.447-1-1-1z"/><circle cx="34" cy="76" r="1"/></svg>