<svg id="Expand" enable-background="new 0 0 96 96" height="512" viewBox="0 0 96 96" width="512" xmlns="http://www.w3.org/2000/svg"><path d="m89 84h-3v-2.586l.707-.707c.188-.187.293-.442.293-.707v-9c0-4.962-4.038-9-9-9-4.624 0-8.441 3.507-8.941 8h-4.059c-.552 0-1 .448-1 1s.448 1 1 1h4v5c0 2.757 2.243 5 5 5h4v3c0 .552.448 1 1 1h10c1.654 0 3 1.346 3 3v3h-26v-3c0-1.654 1.346-3 3-3h6c.552 0 1-.448 1-1s-.448-1-1-1h-6c-2.757 0-5 2.243-5 5v4c0 .552.448 1 1 1h28c.552 0 1-.448 1-1v-4c0-2.757-2.243-5-5-5zm-11-20c3.519 0 6.432 2.613 6.92 6h-13.84c.488-3.387 3.401-6 6.92-6zm6.293 16.293c-.188.187-.293.442-.293.707v3h-4v-3c0-.552-.448-1-1-1h-5c-1.654 0-3-1.346-3-3v-5h14v7.586z"/><path d="m93 2h-54c-.552 0-1 .448-1 1v19c0 .552.448 1 1 1s1-.448 1-1v-18h52v52h-32v-3h1c.552 0 1-.448 1-1v-4c0-.552-.448-1-1-1h-21v-3.652c.877-.206 1.709-.643 2.391-1.324l10.316-10.316c.391-.391.391-1.023 0-1.414l-4-4c-.374-.375-.976-.392-1.372-.041l-7.335 6.52v-5.193l6.124-3.499 9.589 2.877c.35.106.733.01.994-.251l3.245-3.245 2.869.522c.059.011.119.016.179.016.202 0 .401-.061.569-.178l6.893-4.772 5.913 4.731c.346.277.834.292 1.198.039l10-7c.453-.317.562-.94.246-1.393s-.939-.562-1.393-.246l-9.387 6.571-4.862-3.889 4.304-2.98 11.902-4.959c.51-.212.75-.798.538-1.308-.212-.509-.795-.751-1.308-.538l-12 5c-.065.027-.126.061-.185.101l-4.883 3.38-2.924-2.339c-.397-.319-.972-.287-1.332.074l-7.014 7.014-6.911-1.257-7.838-4.898c-.468-.293-1.085-.15-1.378.318-.292.468-.15 1.085.318 1.378l8 5c.107.067.226.113.351.136l5.738 1.043-1.844 1.844-9.428-2.829c-.262-.078-.546-.046-.783.09l-7 4c-.308.177-.5.508-.5.867v5.586l-4.95-4.949c-1.7-1.7-3.96-2.636-6.364-2.636h-2.686v-1h5c.552 0 1-.448 1-1v-6h2c.36 0 .693-.194.87-.507.178-.313.173-.698-.013-1.007l-2.857-4.764v-1.85c1.723-.445 3-2.013 3-3.873v-2c0-.552-.448-1-1-1h-17c-2.206 0-4 1.794-4 4v12c0 .265.105.52.293.707l4.707 4.707v1.586h-5c-4.962 0-9 4.038-9 9v18c0 .552.448 1 1 1h55v10.026c-.838-.635-1.87-1.026-3-1.026h-24c-2.757 0-5 2.243-5 5v12h-20v-23c0-.552-.448-1-1-1s-1 .448-1 1v24c0 .552.448 1 1 1h21v6c0 2.757 2.243 5 5 5h24c2.757 0 5-2.243 5-5v-5h5c.404 0 .769-.244.924-.617.155-.374.069-.804-.217-1.09l-5.707-5.707v-7.586-9h33c.552 0 1-.448 1-1v-54c0-.552-.448-1-1-1zm-25.926 14.34 1.758 1.406-6.061 4.196-1.099-.2zm-37.074 30.66v-9.754l5.51 4.959c.725.652 1.591 1.049 2.49 1.205v3.59zm1.636-17.95 6.657 6.657c.375.375.976.393 1.372.041l8.295-7.374 2.626 2.626-9.609 9.609c-1.127 1.129-2.942 1.177-4.128.109l-7.179-6.461c-.294-.266-.716-.331-1.076-.17-.362.16-.594.518-.594.913v12h-4.1l-1.868-17.746 1.503-2.254h3.151c1.87 0 3.628.728 4.95 2.05zm-11.171-1.05h-.93l-.667-1h2.263zm-.565 2h.2l1.79 17h-3.778zm10.334-15h-1.234c-.552 0-1 .448-1 1v1h-8c-1.103 0-2-.897-2-2v-6h10v2c0 .181.049.359.143.515zm-17.234 2.586v-11.586c0-1.103.897-2 2-2h16v1c0 1.103-.897 2-2 2h-12c-.552 0-1 .448-1 1v7c0 2.206 1.794 4 4 4h8v3h-5c-.552 0-1 .448-1 1v2h-4v-2c0-.265-.105-.52-.293-.707zm-2 9.414h5.465l1.503 2.254-1.868 17.746h-5.1v-12c0-.552-.448-1-1-1s-1 .448-1 1v12h-5v-13c0-3.86 3.14-7 7-7zm-7 22h13 6 37v2h-56zm54.293 26.707 4.293 4.293h-3.586c-.552 0-1 .448-1 1v6c0 1.654-1.346 3-3 3h-24c-1.654 0-3-1.346-3-3v-20c0-1.654 1.346-3 3-3h24c1.654 0 3 1.346 3 3v8c0 .265.105.52.293.707z"/><path d="m90 44c0-.552-.448-1-1-1h-3v-16c0-.552-.448-1-1-1h-6c-.552 0-1 .448-1 1v3h-4v-4c0-.552-.448-1-1-1h-6c-.552 0-1 .448-1 1v6h-5c-.552 0-1 .448-1 1v3h-5c-.552 0-1 .448-1 1v6h-3c-.552 0-1 .448-1 1s.448 1 1 1h4 6 6 6 6 6 4c.552 0 1-.448 1-1zm-34-6h4v5h-4zm6-1v-3h4v9h-4zm6-4v-6h4v4 12h-4zm6-1h4v11h-4zm6 11v-12-3h4v15z"/><path d="m86 47c-.552 0-1 .448-1 1s.448 1 1 1h2c.552 0 1-.448 1-1s-.448-1-1-1z"/><path d="m79 47c-.552 0-1 .448-1 1s.448 1 1 1h2c.552 0 1-.448 1-1s-.448-1-1-1z"/><path d="m72 47c-.552 0-1 .448-1 1s.448 1 1 1h2c.552 0 1-.448 1-1s-.448-1-1-1z"/><path d="m65 47c-.552 0-1 .448-1 1s.448 1 1 1h2c.552 0 1-.448 1-1s-.448-1-1-1z"/><path d="m55 7h-11c-.552 0-1 .448-1 1s.448 1 1 1h11c.552 0 1-.448 1-1s-.448-1-1-1z"/><path d="m64 7h-5c-.552 0-1 .448-1 1s.448 1 1 1h5c.552 0 1-.448 1-1s-.448-1-1-1z"/><path d="m44 13h4c.552 0 1-.448 1-1s-.448-1-1-1h-4c-.552 0-1 .448-1 1s.448 1 1 1z"/><path d="m51 12c0 .552.448 1 1 1h5c.552 0 1-.448 1-1s-.448-1-1-1h-5c-.552 0-1 .448-1 1z"/><path d="m64 11h-3c-.552 0-1 .448-1 1s.448 1 1 1h3c.552 0 1-.448 1-1s-.448-1-1-1z"/><circle cx="68" cy="8" r="1"/><circle cx="72" cy="8" r="1"/><circle cx="76" cy="8" r="1"/><path d="m33 70h11c.552 0 1-.448 1-1s-.448-1-1-1h-11c-.552 0-1 .448-1 1s.448 1 1 1z"/><path d="m53 68h-5c-.552 0-1 .448-1 1s.448 1 1 1h5c.552 0 1-.448 1-1s-.448-1-1-1z"/><path d="m33 74h4c.552 0 1-.448 1-1s-.448-1-1-1h-4c-.552 0-1 .448-1 1s.448 1 1 1z"/><path d="m40 73c0 .552.448 1 1 1h5c.552 0 1-.448 1-1s-.448-1-1-1h-5c-.552 0-1 .448-1 1z"/><path d="m53 72h-3c-.552 0-1 .448-1 1s.448 1 1 1h3c.552 0 1-.448 1-1s-.448-1-1-1z"/><path d="m53 84h-13c-.552 0-1 .448-1 1s.448 1 1 1h13c.552 0 1-.448 1-1s-.448-1-1-1z"/><path d="m36 84h-3c-.552 0-1 .448-1 1s.448 1 1 1h3c.552 0 1-.448 1-1s-.448-1-1-1z"/><path d="m33 78h11c.552 0 1-.448 1-1s-.448-1-1-1h-11c-.552 0-1 .448-1 1s.448 1 1 1z"/><path d="m53 76h-5c-.552 0-1 .448-1 1s.448 1 1 1h5c.552 0 1-.448 1-1s-.448-1-1-1z"/><path d="m37 80h-4c-.552 0-1 .448-1 1s.448 1 1 1h4c.552 0 1-.448 1-1s-.448-1-1-1z"/><path d="m46 80h-5c-.552 0-1 .448-1 1s.448 1 1 1h5c.552 0 1-.448 1-1s-.448-1-1-1z"/><path d="m53 80h-3c-.552 0-1 .448-1 1s.448 1 1 1h3c.552 0 1-.448 1-1s-.448-1-1-1z"/><circle cx="9" cy="76" r="1"/><circle cx="9" cy="72" r="1"/><circle cx="9" cy="68" r="1"/><circle cx="13" cy="76" r="1"/><circle cx="13" cy="72" r="1"/><circle cx="17" cy="76" r="1"/></svg>