<svg id="Expand" enable-background="new 0 0 96 96" height="512" viewBox="0 0 96 96" width="512" xmlns="http://www.w3.org/2000/svg"><path d="m67 44h-4c-.552 0-1 .448-1 1v6c0 .552.448 1 1 1h4c.552 0 1-.448 1-1v-6c0-.552-.448-1-1-1zm-1 6h-2v-4h2z"/><path d="m71 52h4c.552 0 1-.448 1-1v-6c0-.552-.448-1-1-1h-4c-.552 0-1 .448-1 1v6c0 .552.448 1 1 1zm1-6h2v4h-2z"/><path d="m67 54h-4c-.552 0-1 .448-1 1v6c0 .552.448 1 1 1h4c.552 0 1-.448 1-1v-6c0-.552-.448-1-1-1zm-1 6h-2v-4h2z"/><path d="m71 62h4c.552 0 1-.448 1-1v-6c0-.552-.448-1-1-1h-4c-.552 0-1 .448-1 1v6c0 .552.448 1 1 1zm1-6h2v4h-2z"/><path d="m21 52h4c.552 0 1-.448 1-1v-6c0-.552-.448-1-1-1h-4c-.552 0-1 .448-1 1v6c0 .552.448 1 1 1zm1-6h2v4h-2z"/><path d="m29 52h4c.552 0 1-.448 1-1v-6c0-.552-.448-1-1-1h-4c-.552 0-1 .448-1 1v6c0 .552.448 1 1 1zm1-6h2v4h-2z"/><path d="m20 61c0 .552.448 1 1 1h4c.552 0 1-.448 1-1v-6c0-.552-.448-1-1-1h-4c-.552 0-1 .448-1 1zm2-5h2v4h-2z"/><path d="m28 61c0 .552.448 1 1 1h4c.552 0 1-.448 1-1v-6c0-.552-.448-1-1-1h-4c-.552 0-1 .448-1 1zm2-5h2v4h-2z"/><path d="m90 32c-2.206 0-4 1.794-4 4v9h-6v-4h-.026c0-.092.013-.184-.013-.275l-6-21c-.122-.429-.515-.725-.961-.725h-22.222l-1.778-4.203v-10.797h10v5h-7c-.552 0-1 .448-1 1s.448 1 1 1h8c.552 0 1-.448 1-1v-7c0-.552-.448-1-1-1h-12c-.552 0-1 .448-1 1v11.797l-1.778 4.203h-22.222c-.446 0-.839.296-.961.725l-6 21c-.01.036.001.073-.005.11-.01.056-.034.106-.034.165v4h-6v-9c0-2.206-1.794-4-4-4s-4 1.794-4 4v10c0 3.86 3.14 7 7 7h7v11c0 .552.448 1 1 1s1-.448 1-1v-22h18v29h-18v-2h9c.552 0 1-.448 1-1s-.448-1-1-1h-10c-.552 0-1 .448-1 1v4c0 .552.448 1 1 1h16v5.051c-1.744.196-3.178 1.379-3.735 2.987-4.36.319-7.943 3.44-8.963 7.57-.005.011-.005.023-.009.034-.185.757-.293 1.544-.293 2.358v2c0 .552.448 1 1 1h22c.552 0 1-.448 1-1v-6.276c1.742-.621 3-2.271 3-4.224 0-2.31-1.756-4.197-4-4.449v-5.051h10v5.051c-2.244.252-4 2.139-4 4.449 0 1.953 1.258 3.602 3 4.224v6.276c0 .552.448 1 1 1h22c.552 0 1-.448 1-1v-2c0-5.266-4.094-9.584-9.265-9.963-.558-1.608-1.991-2.791-3.735-2.987v-5.05h16c.552 0 1-.448 1-1v-19h7c3.86 0 7-3.14 7-7v-10c0-2.206-1.794-4-4-4zm-17.754-11 5.429 19h-18.012l-8.038-19zm-33.737 19 2.962-7h5.529v7zm10.491-7h5.53l2.962 7h-8.492zm4.683-2h-4.683v-11.07zm-6.683 0h-4.683l4.683-11.07zm-38 20c-2.757 0-5-2.243-5-5v-10c0-1.103.897-2 2-2s2 .897 2 2v10c0 .552.448 1 1 1h7v4zm9.326-11 5.429-19h20.621l-8.038 19zm26.674 42.5c0 1.378-1.122 2.5-2.5 2.5h-1.5c-.552 0-1 .448-1 1s.448 1 1 1h1v5h-20v-1c0-.339.028-.672.069-1h4.931c.552 0 1-.448 1-1s-.448-1-1-1h-4.411c1.076-2.649 3.529-4.592 6.468-4.939.279 2.214 2.154 3.939 4.443 3.939h2.5c.552 0 1-.448 1-1s-.448-1-1-1h-2.5c-1.378 0-2.5-1.122-2.5-2.5 0-1.207.86-2.217 2-2.449v1.949c0 .552.448 1 1 1h8c.552 0 1-.448 1-1v-1.949c1.14.232 2 1.242 2 2.449zm-4-1.5h-6v-8h6zm24 1.5c0 1.378-1.122 2.5-2.5 2.5h-2.5c-.552 0-1 .448-1 1s.448 1 1 1h2.5c2.289 0 4.164-1.725 4.443-3.939 3.968.469 7.057 3.848 7.057 7.939v1h-20v-5h1c.552 0 1-.448 1-1s-.448-1-1-1h-1.5c-1.378 0-2.5-1.122-2.5-2.5 0-1.207.86-2.217 2-2.449v1.949c0 .552.448 1 1 1h8c.552 0 1-.448 1-1v-1.949c1.14.232 2 1.242 2 2.449zm-4-1.5h-6v-8h6zm-1-10v-26c0-.552-.448-1-1-1s-1 .448-1 1v26h-20v-29h21 19v25h-3c-.552 0-1 .448-1 1s.448 1 1 1h3v2zm32-25c0 2.757-2.243 5-5 5h-7v-4h7c.552 0 1-.448 1-1v-10c0-1.103.897-2 2-2s2 .897 2 2z"/><circle cx="43.5" cy="50.5" r="1.5"/><circle cx="52.5" cy="50.5" r="1.5"/><path d="m52 54h-8c-.552 0-1 .448-1 1v1c0 2.757 2.243 5 5 5s5-2.243 5-5v-1c0-.552-.448-1-1-1zm-4 5c-1.654 0-3-1.346-3-3h6c0 1.654-1.346 3-3 3z"/><circle cx="71" cy="68" r="1"/><circle cx="67" cy="68" r="1"/><circle cx="63" cy="68" r="1"/></svg>