<svg id="Expand" enable-background="new 0 0 96 96" height="512" viewBox="0 0 96 96" width="512" xmlns="http://www.w3.org/2000/svg"><path d="m45 13h-4c-.552 0-1 .448-1 1v4c0 .552.448 1 1 1s1-.448 1-1v-3h2v8h-7c-.552 0-1 .448-1 1v27h-24v-27c0-.552-.448-1-1-1h-7v-8h12.586l3.637 3.637 1.739 2.609-1.954 15.631c-.039.306.067.613.285.831l3 3c.195.194.451.292.707.292s.512-.098.707-.293l3-3c.218-.218.324-.525.285-.831l-1.954-15.631 1.739-2.609 3.637-3.636h5.586c.552 0 1-.448 1-1s-.448-1-1-1h-5.838l-2.846-.949c-.251-.083-.526-.064-.764.054l-3.552 1.777-3.553-1.776c-.237-.119-.511-.138-.764-.054l-2.845.948h-13.838c-.552 0-1 .448-1 1v10c0 .552.448 1 1 1h7v27c0 .552.448 1 1 1h26c.552 0 1-.448 1-1v-27h7c.552 0 1-.448 1-1v-10c0-.552-.448-1-1-1zm-21 3.414 1.713 1.713-1.248 1.873h-.93l-1.248-1.873zm0 22.172-1.947-1.947 1.83-14.639h.235l1.83 14.639zm4.077-24.506 1.072.357-2.149 2.149-1.312-1.312zm-8.154 0 2.389 1.194-1.312 1.312-2.149-2.149z"/><path d="m38.722 79.691c.189-.197.289-.462.277-.735l-1-23c-.023-.534-.464-.956-.999-.956h-26c-.535 0-.976.422-.999.957l-1 23c-.012.272.088.538.277.735.188.197.449.308.722.308h12c.501 0 .925-.371.991-.868l1.009-7.566 1.009 7.566c.066.497.49.868.991.868h12c.273 0 .534-.111.722-.309zm-11.847-1.691-1.884-14.132c-.066-.497-.49-.868-.991-.868s-.925.371-.991.868l-1.884 14.132h-10.08l.913-21h24.085l.087 2h-8.13c-.552 0-1 .448-1 1s.448 1 1 1h8.216l.739 17z"/><path d="m19 82h-8c-.552 0-1 .448-1 1v3h-1c-3.86 0-7 3.14-7 7 0 .552.448 1 1 1h16c.552 0 1-.448 1-1v-10c0-.552-.448-1-1-1zm-7 2h6v2h-6zm6 8h-13.899c.464-2.279 2.484-4 4.899-4h9z"/><path d="m39 86h-1v-3c0-.552-.448-1-1-1h-8c-.552 0-1 .448-1 1v10c0 .552.448 1 1 1h16c.552 0 1-.448 1-1 0-3.86-3.14-7-7-7zm-3-2v2h-6v-2zm-6 8v-4h9c2.415 0 4.435 1.721 4.899 4z"/><path d="m13 10h17c.552 0 1-.448 1-1 0-3.86-3.14-7-7-7-3.519 0-6.432 2.613-6.92 6h-4.08c-.552 0-1 .448-1 1s.448 1 1 1zm11-6c2.415 0 4.435 1.721 4.899 4h-9.799c.465-2.279 2.485-4 4.9-4z"/><path d="m93 13h-13.838l-2.846-.949c-.251-.083-.526-.064-.764.054l-3.552 1.777-3.553-1.776c-.237-.119-.511-.138-.764-.054l-2.845.948h-13.838c-.552 0-1 .448-1 1v10c0 .552.448 1 1 1h7v27c0 .552.448 1 1 1h26c.552 0 1-.448 1-1v-27h7c.552 0 1-.448 1-1v-10c0-.552-.448-1-1-1zm-16.923 1.08 1.072.357-2.149 2.149-1.312-1.312zm-4.182 7.92h.21l1.778 16h-3.766zm.57-2h-.93l-1.248-1.873 1.713-1.713 1.713 1.713zm-4.542-5.92 2.389 1.194-1.312 1.312-2.149-2.149zm24.077 8.92h-7c-.552 0-1 .448-1 1v27h-24v-27c0-.552-.448-1-1-1h-7v-8h12.586l3.637 3.637 1.743 2.615-1.96 17.638c-.032.283.059.565.249.777.189.212.46.333.745.333h6c.285 0 .556-.121.745-.333.19-.212.28-.495.249-.777l-1.96-17.638 1.743-2.615 3.637-3.637h8.586v3c0 .552.448 1 1 1s1-.448 1-1v-3h2z"/><path d="m61 10h22c.552 0 1-.448 1-1s-.448-1-1-1h-4.08c-.488-3.387-3.401-6-6.92-6s-6.432 2.613-6.92 6h-4.08c-.552 0-1 .448-1 1s.448 1 1 1zm11-6c2.415 0 4.435 1.721 4.899 4h-9.799c.465-2.279 2.485-4 4.9-4z"/><path d="m29 24c-.552 0-1 .448-1 1v4c0 .379.214.725.553.895l2 1c.14.07.294.105.447.105s.307-.035.447-.105l2-1c.339-.17.553-.516.553-.895v-4c0-.552-.448-1-1-1zm3 4.382-1 .5-1-.5v-2.382h2z"/><path d="m81 24h-4c-.552 0-1 .448-1 1v4c0 .379.214.725.553.895l2 1c.14.07.294.105.447.105s.307-.035.447-.105l2-1c.339-.17.553-.516.553-.895v-4c0-.552-.448-1-1-1zm-1 4.382-1 .5-1-.5v-2.382h2z"/><circle cx="24" cy="60" r="1"/><circle cx="20" cy="60" r="1"/><circle cx="16" cy="60" r="1"/><path d="m88 80c.295 0 .575-.13.765-.356s.271-.524.22-.815l-4-23c-.083-.479-.499-.829-.985-.829h-24c-.486 0-.902.35-.985.829l-4 23c-.05.291.03.589.22.815s.47.356.765.356zm-27.159-23h3.02l-2.739 21h-3.933zm5.037 0h3.031l-1.826 21h-3.945zm3.213 21 1.826-21h2.166l1.826 21zm6-21h3.031l2.364 18.129c.066.504.496.871.991.871.043 0 .087-.002.131-.008.547-.071.934-.573.862-1.121l-2.331-17.871h3.02l3.652 21h-9.894z"/><path d="m67 82h-8c-.552 0-1 .448-1 1v2h-3.5c-2.481 0-4.5 2.019-4.5 4.5s2.019 4.5 4.5 4.5h12.5c.552 0 1-.448 1-1v-10c0-.552-.448-1-1-1zm-8 5c.552 0 1-.448 1-1v-2h6v4h-6c-.737 0-1.375-.405-1.722-1zm-4.5 5c-1.378 0-2.5-1.122-2.5-2.5s1.122-2.5 2.5-2.5h1.642c.447 1.72 2 3 3.858 3h6v2z"/><path d="m89.5 85h-3.5v-2c0-.552-.448-1-1-1h-8c-.552 0-1 .448-1 1v10c0 .552.448 1 1 1h12.5c2.481 0 4.5-2.019 4.5-4.5s-2.019-4.5-4.5-4.5zm-5.5-1v2c0 .552.448 1 1 1h.722c-.347.595-.985 1-1.722 1h-6v-4zm5.5 8h-11.5v-2h6c1.858 0 3.411-1.28 3.858-3h1.642c1.378 0 2.5 1.122 2.5 2.5s-1.122 2.5-2.5 2.5z"/></svg>