<svg id="Expand" enable-background="new 0 0 96 96" height="512" viewBox="0 0 96 96" width="512" xmlns="http://www.w3.org/2000/svg"><path d="m93 10h-3v-5c0-1.654-1.346-3-3-3s-3 1.346-3 3v5h-7v-5c0-1.654-1.346-3-3-3s-3 1.346-3 3v5h-7v-5c0-1.654-1.346-3-3-3s-3 1.346-3 3v5h-7v-5c0-1.654-1.346-3-3-3s-3 1.346-3 3v5h-7v-5c0-1.654-1.346-3-3-3s-3 1.346-3 3v5h-7v-5c0-1.654-1.346-3-3-3s-3 1.346-3 3v5h-7v-5c0-1.654-1.346-3-3-3s-3 1.346-3 3v5h-3c-.553 0-1 .448-1 1v14c0 .552.447 1 1 1h89v47c0 .552.447 1 1 1s1-.448 1-1v-62c0-.552-.447-1-1-1zm-7-5c0-.551.448-1 1-1s1 .449 1 1v12c0 .551-.448 1-1 1s-1-.449-1-1zm-13 0c0-.551.448-1 1-1s1 .449 1 1v12c0 .551-.448 1-1 1s-1-.449-1-1zm-13 0c0-.551.448-1 1-1s1 .449 1 1v12c0 .551-.448 1-1 1s-1-.449-1-1zm-13 0c0-.551.448-1 1-1s1 .449 1 1v12c0 .551-.448 1-1 1s-1-.449-1-1zm-13 0c0-.551.448-1 1-1s1 .449 1 1v12c0 .551-.448 1-1 1s-1-.449-1-1zm-13 0c0-.551.448-1 1-1s1 .449 1 1v12c0 .551-.448 1-1 1s-1-.449-1-1zm-13 0c0-.551.448-1 1-1s1 .449 1 1v12c0 .551-.448 1-1 1s-1-.449-1-1zm-4 19v-12h2v5c0 1.654 1.346 3 3 3s3-1.346 3-3v-5h7v5c0 1.654 1.346 3 3 3s3-1.346 3-3v-5h7v5c0 1.654 1.346 3 3 3s3-1.346 3-3v-5h7v5c0 1.654 1.346 3 3 3s3-1.346 3-3v-5h7v5c0 1.654 1.346 3 3 3s3-1.346 3-3v-5h7v5c0 1.654 1.346 3 3 3s3-1.346 3-3v-5h7v5c0 1.654 1.346 3 3 3s3-1.346 3-3v-5h2v12z"/><circle cx="89" cy="89" r="1"/><circle cx="89" cy="85" r="1"/><circle cx="89" cy="81" r="1"/><path d="m93 76h-13v-26c0-.14-.03-.273-.082-.394h.001l-6-14c-.157-.368-.519-.606-.919-.606h-21.529l-2.606-4.501c-.357-.618-1.373-.618-1.73 0l-2.606 4.501h-21.529c-.4 0-.762.238-.919.606l-6 14h.001c-.052.121-.082.254-.082.394v27c0 .552.447 1 1 1h75v14h-80v-7c0-.552-.447-1-1-1h-4c-.553 0-1 .448-1 1s.447 1 1 1h3v4.586l-6-6v-55.586c0-.552-.447-1-1-1s-1 .448-1 1v56c0 .265.105.52.293.707l8 8c.187.188.441.293.707.293h82c.553 0 1-.448 1-1v-16c0-.552-.447-1-1-1zm-20.659-39 5.143 12h-17.908l-6.947-12zm-23.341-2.277 4.213 7.277h-4.213zm-2 7.277h-4.213l4.213-7.277zm-5.371 2h5.371v5h-8.266zm7.371 0h5.371l2.895 5h-8.266zm-25.341-7h19.712l-6.947 12h-17.908zm-5.659 14h18v25h-18zm27 25v-11h6v11zm13-22v22h-5v-11h2c.553 0 1-.448 1-1s-.447-1-1-1h-3-8-3c-.553 0-1 .448-1 1s.447 1 1 1h2v11h-5v-25h40v25h-18v-22c0-.552-.447-1-1-1s-1 .448-1 1z"/><path d="m63 61h4c.553 0 1-.448 1-1v-6c0-.552-.447-1-1-1h-4c-.553 0-1 .448-1 1v6c0 .552.447 1 1 1zm1-6h2v4h-2z"/><path d="m71 61h4c.553 0 1-.448 1-1v-6c0-.552-.447-1-1-1h-4c-.553 0-1 .448-1 1v6c0 .552.447 1 1 1zm1-6h2v4h-2z"/><path d="m63 71h4c.553 0 1-.448 1-1v-6c0-.552-.447-1-1-1h-4c-.553 0-1 .448-1 1v6c0 .552.447 1 1 1zm1-6h2v4h-2z"/><path d="m71 71h4c.553 0 1-.448 1-1v-6c0-.552-.447-1-1-1h-4c-.553 0-1 .448-1 1v6c0 .552.447 1 1 1zm1-6h2v4h-2z"/><path d="m25 53h-4c-.553 0-1 .448-1 1v6c0 .552.447 1 1 1h4c.553 0 1-.448 1-1v-6c0-.552-.447-1-1-1zm-1 6h-2v-4h2z"/><path d="m33 53h-4c-.553 0-1 .448-1 1v6c0 .552.447 1 1 1h4c.553 0 1-.448 1-1v-6c0-.552-.447-1-1-1zm-1 6h-2v-4h2z"/><path d="m25 63h-4c-.553 0-1 .448-1 1v6c0 .552.447 1 1 1h4c.553 0 1-.448 1-1v-6c0-.552-.447-1-1-1zm-1 6h-2v-4h2z"/><path d="m33 63h-4c-.553 0-1 .448-1 1v6c0 .552.447 1 1 1h4c.553 0 1-.448 1-1v-6c0-.552-.447-1-1-1zm-1 6h-2v-4h2z"/><path d="m48 53c-2.206 0-4 1.794-4 4s1.794 4 4 4 4-1.794 4-4-1.794-4-4-4zm0 6c-1.103 0-2-.897-2-2s.897-2 2-2 2 .897 2 2-.897 2-2 2z"/><path d="m21.858 86h4.284c.447 1.72 1.999 3 3.858 3s3.411-1.28 3.858-3h4.284c.447 1.72 1.999 3 3.858 3s3.411-1.28 3.858-3h4.284c.447 1.72 1.999 3 3.858 3s3.411-1.28 3.858-3h4.284c.447 1.72 1.999 3 3.858 3s3.411-1.28 3.858-3h4.284c.447 1.72 1.999 3 3.858 3 2.206 0 4-1.794 4-4s-1.794-4-4-4c-1.859 0-3.411 1.28-3.858 3h-4.284c-.447-1.72-1.999-3-3.858-3s-3.411 1.28-3.858 3h-4.284c-.447-1.72-1.999-3-3.858-3s-3.411 1.28-3.858 3h-4.284c-.447-1.72-1.999-3-3.858-3s-3.411 1.28-3.858 3h-4.284c-.447-1.72-1.999-3-3.858-3s-3.411 1.28-3.858 3h-4.284c-.447-1.72-1.999-3-3.858-3-2.206 0-4 1.794-4 4s1.794 4 4 4c1.859 0 3.411-1.28 3.858-3zm56.142-3c1.103 0 2 .897 2 2s-.897 2-2 2-2-.897-2-2 .897-2 2-2zm-12 0c1.103 0 2 .897 2 2s-.897 2-2 2-2-.897-2-2 .897-2 2-2zm-12 0c1.103 0 2 .897 2 2s-.897 2-2 2-2-.897-2-2 .897-2 2-2zm-12 0c1.103 0 2 .897 2 2s-.897 2-2 2-2-.897-2-2 .897-2 2-2zm-12 0c1.103 0 2 .897 2 2s-.897 2-2 2-2-.897-2-2 .897-2 2-2zm-14 2c0-1.103.897-2 2-2s2 .897 2 2-.897 2-2 2-2-.897-2-2z"/><path d="m88 35c.553 0 1-.448 1-1v-4c0-.552-.447-1-1-1h-4c-.553 0-1 .448-1 1s.447 1 1 1h3v3c0 .552.447 1 1 1z"/></svg>