<svg id="Expand" enable-background="new 0 0 96 96" height="512" viewBox="0 0 96 96" width="512" xmlns="http://www.w3.org/2000/svg"><path d="m70 18.493v8.384l-3.97 15.881c-.085.341.015.701.263.949l4 4c.195.195.451.293.707.293s.512-.098.707-.293l4-4c.249-.248.348-.608.263-.949l-3.97-15.881v-9.877c0-.405-.245-.771-.619-.925l-34-14c-.244-.1-.518-.1-.762 0l-34 14c-.374.154-.619.52-.619.925s.245.771.619.925l34 14c.122.05.252.075.381.075s.259-.025.381-.075l22.619-9.314v23.389h-9c-.552 0-1 .447-1 1s.448 1 1 1h9v2h-46v-24c0-.552-.448-1-1-1s-1 .448-1 1v24h-9c-.552 0-1 .447-1 1v26c0 .553.448 1 1 1h54c.552 0 1-.447 1-1s-.448-1-1-1h-53v-24h56v28h-57c-.552 0-1 .447-1 1v4c0 .553.448 1 1 1h57v2h-57c-.552 0-1 .447-1 1v4c0 .553.448 1 1 1h58c.552 0 1-.447 1-1s-.448-1-1-1h-57v-2h57c.552 0 1-.447 1-1v-4c0-.553-.448-1-1-1h-57v-2h57c.552 0 1-.447 1-1v-59.212zm1 27.093-2.893-2.893 2.893-11.57 2.893 11.57zm-34-15.667-31.374-12.919 31.374-12.919 31.374 12.919z"/><path d="m37 14c-2.89 0-6 .938-6 3s3.11 3 6 3 6-.938 6-3-3.11-3-6-3zm0 4c-2.347 0-3.717-.673-3.975-1 .258-.327 1.628-1 3.975-1s3.717.673 3.975 1c-.258.327-1.628 1-3.975 1z"/><circle cx="47" cy="47" r="1"/><circle cx="43" cy="47" r="1"/><circle cx="39" cy="47" r="1"/><path d="m48 63h-2c-.552 0-1 .447-1 1s.448 1 1 1h2c.552 0 1-.447 1-1s-.448-1-1-1z"/><path d="m16 63c-.552 0-1 .447-1 1s.448 1 1 1h2c.552 0 1-.447 1-1s-.448-1-1-1z"/><path d="m32 74h20c.552 0 1-.447 1-1 0-2.206 1.794-4 4-4 .552 0 1-.447 1-1v-8c0-.553-.448-1-1-1-2.206 0-4-1.794-4-4 0-.553-.448-1-1-1h-16c-.552 0-1 .447-1 1s.448 1 1 1h15.083c.422 2.509 2.408 4.494 4.917 4.917v6.166c-2.509.423-4.494 2.408-4.917 4.917h-18.083v-2c1.654 0 3-1.346 3-3v-1c0-1.654-1.346-3-3-3h-2c-.551 0-1-.448-1-1v-1c0-.552.449-1 1-1h2c.551 0 1 .448 1 1 0 .553.448 1 1 1s1-.447 1-1c0-1.654-1.346-3-3-3v-3c0-.553-.448-1-1-1h-20c-.552 0-1 .447-1 1 0 2.206-1.794 4-4 4-.552 0-1 .447-1 1v8c0 .553.448 1 1 1 2.206 0 4 1.794 4 4 0 .553.448 1 1 1h16c.552 0 1-.447 1-1s-.448-1-1-1h-15.083c-.422-2.509-2.408-4.494-4.917-4.917v-6.166c2.509-.423 4.494-2.408 4.917-4.917h18.083v2c-1.654 0-3 1.346-3 3v1c0 1.654 1.346 3 3 3h2c.551 0 1 .448 1 1v1c0 .552-.449 1-1 1h-2c-.551 0-1-.448-1-1 0-.553-.448-1-1-1s-1 .447-1 1c0 1.654 1.346 3 3 3v3c0 .553.448 1 1 1z"/><circle cx="40" cy="69" r="1"/><circle cx="44" cy="69" r="1"/><circle cx="48" cy="69" r="1"/><path d="m93 37h-10c-.552 0-1 .447-1 1v20 .026c-1.825-2.438-4.727-4.026-8-4.026-5.514 0-10 4.486-10 10 0 3.273 1.588 6.175 4.026 8h-3.026c-.552 0-1 .447-1 1v20c0 .553.448 1 1 1h18 10c.552 0 1-.447 1-1v-55c0-.553-.448-1-1-1zm-11 55h-2v-3h2zm10-45h-8v-3h8zm0 5h-8v-3h8zm0 5h-8v-3h8zm0 5h-8v-3h8zm0 5h-8v-3h8zm0 5h-8v-3h8zm0 5h-8v-3h8zm0 5h-8v-3h8zm-22 5v-3h6v3zm4-8v3h-2v-3zm4 0v3h-2v-3zm2 0h2v3h-2zm2-2h-3v-3h3zm-7-3h2v3h-2zm3 13v-3h4v3zm4-15h-2.026c.769-.576 1.45-1.257 2.026-2.026zm-9 2v3h-3v-3zm-3 5v3h-4v-3zm-4 5h2v3h-2zm7 5v3h-2v-3zm2 0h3v3h-3zm9-5h8v3h-8zm0-45h8v3h-8zm-2 25c0 4.072-3.06 7.436-7 7.931v-1.931c1.654 0 3-1.346 3-3v-1c0-1.654-1.346-3-3-3h-2c-.551 0-1-.448-1-1v-1c0-.552.449-1 1-1h2c.551 0 1 .448 1 1 0 .553.448 1 1 1s1-.447 1-1c0-1.654-1.346-3-3-3v-1.931c3.94.495 7 3.859 7 7.931zm-16 0c0-4.072 3.06-7.436 7-7.931v1.931c-1.654 0-3 1.346-3 3v1c0 1.654 1.346 3 3 3h2c.551 0 1 .448 1 1v1c0 .552-.449 1-1 1h-2c-.551 0-1-.448-1-1 0-.553-.448-1-1-1s-1 .447-1 1c0 1.654 1.346 3 3 3v1.931c-3.94-.495-7-3.859-7-7.931zm0 10h2v3h-2zm0 15h3v3h-3zm26 3h-8v-3h8z"/><path d="m77 18c3.86 0 7 3.141 7 7 0 .553.448 1 1 1s1-.447 1-1c0-3.859 3.14-7 7-7 .552 0 1-.447 1-1s-.448-1-1-1c-3.86 0-7-3.141-7-7 0-.553-.448-1-1-1s-1 .447-1 1c0 3.859-3.14 7-7 7-.552 0-1 .447-1 1s.448 1 1 1zm8-4.879c.858 1.66 2.219 3.021 3.879 3.879-1.66.858-3.021 2.219-3.879 3.879-.858-1.66-2.219-3.021-3.879-3.879 1.66-.858 3.021-2.219 3.879-3.879z"/><circle cx="17" cy="47" r="1"/><circle cx="17" cy="43" r="1"/><circle cx="17" cy="39" r="1"/><circle cx="21" cy="47" r="1"/><circle cx="21" cy="43" r="1"/><circle cx="25" cy="47" r="1"/></svg>