<svg id="Expand" enable-background="new 0 0 96 96" height="512" viewBox="0 0 96 96" width="512" xmlns="http://www.w3.org/2000/svg"><path d="m93 53h-5.355c2.043-1.651 3.355-4.174 3.355-7v-6c0-4.963-4.037-9-9-9h-6v-.071c3.388-.486 6-3.408 6-6.929v-8c0-3.859-3.141-7-7-7h-15c-.553 0-1 .447-1 1v2c0 1.86 1.276 3.429 3 3.873v1.891l-2.895 5.789c-.155.31-.139.678.044.973s.504.474.851.474h2.071c.439 3.062 2.867 5.489 5.929 5.929v.071h-6c-4.963 0-9 4.037-9 9v8.813c-.811.474-1.495 1.115-1.999 1.878-1.076-1.62-2.915-2.691-5.001-2.691h-10.95c.184-.492.425-.967.75-1.4l-.007-.005c.036-.048.074-.093.102-.147.169-.339.133-.744-.095-1.047-1.501-2.002-1.501-4.799 0-6.801.228-.303.264-.708.095-1.047-.027-.054-.066-.1-.102-.147l.007-.006c-1.501-2.002-1.501-4.799 0-6.801l-.007-.005c.036-.048.074-.093.102-.147.169-.339.133-.744-.095-1.047-1.501-2.002-1.501-4.799 0-6.801.228-.303.264-.708.095-1.047-.17-.338-.516-.552-.895-.552h-28c-2.757 0-5 2.243-5 5 0 1.641.806 3.088 2.031 4-1.225.912-2.031 2.359-2.031 4s.806 3.088 2.031 4c-1.225.912-2.031 2.359-2.031 4s.806 3.088 2.031 4c-1.225.912-2.031 2.359-2.031 4 0 1.13.391 2.162 1.026 3h-.026c-.553 0-1 .447-1 1v4c0 .553.447 1 1 1h79c.553 0 1-.447 1-1s-.447-1-1-1h-78v-2h88v2h-6c-.553 0-1 .447-1 1s.447 1 1 1h3v4h-7c-.553 0-1 .447-1 1s.447 1 1 1h7v2h-7c-.553 0-1 .447-1 1s.447 1 1 1h7v2h-7c-.553 0-1 .447-1 1s.447 1 1 1h7v19h-82v-30c0-.553-.447-1-1-1s-1 .447-1 1v31c0 .553.447 1 1 1h84c.553 0 1-.447 1-1v-34h2c.553 0 1-.447 1-1v-4c0-.553-.447-1-1-1zm-32-41v-1h14c2.757 0 5 2.243 5 5v4c-2.206 0-4-1.794-4-4v-1c0-.553-.447-1-1-1h-12c-1.103 0-2-.897-2-2zm3 12c0-.553-.447-1-1-1h-1.382l2.276-4.553c.07-.138.106-.292.106-.447v-2h10c0 3.309 2.691 6 6 6v2c0 2.757-2.243 5-5 5-.553 0-1 .447-1 1v2c0 .512.389.917.884.977l-2.884 3.461-2.884-3.461c.495-.06.884-.465.884-.977v-2c0-.553-.447-1-1-1-2.757 0-5-2.243-5-5zm-9.612 26.332c.001-.001.002-.001.004-.002.514-.219 1.055-.33 1.608-.33h11.101c-.066.323-.101.658-.101 1v2h-14.864c.304-1.168 1.12-2.164 2.252-2.668zm-8.388-.332c1.859 0 3.411 1.279 3.858 3h-14.309c-.571-.915-.875-1.953-.875-3zm-42-24c0-1.654 1.346-3 3-3h26.281c-.271.643-.443 1.317-.532 2h-15.749c-.553 0-1 .447-1 1s.447 1 1 1h15.75c.089.683.26 1.357.532 2h-26.282c-1.654 0-3-1.346-3-3zm0 8c0-1.654 1.346-3 3-3h26.309c-.273.645-.464 1.314-.553 2h-8.756c-.553 0-1 .447-1 1s.447 1 1 1h8.755c.089.686.28 1.355.553 2h-26.308c-1.654 0-3-1.346-3-3zm0 8c0-1.654 1.346-3 3-3h26.281c-.271.643-.443 1.317-.532 2h-15.749c-.553 0-1 .447-1 1s.447 1 1 1h15.75c.089.683.26 1.357.532 2h-26.282c-1.654 0-3-1.346-3-3zm0 8c0-1.654 1.346-3 3-3h26.309c-.273.645-.464 1.314-.553 2h-23.756c-.553 0-1 .447-1 1s.447 1 1 1h23.755c.089.686.28 1.355.553 2h-26.308c-1.654 0-3-1.346-3-3zm65 3v-2c0-1.654 1.346-3 3-3h1v5zm6 0v-5h8c.553 0 1-.447 1-1v-6c0-.553-.447-1-1-1s-1 .447-1 1v5h-8-2c-1.627 0-3.061.793-3.974 2h-6.026v-7c0-.553-.447-1-1-1s-1 .447-1 1v7h-4c-.337 0-.67.035-1 .09v-8.09c0-3.859 3.141-7 7-7h4.531l4.701 5.641c.19.227.471.359.768.359s.578-.132.769-.359l4.7-5.641h4.531c3.859 0 7 3.141 7 7v6c0 3.859-3.141 7-7 7z"/><circle cx="10" cy="89" r="1"/><circle cx="10" cy="85" r="1"/><circle cx="10" cy="81" r="1"/><circle cx="14" cy="89" r="1"/><circle cx="14" cy="85" r="1"/><circle cx="18" cy="89" r="1"/><path d="m20 33h-10c-.553 0-1 .447-1 1s.447 1 1 1h10c.553 0 1-.447 1-1s-.447-1-1-1z"/><circle cx="13" cy="42" r="1"/><circle cx="9" cy="42" r="1"/><circle cx="13" cy="26" r="1"/><circle cx="9" cy="26" r="1"/><path d="m38 11h8c.356 0 .686-.189.865-.498s.18-.688.003-.998l-4-7c-.355-.623-1.381-.623-1.736 0l-4 7c-.177.31-.176.689.003.998s.509.498.865.498zm4-5.984 2.276 3.984h-4.553z"/><path d="m47.293 16.707 4 4c.195.195.451.293.707.293s.512-.098.707-.293l4-4c.391-.391.391-1.023 0-1.414l-4-4c-.391-.391-1.023-.391-1.414 0l-4 4c-.391.391-.391 1.023 0 1.414zm4.707-3.293 2.586 2.586-2.586 2.586-2.586-2.586z"/><path d="m43 19c-2.757 0-5 2.243-5 5s2.243 5 5 5 5-2.243 5-5-2.243-5-5-5zm0 8c-1.654 0-3-1.346-3-3s1.346-3 3-3 3 1.346 3 3-1.346 3-3 3z"/><path d="m32.707 13.293c-.391-.391-1.023-.391-1.414 0s-.391 1.023 0 1.414l1.293 1.293-1.293 1.293c-.391.391-.391 1.023 0 1.414.195.195.451.293.707.293s.512-.098.707-.293l1.293-1.293 1.293 1.293c.195.195.451.293.707.293s.512-.098.707-.293c.391-.391.391-1.023 0-1.414l-1.293-1.293 1.293-1.293c.391-.391.391-1.023 0-1.414s-1.023-.391-1.414 0l-1.293 1.293z"/><path d="m3 9c1.837 0 2.717-1.362 3.425-2.457.693-1.073 1.068-1.543 1.746-1.543s1.052.47 1.745 1.543c.707 1.095 1.588 2.457 3.425 2.457s2.717-1.362 3.424-2.458c.692-1.072 1.067-1.542 1.743-1.542s1.05.47 1.742 1.543c.706 1.095 1.586 2.457 3.421 2.457 1.836 0 2.715-1.362 3.422-2.457.692-1.073 1.066-1.543 1.743-1.543.676 0 1.05.47 1.742 1.542.706 1.096 1.586 2.458 3.422 2.458.553 0 1-.447 1-1s-.447-1-1-1c-.676 0-1.05-.47-1.742-1.542-.706-1.096-1.586-2.458-3.422-2.458s-2.716 1.363-3.423 2.458c-.692 1.072-1.066 1.542-1.742 1.542-.675 0-1.049-.47-1.741-1.542-.706-1.095-1.586-2.458-3.422-2.458s-2.716 1.362-3.423 2.457c-.693 1.073-1.067 1.543-1.744 1.543-.678 0-1.052-.47-1.745-1.543-.707-1.095-1.588-2.457-3.425-2.457-1.838 0-2.718 1.362-3.426 2.457-.693 1.073-1.067 1.543-1.745 1.543-.553 0-1 .447-1 1s.447 1 1 1z"/><path d="m25 12h-14c-.553 0-1 .447-1 1s.447 1 1 1h14c.553 0 1-.447 1-1s-.447-1-1-1z"/><circle cx="7" cy="13" r="1"/><circle cx="3" cy="13" r="1"/></svg>