<svg id="Expand" enable-background="new 0 0 96 96" height="512" viewBox="0 0 96 96" width="512" xmlns="http://www.w3.org/2000/svg"><circle cx="81" cy="76" r="1"/><circle cx="81" cy="72" r="1"/><circle cx="81" cy="68" r="1"/><path d="m86 49.586v-17.616c2.364-.145 4.568-1.124 6.257-2.813 1.124-1.124 1.743-2.618 1.743-4.207 0-3.281-2.669-5.95-5.95-5.95-.711 0-1.401.13-2.05.368v-11.368c0-.552-.447-1-1-1h-20c-.553 0-1 .448-1 1v11.368c-.649-.238-1.339-.368-2.05-.368-3.281 0-5.95 2.669-5.95 5.95 0 1.589.619 3.083 1.743 4.207.307.308.638.583.977.843h-28.72v-1h2c2.206 0 4-1.794 4-4v-3h2c.36 0 .692-.194.87-.507s.173-.698-.013-1.007l-2.857-4.763v-1.723c.553 0 1-.448 1-1v-4.98l5.196-1.039c.467-.094.804-.504.804-.981s-.337-.887-.804-.98l-15-3c-.129-.026-.264-.026-.393 0l-15 3c-.466.093-.803.503-.803.98v11.184c-1.161.414-2 1.514-2 2.816v5c0 .552.447 1 1 1h4c.553 0 1-.448 1-1v-5c0-1.302-.839-2.402-2-2.816v-9.964l4 .8v4.98 10c0 .265.105.52.293.707l4.707 4.707v1.586h-7c-7.168 0-13 5.832-13 13v20c0 .552.447 1 1 1h4v3c0 .552.447 1 1 1h5v16c0 .552.447 1 1 1h1v8c0 .552.447 1 1 1h12 12c.553 0 1-.448 1-1 0-2.414-1.721-4.434-4-4.899v-3.101h1c.553 0 1-.448 1-1v-40h22c.553 0 1-.448 1-1v-5h2v11.586l-6.707 6.707c-.391.391-.391 1.023 0 1.414.195.195.451.293.707.293s.512-.098.707-.293l5.293-5.293v27.586c0 .552.447 1 1 1h20c.553 0 1-.448 1-1v-27.586l5.293 5.293c.195.195.451.293.707.293s.512-.098.707-.293c.391-.391.391-1.023 0-1.414zm-4.293-13.293-4.293-4.293h6.586v15.586l-2-2v-8.586c0-.265-.105-.52-.293-.707zm-15.707-12.879 6.586 6.586h-6.586zm18 6.586h-6.586l6.586-6.586zm4.05-9c2.178 0 3.95 1.772 3.95 3.95 0 1.055-.411 2.047-1.157 2.793-1.312 1.311-3.013 2.086-4.843 2.228v-8.384c.613-.375 1.313-.587 2.05-.587zm-22.05-12h18v11.6c-.052.048-.107.092-.157.143l-8.843 8.843-8.843-8.844c-.05-.05-.105-.094-.157-.143zm-4.05 12c.736 0 1.437.212 2.05.586v8.384c-1.829-.142-3.531-.916-4.843-2.228-.746-.745-1.157-1.737-1.157-2.792 0-2.178 1.772-3.95 3.95-3.95zm-34.95-16.98 9.901 1.98-9.901 1.98-9.901-1.98zm-14 19.98h-2v-4c0-.551.448-1 1-1s1 .449 1 1zm13.804-14.02c.064.014.131.02.196.02s.132-.006.196-.02l7.804-1.56v3.58h-16v-3.58zm-7.804 4.02h4.586l-1.293 1.293c-.188.187-.293.442-.293.707v2c0 1.858-1.279 3.411-3 3.858zm4.707 13.293-3.66-3.66c2.302-.84 3.953-3.044 3.953-5.633v-1.586l2.414-2.414h7.586v2c0 .181.049.359.143.515l2.09 3.485h-1.233c-.553 0-1 .448-1 1v4c0 1.103-.897 2-2 2h-3c-.553 0-1 .448-1 1v2h-4v-2c0-.265-.105-.52-.293-.707zm3.879 4.707-1.586 1.586-1.586-1.586zm-18.586 34v-2h4v2zm5-23c-.553 0-1 .448-1 1v18h-9v-5h5c.553 0 1-.448 1-1s-.447-1-1-1h-5v-3h5c.553 0 1-.448 1-1s-.447-1-1-1h-5v-3h5c.553 0 1-.448 1-1s-.447-1-1-1h-5v-2c0-6.065 4.935-11 11-11h6.586l3.707 3.707c.195.195.451.293.707.293s.512-.098.707-.293l3.707-3.707h4.172l-5.292 5.292c-.001.001-.001.001-.002.002l-3.292 3.292-3.292-3.292c-.001-.001-.001-.001-.002-.002l-2.999-2.999c-.391-.391-1.023-.391-1.414 0s-.391 1.023 0 1.414l2.707 2.707v44.586h-6v-39c0-.552-.447-1-1-1zm13 46c0 .011.006.02.006.031-.586-.445-1.26-.777-2.006-.93v-3.101h2zm-4-6v-42.586l2 2v40.586zm0 2v3h-6v-3zm-6 7v-2h7c1.304 0 2.416.836 2.829 2zm21.829 0h-9.93c-.152-.746-.485-1.421-.93-2.006.011 0 .02.006.031.006h8c1.304 0 2.416.836 2.829 2zm-3.829-4h-6v-3h6zm25-46h-22c-.553 0-1 .448-1 1v40h-10v-40.586l2-2v39.586c0 .552.447 1 1 1s1-.448 1-1v-41.586l6.414-6.414h5.586v6c0 .552.447 1 1 1s1-.448 1-1v-6h3v6c0 .552.447 1 1 1s1-.448 1-1v-6h3v6c0 .552.447 1 1 1s1-.448 1-1v-6h5zm2-6v-4h2v4zm4-4h6.586l-4.293 4.293c-.188.187-.293.442-.293.707v8.586l-2 2zm18 47h-18v-28.586l3.707-3.707c.188-.187.293-.442.293-.707v-8.586l5-5 5 5v8.586c0 .265.105.52.293.707l3.707 3.707z"/></svg>