<svg xmlns="http://www.w3.org/2000/svg" xmlns:xlink="http://www.w3.org/1999/xlink" version="1.1" x="0px" y="0px" viewBox="0 0 500 500" enable-background="new 0 0 500 500" xml:space="preserve"><g><g><g><path d="M459.1,250c0,5.6-0.2,11.2-0.6,16.8c-0.2,2.8-0.5,5.5-0.8,8.3c-0.2,1.4-0.3,2.7-0.5,4.1c0.5-3.4-0.4,2.2-0.5,2.8     c-1.7,10.7-4.2,21.3-7.5,31.6c-1.5,4.7-3.1,9.3-4.9,13.9c-0.5,1.2-1,2.5-1.5,3.7c-1.6,4.1,1.3-2.7-0.6,1.3     c-1.3,2.8-2.5,5.6-3.9,8.4c-4.6,9.5-9.9,18.6-15.9,27.3c-1.5,2.2-3,4.3-4.5,6.4c-0.8,1.1-1.6,2.1-2.3,3.2     c-0.3,0.4-1.8,2.2-0.1,0.1c-3.5,4.4-7.2,8.8-11,13c-7.1,7.7-14.7,14.9-22.8,21.6c-1,0.8-2,1.6-3.1,2.5c-3.4,2.7,2.4-1.7-1.1,0.9     c-2.1,1.6-4.2,3.1-6.4,4.6c-4.3,3-8.7,5.9-13.2,8.6c-4.5,2.7-9.1,5.3-13.8,7.7c-2.2,1.1-4.3,2.2-6.5,3.2c-1,0.5-2,0.9-3,1.4     c-0.5,0.2-5.6,2.4-2.5,1.1c-9.9,4.2-20.1,7.5-30.4,10.2c-5.3,1.3-10.6,2.5-15.9,3.5c-2.7,0.5-5.4,0.9-8.1,1.3     c3.4-0.5-1.1,0.1-1.5,0.2c-1.4,0.2-2.7,0.3-4.1,0.4c-11.6,1.2-23.3,1.4-34.9,0.7c-12.8-0.7-17.8-1.4-30.1-4     c-10.5-2.2-20.9-5.2-31-9c-2.3-0.8-4.6-1.7-6.8-2.7c-0.7-0.3-3.4-1.5-0.7-0.3c-1.2-0.5-2.4-1.1-3.6-1.6     c-5.2-2.4-10.3-4.9-15.4-7.7c-9.2-5.1-18.1-10.8-26.5-17.1c-0.3-0.2-3.7-2.9-1.1-0.8c-1-0.8-2.1-1.6-3.1-2.5     c-1.9-1.5-3.7-3.1-5.5-4.6c-4.1-3.6-8.1-7.3-11.9-11.2c-3.7-3.7-7.3-7.6-10.7-11.5c-1.4-1.7-2.8-3.3-4.2-5c-0.8-1-1.6-2-2.5-3.1     c2,2.6-1.3-1.7-1.6-2.2c-6.3-8.5-11.9-17.3-16.9-26.6c-2.5-4.7-4.9-9.4-7.1-14.2c-0.5-1.2-1.1-2.4-1.6-3.6c1.3,3.1-0.4-1-0.5-1.3     c-1-2.5-2-5-2.9-7.5c-3.7-10.1-6.6-20.5-8.8-31.1c-0.5-2.7-1-5.3-1.5-8c-0.2-1.3-0.4-2.7-0.6-4.1c-0.7-4.5,0.3,3.1-0.2-1.5     c-0.7-5.7-1.2-11.5-1.5-17.3c-0.5-11.4-0.2-22.9,1-34.2c0.1-1.1,0.2-2.3,0.4-3.4c0.1-0.8,0.5-3.8,0.1-0.8     c0.4-2.7,0.8-5.4,1.3-8.1c1-5.8,2.3-11.5,3.8-17.2c1.3-4.8,2.7-9.5,4.2-14.2c0.8-2.5,1.7-5,2.7-7.5c0.5-1.2,0.9-2.5,1.4-3.7     c0.2-0.5,2.4-5.6,1-2.6c4.2-9.7,9.1-19.1,14.6-28.1c2.5-4.1,5.2-8.1,7.9-12.1c1.5-2.1,3.1-4.3,4.6-6.4c2.6-3.5-1.9,2.3,0.9-1.1     c1.1-1.4,2.2-2.7,3.3-4.1c6.7-8,14-15.6,21.7-22.6c3.9-3.5,7.9-6.9,12-10.1c-2.6,2.1,0.8-0.6,1.1-0.8c0.7-0.5,1.4-1,2.1-1.6     c2.5-1.8,5-3.6,7.5-5.3c8.8-5.9,17.9-11.1,27.4-15.7c2.4-1.2,4.8-2.2,7.2-3.3c4-1.8-2.8,1.1,1.3-0.6c1.2-0.5,2.5-1,3.7-1.5     c5-1.9,10-3.7,15.1-5.3c10.6-3.3,21.4-5.7,32.3-7.4c0.7-0.1,3.8-0.5,0.8-0.1c1.4-0.2,2.7-0.3,4.1-0.5c2.8-0.3,5.5-0.6,8.3-0.8     c6.1-0.5,12.3-0.7,18.4-0.6c13.6,0.1,24.5,1.1,36.4,3.4c12.4,2.4,24.7,5.8,36.5,10.2c6.1,2.3,7.7,3,13.7,5.8     c6.1,2.9,12,6,17.8,9.4c4.9,2.9,9.6,5.9,14.3,9.2c6.1,4.3,8.4,6,14,10.8c37.9,32.2,62.5,74.4,71.6,123.5     C458,224.7,459,236.6,459.1,250c0,7.8,6.9,15.4,15,15c8.1-0.4,15-6.6,15-15c-0.2-56.5-20.2-110.8-56.4-154.1     C398.2,54.6,348.9,25.4,296,15.4c-50.5-9.6-102.5-3.1-149,18.8C105.5,53.7,70.1,86,46.1,125c-24.8,40.3-37.2,88.2-35,135.5     c2.2,46.9,18,93.1,46.1,130.8c28.3,38.1,66.6,67,111.2,83.5c44.9,16.6,95.2,18.7,141.5,6.8c44.6-11.5,85.9-36.4,116.9-70.5     c31.2-34.4,52.5-77.8,59.4-123.8c1.8-12.4,2.9-24.7,3-37.2c0-7.8-6.9-15.4-15-15C465.9,235.3,459.1,241.6,459.1,250z"/></g></g><g><g><path d="M401.1,84.3c-10.5,10.5-20.9,20.9-31.4,31.4c-25.3,25.3-50.5,50.5-75.8,75.8c-30.5,30.5-60.9,60.9-91.4,91.4     c-26.3,26.3-52.7,52.7-79,79c-12.8,12.8-26.1,25.3-38.6,38.6c-0.2,0.2-0.4,0.4-0.5,0.5c-5.7,5.7-5.7,15.5,0,21.2     c5.7,5.7,15.5,5.7,21.2,0c10.5-10.5,20.9-20.9,31.4-31.4c25.3-25.3,50.5-50.5,75.8-75.8c30.5-30.5,60.9-60.9,91.4-91.4     c26.3-26.3,52.7-52.7,79-79c12.8-12.8,26.1-25.3,38.6-38.6c0.2-0.2,0.4-0.4,0.5-0.5c5.7-5.7,5.7-15.5,0-21.2     C416.6,78.5,406.9,78.5,401.1,84.3L401.1,84.3z"/></g></g></g></svg>
